<?xml version="1.0" standalone="no"?>
<!DOCTYPE svg PUBLIC "-//W3C//DTD SVG 1.1//EN" "http://www.w3.org/Graphics/SVG/1.1/DTD/svg11.dtd" >
<svg>
<metadata>
Created by FontForge 20090914 at Fri Feb 24 12:41:43 2012
 By root
Linux Libertine by Philipp H. Poll, Open Font under Terms of following Free Software Licenses:
GPL (General Public License) with font-exception and OFL (Open Font License).
Created with FontForge (http://fontforge.sf.net) Sept 2003, 2004, 2005, 2006, 2007, 2008
</metadata>
<defs>
<font id="LinLibertine" horiz-adv-x="0" >
  <font-face 
    font-family="Linux Libertine"
    font-weight="400"
    font-stretch="normal"
    units-per-em="2048"
    panose-1="2 0 5 3 0 0 0 0 0 0"
    ascent="1638"
    descent="-410"
    x-height="883"
    cap-height="1325"
    bbox="-2216 -504 12638 1832"
    underline-thickness="81"
    underline-position="-201"
    unicode-range="U+0020-U+FFFD"
  />
<missing-glyph horiz-adv-x="1024" 
d="M0 0v1430h1024v-1430h-1024zM512 807l348 518h-696zM573 715l349 -520v1040zM164 102h696l-348 521zM102 1235v-1040l349 520z" />
    <glyph glyph-name="ellipsis" unicode="&#x2e;&#x2e;&#x2e;" horiz-adv-x="1533" 
d="M1200 88q0 44 32.5 76.5t76.5 32.5t76 -32.5t32 -76.5t-32 -76t-76 -32t-76.5 32t-32.5 76zM659 88q0 44 32.5 76.5t76.5 32.5t76.5 -32.5t32.5 -76.5t-32.5 -76t-76.5 -32t-76.5 32t-32.5 76zM117 88q0 44 32 76.5t76 32.5t76.5 -32.5t32.5 -76.5t-32.5 -76t-76.5 -32
t-76 32t-32 76z" />
    <glyph glyph-name="exclamdbl" unicode="&#x21;&#x21;" horiz-adv-x="966" 
d="M186 88q0 44 32.5 76.5t76.5 32.5t76 -32.5t32 -76.5t-32 -76t-76 -32t-76.5 32t-32.5 76zM295 1348q43 0 75.5 -37t32.5 -113q0 -59 -7 -115.5t-20.5 -135.5t-21.5 -144q-11 -97 -18 -183.5t-9 -134t-3 -55.5q-4 -41 -29 -41t-29 27l-6 78.5t-12.5 152t-14.5 156.5
q-7 66 -27 190t-20 205q0 76 33 113t76 37zM563 92q0 44 32.5 76.5t76.5 32.5t76 -32.5t32 -76.5t-32 -76t-76 -32t-76.5 32t-32.5 76zM672 1352q43 0 75.5 -37t32.5 -113q0 -59 -7 -115.5t-20.5 -135.5t-21.5 -144q-11 -97 -18 -183.5t-9.5 -134t-3.5 -55.5q-4 -41 -28 -41
t-29 27l-6 78.5t-12.5 152t-14.5 156.5q-7 66 -27 190t-20 205q0 76 33 113t76 37z" />
    <glyph glyph-name="question_question" unicode="&#x3f;&#x3f;" horiz-adv-x="1660" 
d="M295 88q0 44 32 76.5t76 32.5t76.5 -32.5t32.5 -76.5t-32.5 -76t-76.5 -32t-76 32t-32 76zM233 1171q0 -37 13 -53q12 -15 12 -49q0 -33 -24 -52.5t-56 -19.5t-58 20t-26 68q0 101 105 185q93 80 254 80q156 0 250 -85t94 -225q0 -34 -8.5 -66t-18.5 -55.5t-32 -51
t-35.5 -43t-44 -40.5t-42 -33.5l-43.5 -31.5q-86 -64 -106 -103q-29 -55 -29 -149v-90q0 -10 -11 -15.5t-24 -5.5q-32 0 -32 21v94q0 40 4 73t17.5 77.5t44 90.5t77.5 89q62 58 87.5 109t25.5 122q0 103 -55 176.5t-140 73.5q-86 0 -142.5 -32t-56.5 -79zM1065 88
q0 44 32.5 76.5t76.5 32.5t76 -32.5t32 -76.5t-32 -76t-76 -32t-76.5 32t-32.5 76zM1004 1171q0 -38 12 -53t12 -49q0 -33 -24 -52.5t-56 -19.5t-58 20t-26 68q0 101 105 185q93 80 254 80q156 0 250 -85t94 -225q0 -34 -8.5 -66t-18.5 -55.5t-32 -51t-35.5 -43t-44 -40.5
t-42 -33.5l-43.5 -31.5q-86 -64 -106 -103q-29 -55 -29 -149v-90q0 -10 -10.5 -15.5t-23.5 -5.5q-33 0 -33 21v94q0 40 4 73t17.5 77.5t44 90.5t77.5 89q62 58 87.5 109t25.5 122q0 103 -55 176.5t-140 73.5q-86 0 -142 -32t-56 -79z" />
    <glyph glyph-name="question_exclam" unicode="&#x3f;&#x21;" horiz-adv-x="1382" 
d="M295 88q0 44 32 76.5t76 32.5t76.5 -32.5t32.5 -76.5t-32.5 -76t-76.5 -32t-76 32t-32 76zM233 1171q0 -37 13 -53q12 -15 12 -49q0 -33 -24 -52.5t-56 -19.5t-58 20t-26 68q0 101 105 185q93 80 254 80q156 0 250 -85t94 -225q0 -34 -8.5 -66t-18.5 -55.5t-32 -51
t-35.5 -43t-44 -40.5t-42 -33.5l-43.5 -31.5q-86 -64 -106 -103q-29 -55 -29 -149v-90q0 -10 -11 -15.5t-24 -5.5q-32 0 -32 21v94q0 40 4 73t17.5 77.5t44 90.5t77.5 89q62 58 87.5 109t25.5 122q0 103 -55 176.5t-140 73.5q-86 0 -142.5 -32t-56.5 -79zM979 92
q0 44 32 76.5t76 32.5t76.5 -32.5t32.5 -76.5t-32.5 -76t-76.5 -32t-76 32t-32 76zM1087 1352q43 0 76 -37t33 -113q0 -59 -7 -115.5t-20.5 -135.5t-21.5 -144q-11 -97 -18 -183.5t-9.5 -134t-3.5 -55.5q-4 -41 -29 -41q-23 0 -28 27l-6 78.5t-12.5 152t-14.5 156.5
q-7 66 -27 190t-20 205q0 76 32.5 113t75.5 37z" />
    <glyph glyph-name="exclam_question" unicode="&#x21;&#x3f;" horiz-adv-x="1304" 
d="M709 84q0 44 32 76.5t76 32.5t76.5 -32.5t32.5 -76.5t-32.5 -76.5t-76.5 -32.5t-76 32.5t-32 76.5zM647 1167q0 -38 12 -53q13 -16 13 -49t-24 -52.5t-56 -19.5t-58 20t-26 68q0 101 104 185q93 80 254 80q156 0 250 -85t94 -225q0 -46 -15.5 -89.5t-33.5 -72
t-55.5 -63.5t-57 -50l-61.5 -46q-86 -64 -106 -103q-29 -55 -29 -149v-90q0 -10 -11 -15.5t-24 -5.5q-33 0 -33 21v94q0 40 4.5 73t17.5 77.5t44 90.5t78 89q62 57 87 108.5t25 122.5q0 103 -54.5 176.5t-139.5 73.5q-86 0 -142.5 -32t-56.5 -79zM186 88q0 44 32.5 76.5
t76.5 32.5t76 -32.5t32 -76.5t-32 -76t-76 -32t-76.5 32t-32.5 76zM295 1348q43 0 75.5 -37t32.5 -113q0 -59 -7 -115.5t-20.5 -135.5t-21.5 -144q-11 -97 -18 -183.5t-9 -134t-3 -55.5q-4 -41 -29 -41t-29 27l-6 78.5t-12.5 152t-14.5 156.5q-7 66 -27 190t-20 205
q0 76 33 113t76 37z" />
    <glyph glyph-name="centigrade" unicode="&#xb0;C" horiz-adv-x="1626" 
d="M90 1143q0 86 60 146.5t145 60.5t144 -60.5t59 -146.5q0 -85 -59 -145t-144 -60t-145 60t-60 145zM428 1141q0 57 -34.5 102t-98.5 45q-63 0 -99 -43.5t-36 -103.5q0 -57 36.5 -99.5t98.5 -42.5q60 0 96.5 43t36.5 99zM1104 -20q-138 0 -254.5 49t-192 130.5
t-117.5 185.5t-42 216q0 145 45 263.5t123.5 196.5t184.5 120.5t228 42.5q98 0 174.5 -11t112 -23.5t69 -26.5t48.5 -17q32 -125 41 -307q-21 -15 -60 -8q-43 154 -133.5 238.5t-247.5 84.5q-54 0 -104.5 -12t-106 -48t-96.5 -91.5t-67.5 -151.5t-26.5 -221
q0 -142 48.5 -259.5t144.5 -190t223 -72.5q132 0 216.5 44.5t184.5 170.5q39 -6 51 -31q-96 -141 -199 -206.5t-247 -65.5z" />
    <glyph glyph-name="fahrenheit" unicode="&#xb0;F" horiz-adv-x="1642" 
d="M90 1143q0 86 60 146.5t145 60.5t144 -60.5t59 -146.5q0 -85 -59 -145t-144 -60t-145 60t-60 145zM428 1141q0 57 -34.5 102t-98.5 45q-63 0 -99 -43.5t-36 -103.5q0 -57 36.5 -99.5t98.5 -42.5q60 0 96.5 43t36.5 99zM977 1018v-391h268q52 0 72.5 21t32.5 69l14 61
q0 13 14 13h45q7 0 7 -5q-17 -133 -17 -194q0 -63 17 -197l-5 -8h-47q-16 0 -16 16l-12 64q-10 46 -32.5 67t-72.5 21h-268v-403q0 -47 25 -67.5t85 -25.5l54 -4q16 -1 16 -16v-39l-4 -4l-256 4l-264 -4l-4 4v39q0 14 14 16l55 4q63 4 88 26.5t25 66.5v862q0 45 -21.5 65.5
t-84.5 24.5l-62 4q-16 1 -16 14v39l8 4l256 -4h659q12 -131 43 -317l-59 -10q-17 52 -27.5 80.5t-30.5 65.5t-42 55t-56.5 31t-79.5 13h-249q-39 0 -55.5 -13t-16.5 -48z" />
    <glyph glyph-name="f_b" unicode="fb" horiz-adv-x="1593" 
d="M940 743q-20 -17 -27.5 -35.5t-7.5 -50.5v-512q37 -46 71 -71t77 -25q141 0 214.5 113.5t73.5 296.5q0 148 -66.5 249t-160.5 101q-100 0 -174 -66zM193 250v549h-138q-10 0 -10 12v27q0 15 11 28t36 13h101v88q0 114 39 206.5t100.5 147.5t131 84t136.5 29q95 0 170 -52
q71 16 117 48q24 0 24 -21q-6 -82 -6 -215v-377q0 -29 21 -10q102 92 229 92q67 0 132 -28.5t116.5 -79t83 -128t31.5 -167.5q0 -117 -41 -217t-107 -164t-145.5 -99.5t-159.5 -35.5q-120 0 -180 50q-17 14 -28.5 13.5t-27.5 -18.5q-8 -9 -49 -50q-29 0 -45 25q8 40 8 145
v1000q0 57 -2 65q-26 9 -44 35.5t-28 52t-37 46t-71 20.5q-24 0 -48 -7t-54 -30.5t-52 -61t-37.5 -106t-15.5 -158.5v-122h221q17 0 17 -13v-41q0 -12 -15.5 -19t-31.5 -7h-191v-549q0 -45 2 -72.5t10 -49.5t16.5 -32.5t30 -18t42.5 -10t61 -4.5q9 -9 9 -33.5t-9 -33.5
q-176 4 -242 4q-43 0 -215 -4q-9 9 -9 33.5t9 33.5q38 3 57 6.5t37.5 13.5t25 30.5t10.5 52t4 84.5z" />
    <glyph glyph-name="f_f_h" unicode="ffh" horiz-adv-x="2154" 
d="M1282 1376q24 5 65 21.5t64 32.5q25 0 25 -21q-6 -72 -6 -205v-479q92 92 187.5 131t170.5 39q108 0 153.5 -77t45.5 -240v-422q0 -44 19.5 -63.5t68.5 -24.5l39 -5q18 -2 18 -16v-47l-4 -4q-141 4 -221 4l-211 -4l-4 4v47q0 14 14 16l41 5q50 5 69 24.5t19 63.5v405
q0 124 -33 181t-104 57q-110 0 -268 -150v-493q0 -43 20.5 -63t67.5 -25l38 -5q17 -2 17 -16v-47l-4 -4q-139 4 -219 4l-197 -4l-2 4v47q0 13 14 16l23 5q56 10 72 26.5t16 61.5v1028v22h-12q-27 0 -47 15t-28 29t-22 44q-15 31 -50.5 52.5t-72.5 21.5q-110 0 -143 -172
q-14 -82 -14 -203v-114h225q16 0 16 -13v-41q0 -12 -15.5 -19t-33.5 -7h-192v-643q0 -45 17.5 -63.5t70.5 -24.5l39 -5q16 -2 16 -16v-47l-4 -4q-139 4 -219 4l-213 -4l-4 4v47q0 14 16 16l39 5q49 5 68.5 24.5t19.5 63.5v643h-391v-643q0 -45 18.5 -64t69.5 -24l39 -5
q16 -2 16 -16v-47l-4 -4q-139 4 -219 4l-213 -4l-4 4v47q0 14 16 16l39 5q52 5 70 24t18 64v643h-141q-10 0 -10 12v27q0 15 11 28t36 13h104q0 190 45.5 305.5t149.5 177.5q67 39 145 39q111 0 182.5 -37t96.5 -84q48 77 126 118.5t142 41.5q148 0 207 -64zM754 1161l-6 -4
q-35 0 -57 19.5t-30.5 44.5t-25 54.5t-39.5 43.5q-40 24 -72 24q-15 0 -32.5 -7.5t-41.5 -25.5t-47 -59t-38 -98q-23 -75 -23 -252v-22h391v88q7 135 21 194z" />
    <glyph glyph-name="f_f_j" unicode="ffj" horiz-adv-x="1626" 
d="M1470 223q0 -491 -149 -612q-77 -64 -186 -64q-34 0 -70.5 25t-36.5 66q0 26 21 43.5t41 17.5q25 0 44 -8t27 -15.5t19 -21.5q22 -33 47 -33q16 0 29.5 12.5t22.5 40.5t16 56t11 75.5t6.5 81.5t3.5 91.5t1 88v87.5v538q0 64 -11 85.5t-49 21.5h-370v-645q0 -44 21 -63.5
t67 -22.5l65 -5q6 0 11.5 -4.5t5.5 -11.5v-47l-4 -4q-166 4 -246 4l-213 -4l-4 4v47q0 14 16 16l39 5q50 5 69 23.5t19 62.5v645h-391v-645q0 -44 18.5 -62.5t69.5 -23.5l39 -5q16 -2 16 -16v-47l-4 -4q-139 4 -219 4l-213 -4l-4 4v47q0 14 16 16l39 5q52 5 70 23t18 63v645
h-141q-10 0 -10 12v27q0 15 11 28t36 13h104q0 191 45.5 306.5t149.5 176.5q67 39 145 39q111 0 182.5 -37t96.5 -84q47 61 131 107.5t178 46.5q100 0 182 -56q62 -40 104 -95t42 -109q0 -32 -25.5 -56t-56.5 -24q-49 0 -76.5 37.5t-46.5 123.5q-21 111 -147 111
q-24 0 -48 -7t-53.5 -31t-51.5 -62t-37 -106.5t-15 -158.5v-122h387q42 0 99 13t65 13h32v-682zM754 1161l-6 -4q-35 0 -57 19.5t-30.5 44.5t-25 54.5t-39.5 43.5q-40 24 -72 24q-15 0 -32.5 -7.5t-41.5 -25.5t-47 -59t-38 -98q-23 -75 -23 -252v-22h391v88q7 135 21 194z
" />
    <glyph glyph-name="f_f_k" unicode="ffk" horiz-adv-x="2084" 
d="M1427 432v-276q0 -44 20 -63.5t69 -24.5l38 -5q19 -2 19 -16v-47l-4 -4q-141 4 -221 4l-211 -4l-4 4v47q0 14 16 16l39 5q51 5 69.5 24t18.5 64v1022v22q-19 1 -33 8t-26 23t-17 25t-16 32q-15 31 -47 50.5t-68 19.5q-16 0 -32 -3t-38 -13.5t-39.5 -27.5t-34 -49
t-24.5 -75q-14 -82 -14 -197v-114h225q16 0 16 -13v-41q0 -12 -15.5 -19t-33.5 -7h-192v-643q0 -45 18.5 -64t69.5 -24l39 -5q16 -2 16 -16v-47l-4 -4q-139 4 -219 4l-213 -4l-4 4v47q0 14 16 16l39 5q52 5 70 24t18 64v643h-391v-643q0 -45 17.5 -63.5t70.5 -24.5l39 -5
q16 -2 16 -16v-47l-4 -4q-139 4 -219 4l-213 -4l-4 4v47q0 14 16 16l39 5q54 6 71 24t17 64v643h-141q-10 0 -10 12v27q0 15 11 28t36 13h104q0 190 45 302.5t150 174.5q67 39 145 39q111 0 182.5 -37t96.5 -82q39 79 120.5 116.5t178.5 37.5q101 0 168 -41q57 12 108 34h45
v-938q65 32 124 82t145 144q41 44 41 80q0 32 -60 32h-8q-7 0 -11.5 5.5t-4.5 11.5v39l6 4q96 -4 170 -4l190 4l9 -4v-39q0 -7 -8 -12t-15 -5h-14q-42 0 -101.5 -29.5t-95.5 -68.5l-156 -172q-10 -10 -10 -23t10 -26l242 -346q30 -42 72.5 -68.5t81.5 -26.5h6q24 0 24 -16
v-45l-4 -6q-102 4 -182 4l-127 -4l-6 8v43q0 43 -47 111l-150 202q-20 27 -29.5 38t-29 23.5t-41.5 12.5q-7 0 -21 -2zM754 1161l-6 -4q-35 0 -57 18.5t-30.5 42.5t-25 52.5t-39.5 42.5q-40 24 -72 24q-15 0 -32.5 -6.5t-41.5 -23.5t-47 -57t-38 -97q-23 -75 -23 -252v-22
h391v88q7 135 21 194z" />
    <glyph glyph-name="f_f_t" unicode="fft" horiz-adv-x="1759" 
d="M184 250v549h-137q-10 0 -10 12v27q0 15 11 28t36 13h100q0 189 47 302.5t152 174.5q67 39 145 39q109 0 180 -35.5t97 -80.5q46 75 111 113t131 38q107 0 176 -62q53 -46 53 -94q0 -31 -18 -54.5t-54 -23.5q-79 0 -94 84q-16 84 -78 84q-78 0 -109.5 -98.5t-31.5 -294.5
v-92h403q0 188 -4 235q0 6 3.5 10.5t13 9t12.5 6.5l119 54q26 0 26 -20q-8 -83 -8 -216v-79h246q16 0 16 -13v-41q0 -12 -15.5 -19t-33.5 -7h-213v-518q0 -101 14.5 -145t53.5 -44q93 0 168 58q31 -3 37 -35q-59 -66 -132 -100.5t-145 -34.5q-158 0 -158 202v617h-403v-549
q0 -45 2 -72.5t10 -49.5t16.5 -32.5t30 -18t42.5 -10t61 -4.5q9 -9 9 -33.5t-9 -33.5q-176 4 -242 4q-23 0 -195 -4q-9 9 -9 33.5t9 33.5q31 3 46.5 6.5t31.5 13.5t22 30.5t9.5 52.5t3.5 84v549h-383v-549q0 -52 4 -84.5t11 -52.5t23.5 -30t33 -13.5t49.5 -6.5q9 -9 9 -33.5
t-9 -33.5q-176 4 -201 4q-43 0 -215 -4q-9 9 -9 33.5t9 33.5q47 3 68.5 8t39 25t21.5 54t4 100zM754 1155q-4 -4 -15 -4q-24 0 -42 13t-26.5 27.5t-19.5 41.5q-38 94 -127 94q-12 0 -24.5 -2.5t-32 -13.5t-37 -29.5t-35.5 -53t-30 -81.5q-19 -62 -19 -244v-24h383v98
q0 102 27 176z" />
    <glyph glyph-name="f_h" unicode="fh" horiz-adv-x="1617" 
d="M893 729q91 92 187 131t171 39q108 0 153.5 -77t45.5 -240v-426q0 -45 18 -64t70 -24l39 -5q16 -2 16 -16v-47l-4 -4q-139 4 -219 4l-213 -4l-4 4v47q0 14 16 16l39 5q53 6 70.5 24.5t17.5 63.5v409q0 125 -32.5 181.5t-104.5 56.5q-108 0 -266 -150v-497
q0 -44 19.5 -63.5t68.5 -24.5l39 -5q16 -2 16 -16v-47l-4 -4q-139 4 -221 4l-211 -4l-4 4v47q0 14 16 16l39 5q51 5 69.5 24t18.5 64v1024q0 16 -2 24q-37 12 -57 56q-40 100 -127 100q-24 0 -48.5 -6.5t-55 -29.5t-53 -60t-38.5 -105t-16 -158v-122h225q17 0 17 -13v-41
q0 -12 -15.5 -19t-31.5 -7h-195v-643q0 -45 17.5 -63.5t70.5 -24.5l37 -5q16 -2 16 -16v-47l-4 -4q-137 4 -217 4l-213 -4l-4 4v47q0 14 16 16l39 5q52 5 70 24t18 64v643h-141q-10 0 -10 12v27q0 15 11 28t36 13h104v88q0 114 38.5 206t99.5 146t130 82.5t136 28.5
q100 0 170 -48q45 15 86 41h45v-694z" />
    <glyph glyph-name="f_j" unicode="fj" horiz-adv-x="1083" 
d="M926 217q0 -484 -150 -606q-77 -64 -186 -64q-34 0 -70.5 25t-36.5 66q0 26 21 43.5t41 17.5q25 0 44 -8t27 -15.5t19 -21.5q22 -33 47 -33q16 0 29.5 12.5t22.5 40.5t16 56t11 75.5t6.5 81.5t3.5 91.5t1 88v87.5v540q0 64 -10.5 84.5t-48.5 20.5h-371v-643
q0 -47 16.5 -65.5t71.5 -22.5l68 -5q16 0 16 -16v-47l-4 -4q-168 4 -248 4l-213 -4l-4 4v47q0 14 16 16l39 5q47 5 67.5 25t20.5 63v643h-141q-10 0 -10 12v27q0 15 11 28t36 13h104v36q0 116 24 207.5t62 148t89.5 93.5t103 51.5t106.5 14.5q101 0 183 -56q61 -41 102 -97
t41 -110q0 -30 -25.5 -53.5t-56.5 -23.5q-47 0 -75.5 38t-45.5 121q-23 113 -147 113q-24 0 -48 -7t-54 -30t-52 -60.5t-37.5 -105.5t-15.5 -158v-122h387q41 0 99 15t67 15h31v-692z" />
    <glyph glyph-name="f_k" unicode="fk" horiz-adv-x="1558" 
d="M893 430v-274q0 -44 19.5 -63.5t68.5 -24.5l39 -5q16 -2 16 -16v-47l-4 -4q-139 4 -221 4l-211 -4l-4 4v47q0 14 16 16l39 5q56 6 72 24t16 64v1024q0 16 -2 24q-37 12 -57 56q-40 100 -127 100q-24 0 -48.5 -7t-55 -31t-53 -62t-38.5 -106.5t-16 -158.5v-116h225
q17 0 17 -13v-41q0 -12 -15.5 -19t-31.5 -7h-195v-643q0 -46 16.5 -64t71.5 -24l37 -5q16 -2 16 -16v-47l-4 -4q-137 4 -217 4l-213 -4l-4 4v47q0 14 16 16l39 5q50 5 69 24.5t19 63.5v643h-141q-10 0 -10 12v27q0 15 11 28t36 13h104v79q0 115 38.5 208.5t99.5 149t130 85
t136 29.5q100 0 170 -48q15 5 42 19.5t44 21.5h45v-942q66 32 124 82t150 148q41 44 41 80q0 32 -59 32h-8q-7 0 -13 5.5t-6 11.5v39l6 4q98 -4 170 -4l193 4l6 -4v-39q0 -7 -6.5 -12t-13.5 -5h-17q-40 0 -99 -29.5t-95 -68.5l-158 -172q-8 -12 -8 -21q0 -15 10 -28
l242 -346q28 -41 70.5 -68t80.5 -27h6q27 0 27 -16v-47l-4 -4q-53 4 -182 4q-65 0 -127 -4l-6 4v47q0 42 -48 111l-149 202q-20 27 -29.5 38t-29 23.5t-41.5 12.5q-11 0 -27 -4z" />
    <glyph glyph-name="f_t" unicode="ft" horiz-adv-x="1220" 
d="M358 799v-549q0 -45 2 -72.5t10 -49.5t16.5 -32.5t30 -18t42.5 -10t61 -4.5q9 -9 9 -33.5t-9 -33.5q-176 4 -241 4q-44 0 -216 -4q-9 9 -9 33.5t9 33.5q38 3 57 6.5t37.5 13.5t25 30.5t10.5 52t4 84.5v549h-142q-10 0 -10 12v27q0 15 11 28t36 13h105v82q0 141 16.5 226
t60.5 144q34 46 94 72.5t109 26.5q114 0 180 -50q60 -45 60 -98q0 -32 -19.5 -53t-48.5 -21q-56 0 -80 58q-20 48 -45 71t-65 23q-26 0 -53.5 -21.5t-38.5 -56.5q-4 -13 -6.5 -33t-3 -50t-0.5 -56t0.5 -71.5t0.5 -76.5v-116h398q0 188 -4 235q0 6 3.5 10.5t13 9.5l11.5 6
l119 54q27 0 27 -20q-8 -83 -8 -216v-79h245q17 0 17 -13v-41q0 -12 -16 -19t-34 -7h-212v-518q0 -101 14 -145t53 -44q93 0 168 58q31 -3 37 -35q-59 -66 -131.5 -100.5t-145.5 -34.5q-157 0 -157 202v617h-398z" />
    <glyph glyph-name="t_t" unicode="tt" horiz-adv-x="1257" 
d="M184 799h-121q-10 0 -10 12v27q0 15 9 28t28 13h94q0 168 -4 215q0 6 3.5 10.5t13 9t12.5 6.5l119 54q26 0 26 -21q-8 -82 -8 -215v-59h432q0 188 -4 235q0 6 3.5 10.5t13 9t12.5 6.5l119 54q26 0 26 -20q-8 -83 -8 -216v-79h246q16 0 16 -13v-41q0 -12 -15.5 -19
t-33.5 -7h-213v-518q0 -101 14.5 -145t53.5 -44q93 0 168 58q30 -3 36 -35q-59 -66 -131.5 -100.5t-144.5 -34.5q-158 0 -158 202v617h-432v-518q0 -101 14.5 -145t53.5 -44q78 0 145 58q25 -3 33 -31q-41 -62 -108 -100.5t-142 -38.5q-158 0 -158 202v617z" />
    <glyph glyph-name="longs_i" unicode="&#x17f;i" horiz-adv-x="1095" 
d="M926 250q0 -44 1.5 -72t9 -50t15.5 -32.5t27.5 -18t38.5 -10t55 -4.5q9 -9 9 -33.5t-9 -33.5q-176 4 -227 4q-58 0 -230 -4q-9 9 -9 33.5t9 33.5q37 3 55 5.5t38.5 10t28 18t15.5 32t9.5 49.5t1.5 72v399q0 46 -4.5 70t-21 39.5t-39 20.5t-68.5 9q-3 10 -5 29t1 29
q194 25 280 59q27 0 27 -14q-8 -131 -8 -233v-408zM190 977q6 101 31.5 181t62.5 130t85 83t96.5 46t99.5 13q55 0 93.5 -13.5t80.5 -42.5q61 -41 102.5 -97t41.5 -110q0 -30 -25 -53.5t-55 -23.5q-49 0 -77 37.5t-46 121.5q-23 113 -139 113q-24 0 -47.5 -7.5t-52 -31.5
t-49.5 -62.5t-35.5 -107t-14.5 -158.5v-839q0 -45 18.5 -64.5t69.5 -23.5l51 -5q17 -2 17 -16v-47l-4 -4q-152 4 -232 4l-213 -4l-4 4v47q0 14 16 16l39 5q57 6 72.5 23.5t15.5 64.5v620q0 14 -1.5 20t-8 9.5t-20.5 3.5h-90q-11 0 -11 10v19q0 15 11 28t36 13q82 0 86 98z
" />
    <glyph glyph-name="longs_longs" unicode="&#x17f;&#x17f;" horiz-adv-x="1144" 
d="M788 1276q16 48 81.5 101t156.5 53q59 0 97.5 -15.5t72.5 -46.5q53 -46 53 -94q0 -31 -17.5 -54.5t-53.5 -23.5q-80 0 -95 84q-7 38 -21.5 59t-47.5 21q-80 0 -114 -97.5t-34 -291.5v-815q0 -45 20 -65t68 -23l68 -5q16 0 16 -16v-47l-4 -4q-168 4 -248 4l-211 -4l-4 4
v47q0 14 17 16l39 5q51 5 69.5 24t18.5 64v620q0 20 -5.5 26.5t-27.5 6.5h-88q-12 0 -12 10v19q0 15 11.5 28t35.5 13q86 0 86 98q0 99 20 178q-8 -4 -12 -4q-71 0 -90 82q-10 40 -38 72t-79 32q-24 0 -45.5 -10t-46 -40.5t-42 -79t-29 -133t-11.5 -195.5v-723
q0 -43 19.5 -62t68.5 -26l29 -5q16 -2 16 -16v-47l-4 -4q-129 4 -209 4l-213 -4l-4 4v47q0 14 16 16l39 5q47 5 67.5 25t20.5 63v620q0 14 -1.5 20t-8 9.5t-20.5 3.5h-90q-11 0 -11 10v19q0 15 11 28t36 13q82 0 89 98q11 145 53 234t131 145q62 39 141 39q169 0 270 -119z
" />
    <glyph glyph-name="longs_l" unicode="&#x17f;l" horiz-adv-x="1058" 
d="M342 995v-848q0 -45 18 -63.5t70 -24.5l37 -4q16 -2 16 -16v-39l-4 -4q-137 8 -217 8l-213 -8l-4 4v39q0 14 16 16l39 4q52 6 70 24.5t18 63.5v629q0 14 -1.5 20t-8 9.5t-20.5 3.5h-90q-11 0 -11 10v19q0 15 11 28t36 13q84 0 84 100q3 110 39.5 199t92.5 142.5t121 81.5
t130 28q100 0 170 -48q66 15 113 48q25 0 25 -21q-7 -72 -7 -205v-1057q0 -44 20 -63.5t69 -24.5l47 -4q16 -2 16 -16v-39l-2 -4q-149 4 -229 4l-193 -4l-2 4v39q0 15 14 16l19 2q50 6 69 25.5t19 64.5v1033v24q-37 11 -60 56q-40 100 -127 100q-23 0 -45.5 -7.5t-49.5 -31
t-47.5 -61.5t-34 -106.5t-13.5 -158.5z" />
    <glyph glyph-name="longs_longs_i" unicode="&#x17f;&#x17f;i" horiz-adv-x="1619" 
d="M1450 250q0 -44 1.5 -72t9 -50t15.5 -32.5t27.5 -18t38.5 -10t55 -4.5q9 -9 9 -33.5t-9 -33.5q-176 4 -227 4q-57 0 -229 -4q-9 9 -9 33.5t9 33.5q37 3 55 5.5t38 10t28 18t15.5 32t9 49.5t1.5 72v399q0 46 -4.5 70t-21 39.5t-39 20.5t-68.5 9q-3 10 -5 29t1 29
q195 25 281 59q26 0 26 -14q-8 -131 -8 -233v-408zM1090 1430q55 0 93.5 -13.5t80.5 -42.5q62 -41 103.5 -97t41.5 -110q0 -30 -26 -53.5t-56 -23.5q-49 0 -76.5 37t-46.5 122q-21 113 -139 113q-24 0 -47.5 -7.5t-52 -31.5t-49.5 -62.5t-35.5 -107t-14.5 -158.5v-848
q0 -45 20 -65t68 -23l68 -4q16 0 16 -16v-39l-4 -4q-168 4 -248 4l-211 -4l-4 4v39q0 14 17 16l39 4q51 5 69.5 24t18.5 64v629q0 20 -5.5 26.5t-27.5 6.5h-88q-12 0 -12 10v19q0 15 11.5 28t35.5 13q86 0 86 98q0 99 20 178q-8 -4 -12 -4q-71 0 -90 82q-10 40 -38 72
t-79 32q-24 0 -45.5 -10t-46 -40.5t-42 -79t-29 -133t-11.5 -195.5v-732q0 -44 18.5 -62t69.5 -26l29 -4q16 -2 16 -16v-39l-4 -4q-129 4 -209 4l-213 -4l-4 4v39q0 14 16 16l39 4q54 6 71 24t17 64v629q0 14 -1.5 20t-8 9.5t-20.5 3.5h-90q-11 0 -11 10v19q0 15 11 28
t36 13q82 0 89 98q11 145 53 234t131 145q62 39 141 39q169 0 270 -119q59 82 129 118t173 36z" />
    <glyph glyph-name="longs_s" unicode="&#x17f;s" horiz-adv-x="1206" 
d="M575 287l56 2q6 -47 25.5 -105.5t48.5 -91.5q51 -59 131 -59q56 0 107.5 45.5t51.5 111.5q0 70 -42 118t-160 98q-63 28 -98.5 48t-65.5 50t-42 69.5t-12 96.5q0 98 77.5 166.5t197.5 68.5q134 0 231 -51q17 -92 23 -209l-55 -2q-15 59 -42.5 101.5t-58 62.5t-54.5 28.5
t-44 8.5q-63 0 -105.5 -36.5t-42.5 -107.5q0 -62 29 -96.5t111 -64.5q68 -25 116.5 -50.5t90.5 -61t63 -82.5t21 -107q0 -56 -21.5 -102t-54.5 -75t-73 -49t-76 -28.5t-66 -8.5q-80 0 -164 23q-28 4 -39 4q-19 0 -49 -6q0 103 -15 291zM190 977q7 126 40.5 217.5t84.5 141
t108 72t122 22.5q128 0 214.5 -67t86.5 -144q0 -32 -17.5 -51t-46.5 -19q-44 0 -72.5 39t-50.5 102q-26 72 -139 72q-23 0 -45 -7.5t-47 -31.5t-43 -62.5t-30.5 -107t-12.5 -158.5v-848q0 -47 16.5 -65.5t71.5 -22.5l51 -4q17 -2 17 -16v-39l-4 -4q-152 4 -232 4l-213 -4
l-4 4v39q0 14 16 16l39 4q50 5 69 24.5t19 63.5v629q0 14 -1.5 20t-8 9.5t-20.5 3.5h-90q-11 0 -11 10v19q0 15 11 28t36 13q82 0 86 98z" />
    <glyph glyph-name="longs_h" unicode="&#x17f;h" horiz-adv-x="1597" 
d="M741 1382q65 14 113 48q25 0 25 -21q-7 -72 -7 -205v-469q170 170 336 170q222 0 222 -323v-435q0 -44 19 -63.5t69 -24.5l38 -4q19 -2 19 -16v-39l-4 -4q-141 4 -221 4l-211 -4l-4 4v39q0 14 16 16l39 4q52 5 70 24t18 64v457q0 121 -35.5 163t-124.5 42
q-93 0 -246 -150v-512q0 -44 20.5 -63.5t68.5 -24.5l47 -4q16 -2 16 -16v-39l-2 -4q-149 4 -229 4l-193 -4l-2 4v39q0 13 14 16l19 4q52 12 70 28.5t18 59.5v1033v24q-37 11 -60 56q-40 100 -127 100q-23 0 -45.5 -7.5t-49.5 -31t-47.5 -61.5t-34 -106.5t-13.5 -158.5v-848
q0 -46 16.5 -64t71.5 -24l37 -4q16 -2 16 -16v-39l-4 -4q-137 4 -217 4l-213 -4l-4 4v39q0 14 16 16l39 4q52 5 70 24t18 64v629q0 14 -1.5 20t-8 9.5t-20.5 3.5h-90q-11 0 -11 10v19q0 15 11 28t36 13q84 0 84 100q3 110 39.5 199t92.5 142.5t121 81.5t130 28
q105 0 170 -48z" />
    <glyph glyph-name="Q_u" unicode="Qu" horiz-adv-x="2562" 
d="M1931 -20q-59 0 -105 15.5t-75.5 41.5t-48.5 62.5t-27 75.5t-8 83v393q0 97 -25.5 127.5t-101.5 36.5q-9 9 -9 34t9 34q152 -4 209 -4q52 0 72 4q16 0 16 -13q-8 -150 -8 -211v-372q0 -64 16.5 -109t43.5 -65.5t52 -28.5t52 -8q79 0 192 98q21 18 27 33.5t6 46.5v395
q0 99 -25 130t-102 36q-9 9 -9 34t9 34q152 -4 209 -4q52 0 72 4q16 0 16 -13q-8 -150 -8 -211v-393q0 -80 27.5 -111t121.5 -38q9 -9 9 -28t-9 -28q-173 -19 -248 -81q-21 -6 -38 0q-23 72 -23 120q0 7 -4 9t-10 0t-11 -6q-151 -123 -264 -123zM678 1278
q-73 0 -142.5 -35.5t-129.5 -106t-97 -191.5t-37 -275q0 -143 41 -262t109.5 -196.5t155.5 -120t180 -42.5q179 0 294 158.5t115 427.5q0 156 -37 279.5t-103 202.5t-154.5 120t-194.5 41zM1171 -250q144 -56 238 -78t207 -22q79 0 191 33t210 88l35 -37
q-97 -91 -243.5 -144t-305.5 -53q-243 0 -473 94q-194 79 -297.5 108.5t-204.5 29.5q-34 0 -85 -30.5t-78 -92.5l-82 41q91 127 237 233q48 35 105 65q-116 15 -216 67t-174 134.5t-116.5 198t-42.5 250.5q0 199 80 361.5t224.5 257t324.5 94.5q134 0 254 -49t210 -135.5
t142.5 -213.5t52.5 -276q0 -278 -146 -464.5t-392 -222.5q-119 -32 -246 -122l-20 -15q33 5 63 5q278 0 548 -105z" />
    <glyph glyph-name="T_h" unicode="Th" horiz-adv-x="2091" 
d="M1356 1204l-2 -471q0 -25 17 -4q2 3 3 4q87 97 163 131.5t161 34.5q117 0 170 -70q33 -43 44 -109t11 -165v-305q0 -37 2 -62.5t5 -46t11 -32.5t16.5 -20.5t25.5 -13.5t33 -7.5t44 -4.5q8 -9 8 -33.5t-8 -33.5q-176 4 -217 4q-37 0 -209 -4q-8 9 -8 33.5t8 33.5
q45 4 65.5 9.5t37 25t20.5 53.5t4 99v311q0 109 -24 158q-18 35 -47.5 54.5t-61.5 19.5q-113 0 -237 -121q-35 -39 -35 -86v-336q0 -45 1.5 -72.5t7.5 -49.5t12.5 -32.5t23 -18t32 -10t45.5 -4.5q9 -9 9 -33.5t-9 -33.5q-172 4 -202 4q-57 0 -225 -4q-9 9 -9 33.5t9 33.5
q34 2 52 4.5t37.5 10t27.5 18.5t15 32t9 49.5t2 72.5v895q0 23 -2.5 35t-15 28.5t-43.5 23.5t-82 7h-260q-53 0 -74 -25.5t-21 -80.5v-883q0 -44 3 -72.5t13 -50t21.5 -32.5t37.5 -18.5t51.5 -9.5t72.5 -4q9 -9 9 -33.5t-9 -33.5q-204 4 -285 4q-86 0 -286 -4q-9 9 -9 33.5
t9 33.5q47 2 72.5 4t51.5 9.5t37.5 18.5t21.5 32.5t12.5 50t2.5 72.5v889q0 50 -20.5 75t-73.5 25h-172q-60 0 -89.5 -13.5t-49.5 -51.5t-41 -123l-62 10q30 133 45 315l56 -8q0 -47 43 -47h815q67 0 104.5 2.5t82.5 18.5t72.5 30.5l104.5 57.5q25 0 25 -21q-6 -72 -6 -205z
" />
    <glyph glyph-name="Q_u.sc" unicode="Q&#xe065;" horiz-adv-x="2639" 
d="M678 1278q-73 0 -142.5 -35.5t-129.5 -106t-97 -191.5t-37 -275q0 -143 41 -262t109.5 -196.5t155.5 -120t180 -42.5q179 0 294 158.5t115 427.5q0 156 -37 279.5t-103 202.5t-154.5 120t-194.5 41zM2343 692q0 66 -4.5 100t-23.5 54t-43 25t-77 8q-9 9 -9 33.5t9 33.5
q122 -4 195 -4q75 0 197 4q9 -9 9 -33.5t-9 -33.5q-37 -3 -55 -5.5t-38.5 -10t-28 -18t-15.5 -32t-9.5 -49.5t-1.5 -72v-233q0 -118 -18.5 -202t-63 -148.5t-123.5 -96.5t-196 -32q-56 0 -106 11t-100 38.5t-86 70.5t-58.5 112.5t-22.5 158.5v321q0 44 -1.5 72t-9 50
t-15.5 32.5t-27.5 18t-38.5 10t-55 4.5q-9 9 -9 33.5t9 33.5q176 -4 227 -4q57 0 229 4q9 -9 9 -33.5t-9 -33.5q-37 -3 -55 -5.5t-38 -10t-28 -18t-15.5 -32t-9 -49.5t-1.5 -72v-278q0 -64 4.5 -112t19.5 -98.5t41 -82.5t71.5 -53t109.5 -21q44 0 80.5 8t62.5 19.5t47 33.5
t34 41t22 51t14 53.5t7 59.5t2.5 58.5t0.5 60.5v260zM1171 -250q144 -56 238 -78t207 -22q79 0 191 33t210 88l35 -37q-97 -91 -243.5 -144t-305.5 -53q-243 0 -473 94q-194 79 -297.5 108.5t-204.5 29.5q-34 0 -85 -30.5t-78 -92.5l-82 41q91 127 237 233q48 35 105 65
q-116 15 -216 67t-174 134.5t-116.5 198t-42.5 250.5q0 199 80 361.5t224.5 257t324.5 94.5q134 0 254 -49t210 -135.5t142.5 -213.5t52.5 -276q0 -278 -146 -464.5t-392 -222.5q-119 -32 -246 -122l-20 -15q33 5 63 5q278 0 548 -105z" />
    <glyph glyph-name="f_f.short" unicode="f&#xe0e0;" horiz-adv-x="1163" 
d="M800 1290q13 23 27 41q35 47 85.5 73t97.5 26q114 0 180 -50q59 -45 59 -98q0 -32 -19 -53t-48 -21q-56 0 -80 58q-20 48 -45 71t-66 23q-25 0 -47.5 -21t-34.5 -57q-22 -67 -22 -287v-116h225q16 0 16 -13v-41q0 -12 -15.5 -19t-33.5 -7h-192v-652q0 -45 18.5 -65
t69.5 -23l65 -4q6 0 11.5 -4.5t5.5 -11.5v-39l-4 -4q-166 4 -246 4l-213 -4l-4 4v39q0 14 16 16l39 4q52 5 70 24t18 64v652h-391v-652q0 -45 17.5 -63.5t70.5 -24.5l39 -4q16 -2 16 -16v-39l-4 -4q-139 4 -219 4l-213 -4l-4 4v39q0 14 16 16l39 4q52 5 70 24t18 64v652
h-141q-10 0 -10 12v27q0 15 11 28t36 13h104q0 190 45.5 303t149.5 174q67 39 145 39q106 0 176.5 -32.5t95.5 -72.5zM754 1155q-8 -4 -13 -4q-25 0 -43.5 13.5t-26.5 27.5t-20 41q-26 62 -55 80q-40 24 -72 24q-15 0 -32.5 -7.5t-41.5 -25.5t-47 -59t-38 -98
q-23 -75 -23 -250v-18h391v82q7 135 21 194z" />
    <glyph glyph-name="f_f" unicode="ff" horiz-adv-x="1191" 
d="M774 1155q-8 -4 -12 -4q-25 0 -43.5 13.5t-26.5 27.5t-20 41q-25 61 -56 80q-40 24 -75 24q-15 0 -34 -7.5t-44 -25.5t-49 -59t-39 -98q-29 -94 -29 -250v-18h408v82q7 140 20 194zM915 250q0 -45 2 -72.5t10 -49.5t16.5 -32.5t30 -18t42.5 -10t61 -4.5q9 -9 9 -33.5
t-9 -33.5q-176 4 -241 4q-23 0 -195 -4q-9 9 -9 33.5t9 33.5q31 3 46.5 6.5t31.5 13.5t22 30.5t9.5 52.5t3.5 84v549h-408v-549q0 -52 4 -84.5t11 -52.5t23.5 -30t33 -13.5t49.5 -6.5q9 -9 9 -33.5t-9 -33.5q-176 4 -201 4q-43 0 -215 -4q-9 9 -9 33.5t9 33.5q47 3 68.5 8
t39 25t21.5 54t4 100v549h-137q-10 0 -10 12v27q0 15 11 28t36 13h100q0 186 51 300.5t158 176.5q67 39 152 39q111 0 184 -37t98 -82q49 76 123.5 115t139.5 39q111 0 178 -43.5t67 -108.5q0 -31 -20 -51.5t-51 -20.5q-37 0 -57.5 21t-39.5 61q-14 31 -44 50.5t-66 19.5
q-43 0 -75 -33.5t-52 -134.5q-15 -88 -15 -203v-108h222q16 0 16 -13v-41q0 -12 -15.5 -19t-33.5 -7h-189v-549z" />
    <glyph glyph-name="f_i" unicode="fi" horiz-adv-x="1146" 
d="M963 250q0 -44 1.5 -72t9 -50t15.5 -32.5t27.5 -18t38.5 -10t55 -4.5q9 -9 9 -33.5t-9 -33.5q-176 4 -227 4q-47 0 -219 -4q-9 9 -9 33.5t9 33.5q48 3 70 8t40 25t22.5 54t4.5 100v403q0 80 -17 113t-63 33h-367v-549q0 -45 1.5 -72.5t9 -49.5t16 -32.5t28.5 -18
t39.5 -10t57.5 -4.5q9 -9 9 -33.5t-9 -33.5q-176 4 -232 4q-43 0 -215 -4q-9 9 -9 33.5t9 33.5q38 3 57 6.5t37.5 13.5t25 30.5t10.5 52t4 84.5v549h-138q-10 0 -10 12v27q0 15 11 28t36 13h101v30q0 131 22.5 222.5t83.5 162.5q59 69 136 102.5t153 33.5q59 0 131.5 -19
t116.5 -47q114 -70 114 -160q0 -32 -26 -58t-60 -26q-51 0 -83.5 30.5t-43.5 102.5q-9 54 -60 80.5t-114 26.5q-38 0 -83.5 -28t-80.5 -91q-45 -81 -45 -246v-116h404q129 0 192 26q21 0 21 -12q-8 -131 -8 -211v-432z" />
    <glyph glyph-name="f_l" unicode="fl" horiz-adv-x="1105" 
d="M926 250q0 -52 4.5 -84t12 -52.5t27 -30.5t39.5 -13.5t60 -6.5q9 -9 9 -33.5t-9 -33.5q-176 4 -223 4q-31 0 -203 -4q-9 9 -9 33.5t9 33.5q35 2 52.5 6t33.5 13.5t22 30.5t9.5 52.5t3.5 84.5v903l2 23q2 23 0 28q-37 12 -57 56q-19 48 -65.5 74t-96.5 26q-23 0 -47 -9.5
t-51.5 -36t-49 -67.5t-35.5 -111.5t-14 -160.5v-96h225q17 0 17 -13v-41q0 -12 -15.5 -19t-31.5 -7h-191v-549q0 -65 5 -99.5t24 -54t41 -24.5t72 -9q9 -9 9 -33.5t-9 -33.5q-176 4 -222 4q-43 0 -215 -4q-9 9 -9 33.5t9 33.5q38 3 57 6.5t37.5 13.5t25 30.5t10.5 52t4 84.5
v549h-138q-10 0 -10 12v27q0 15 11 28t36 13h105v61q0 98 23.5 181t62 139t88.5 95t103 57t106 18q58 0 118.5 -13t92.5 -35q22 4 43 13.5t40.5 20.5t26.5 14q27 0 27 -21q-2 -82 -2 -215v-944z" />
    <glyph glyph-name="f_f_i" unicode="ffi" horiz-adv-x="1697" 
d="M1352 250v444q0 32 -0.5 43.5t-2.5 28t-8 21t-15.5 8.5t-25.5 4h-382v-549q0 -67 3.5 -100.5t20.5 -53.5t38 -25t69 -8q9 -9 9 -33.5t-9 -33.5q-176 4 -211 4q-23 0 -195 -4q-9 9 -9 33.5t9 33.5q31 3 46.5 6.5t31.5 13.5t22 30.5t9.5 52.5t3.5 84v549h-410v-549
q0 -52 4 -84.5t11 -52.5t23.5 -30t33 -13.5t49.5 -6.5q9 -9 9 -33.5t-9 -33.5q-176 4 -201 4q-43 0 -215 -4q-9 9 -9 33.5t9 33.5q47 3 68.5 8t39 25t21.5 54t4 100v549h-137q-10 0 -10 12v27q0 15 11 28t36 13h104q0 190 45.5 303t149.5 174q62 39 170 39
q112 0 182.5 -36.5t95.5 -82.5q47 61 131.5 107.5t178.5 46.5q118 0 200 -56q62 -42 105 -97.5t43 -109.5q0 -32 -26.5 -56t-59.5 -24q-49 0 -78 39t-43 123q-10 60 -58 86.5t-108 26.5q-24 0 -47 -7.5t-51.5 -31.5t-49.5 -62.5t-35.5 -107t-14.5 -158.5v-116h397
q131 0 194 26q9 0 9 -6q-5 -121 -5 -182v-467q0 -44 2 -72.5t10 -49.5t16.5 -32.5t27.5 -18.5t37 -9.5t51 -4.5q9 -9 9 -33.5t-9 -33.5q-176 4 -223 4q-31 0 -203 -4q-9 9 -9 33.5t9 33.5q35 2 52.5 6t33.5 13.5t22 30.5t9.5 52.5t3.5 84.5zM778 1157q-4 -4 -14 -4
q-36 0 -54.5 20.5t-33.5 59.5q-18 52 -52 78t-75 26q-12 0 -27 -3.5t-38.5 -15.5t-44.5 -31.5t-41.5 -55.5t-32.5 -82q-23 -75 -23 -246v-24h414v82q6 131 22 196z" />
    <glyph glyph-name="f_f_l" unicode="ffl" horiz-adv-x="1669" 
d="M1489 250q0 -52 4.5 -84t12 -52.5t27 -30.5t39.5 -13.5t60 -6.5q9 -9 9 -33.5t-9 -33.5q-176 4 -223 4q-31 0 -203 -4q-9 9 -9 33.5t9 33.5q35 2 52.5 6t33.5 13.5t22 30.5t9.5 52.5t3.5 84.5v903l1 23q2 23 1 28q-37 12 -57 56q-19 48 -69 74t-101 26
q-47 0 -100.5 -45.5t-67.5 -124.5q-16 -93 -16 -203v-108h221q16 0 16 -13v-41q0 -12 -15.5 -19t-33.5 -7h-188v-549q0 -67 3.5 -100.5t20.5 -53.5t38 -25t69 -8q9 -9 9 -33.5t-9 -33.5q-176 4 -211 4q-23 0 -195 -4q-9 9 -9 33.5t9 33.5q31 3 46.5 6.5t31.5 13.5t22 30.5
t9.5 52.5t3.5 84v549h-410v-549q0 -52 4 -84.5t11 -52.5t23.5 -30t33 -13.5t49.5 -6.5q9 -9 9 -33.5t-9 -33.5q-176 4 -201 4q-43 0 -215 -4q-9 9 -9 33.5t9 33.5q47 3 68.5 8t39 25t21.5 54t4 100v549h-137q-10 0 -10 12v27q0 15 11 28t36 13h100q0 124 12 194.5t42 126.5
q42 79 121.5 137t175.5 58q109 0 186.5 -35.5t103.5 -73.5q28 50 114.5 97t168.5 47q62 0 138.5 -13.5t107.5 -34.5q22 4 43 13.5t40.5 20.5t26.5 14q27 0 27 -21q-2 -82 -2 -215v-944zM778 1151h-4q-60 0 -84 59q-20 45 -63.5 79t-100.5 34q-50 0 -93.5 -44t-67.5 -132
q-19 -62 -19 -250v-18h410v82q6 114 22 190z" />
    <glyph glyph-name="longs_t" unicode="&#x17f;t" horiz-adv-x="1148" 
d="M346 250q0 -66 4.5 -100.5t23.5 -54.5t43 -24.5t77 -7.5q9 -9 9 -33.5t-9 -33.5q-176 4 -228 4q-57 0 -229 -4q-9 9 -9 33.5t9 33.5q53 3 77 7.5t42.5 24.5t23 54.5t4.5 100.5v526v7.5v7t-0.5 5t-1 4.5t-1.5 3.5t-3 3t-5 1.5t-6.5 1h-8.5h-90q-11 0 -11 10v19q0 15 11 28
t36 13q44 0 62 26t20 72q6 101 32 181t63.5 130t86.5 83t95.5 46t95.5 13q158 0 232.5 -76.5t74.5 -227.5v-247h226q16 0 16 -13v-41q0 -12 -15.5 -19t-33.5 -7h-193v-518q0 -101 14.5 -145t53.5 -44q70 0 145 58q31 -3 37 -35q-117 -135 -254 -135q-149 0 -149 202v617
h-123q-10 0 -10 8v63q0 9 8 9h94q29 0 42 17t18.5 65t5.5 155q0 124 -48.5 185t-152.5 61q-23 0 -47.5 -10t-52.5 -36t-50 -65.5t-36.5 -106t-14.5 -149.5v-745z" />
    <glyph glyph-name=".notdef" horiz-adv-x="1024" 
d="M0 0v1430h1024v-1430h-1024zM512 807l348 518h-696zM573 715l349 -520v1040zM164 102h696l-348 521zM102 1235v-1040l349 520z" />
    <glyph glyph-name=".null" 
 />
    <glyph glyph-name="nonmarkingreturn" horiz-adv-x="682" 
 />
    <glyph glyph-name="space" unicode=" " horiz-adv-x="512" 
 />
    <glyph glyph-name="exclam" unicode="!" horiz-adv-x="589" 
d="M186 88q0 44 32.5 76.5t76.5 32.5t76 -32.5t32 -76.5t-32 -76t-76 -32t-76.5 32t-32.5 76zM295 1348q43 0 75.5 -37t32.5 -113q0 -59 -7 -115.5t-20.5 -135.5t-21.5 -144q-11 -97 -18 -183.5t-9 -134t-3 -55.5q-4 -41 -29 -41t-29 27l-6 78.5t-12.5 152t-14.5 156.5
q-7 66 -27 190t-20 205q0 76 33 113t76 37z" />
    <glyph glyph-name="quotedbl" unicode="&#x22;" horiz-adv-x="688" 
d="M182 872q-53 327 -53 345q0 36 30.5 69t73.5 33q37 0 54.5 -20t17.5 -48q0 -15 -16.5 -107.5t-33.5 -177.5l-17 -85zM440 874q-53 327 -53 345q0 36 31 69t74 33q37 0 54 -20t17 -48q0 -15 -16.5 -107.5t-33.5 -177.5l-17 -85z" />
    <glyph glyph-name="numbersign" unicode="#" horiz-adv-x="901" 
d="M649 698l-37 -223h185l-15 -102h-182l-57 -346h-74l53 346h-217l-57 -346h-72l55 346h-180l15 102h182l35 223h-181l17 103h180l55 346h74l-57 -346h221l53 346h74l-55 -346h186l-16 -103h-185zM541 475l34 223h-219l-37 -223h222z" />
    <glyph glyph-name="dollar" unicode="$" horiz-adv-x="901" 
d="M406 699v409q-77 -9 -129 -65.5t-52 -145.5q0 -113 181 -198zM475 514v-465q33 3 64.5 15t63 35t50.5 64.5t19 96.5q0 58 -18 103t-50.5 74t-61.5 45.5t-67 31.5zM188 25q-15 0 -30.5 -11.5t-38.5 -11.5q0 60 -33 297l59 6q25 -98 94 -169.5t167 -85.5v491
q-35 15 -56.5 25t-58 30t-60 37.5t-52.5 44.5t-45.5 55.5t-28 66t-11.5 79.5q0 84 47.5 149.5t116.5 99t148 41.5v115h69v-113q50 -1 125 -8.5t113 -7.5q4 -62 41 -293l-60 -8l-10 37q-31 102 -80 154.5t-129 62.5v-438q344 -130 344 -351q0 -28 -4.5 -59.5t-25.5 -81.5
t-55 -88.5t-101.5 -70.5t-157.5 -38v-147h-69v146q-68 3 -136.5 24t-81.5 21z" />
    <glyph glyph-name="percent" unicode="%" horiz-adv-x="1304" 
d="M227 815q0 -71 27.5 -101t62.5 -30q53 0 96.5 50t65 117.5t21.5 129.5q0 69 -26.5 97t-61.5 28q-47 0 -91 -48t-69 -115.5t-25 -127.5zM745 1067q83 0 174.5 26.5t133.5 84.5l65 -33l-839 -1170l-70 31l735 1024q-98 -39 -219 -39q-36 0 -85.5 13t-78.5 30q6 -21 6 -51
q0 -51 -17.5 -112t-48.5 -118t-83 -94.5t-113 -37.5q-89 0 -138.5 68t-49.5 155q0 134 80.5 229.5t191.5 95.5q41 0 81 -15.5t56 -35.5q111 -51 219 -51zM774 201q0 128 81.5 225.5t193.5 97.5q34 0 62.5 -8.5t55.5 -28t42.5 -57.5t15.5 -92t-17.5 -115t-48.5 -117.5
t-82.5 -93.5t-111.5 -37q-88 0 -139.5 68.5t-51.5 157.5zM887 170q0 -72 27 -101.5t63 -29.5q53 0 96 51t63.5 118t20.5 128q0 70 -27.5 97.5t-58.5 27.5q-47 0 -91 -48t-68.5 -115.5t-24.5 -127.5z" />
    <glyph glyph-name="ampersand" unicode="&#x26;" horiz-adv-x="1443" 
d="M592 838q96 63 151.5 136t55.5 130q0 70 -34.5 111.5t-96.5 41.5q-50 0 -102 -51.5t-52 -142.5q0 -78 78 -225zM862 193q-76 -104 -166.5 -158.5t-214.5 -54.5q-85 0 -154 18.5t-124 57t-85 105.5t-30 158q0 123 89.5 230.5t289.5 220.5q-57 98 -81 164t-24 125
q0 46 21 92.5t59.5 85.5t100 63.5t135.5 24.5q109 0 185.5 -63t76.5 -158q0 -81 -85.5 -174t-219.5 -170l8 -17q63 -108 250 -360q82 121 158 262q20 36 30.5 61t11.5 42.5t-3 27.5t-20 16.5t-33.5 8.5t-49.5 4q-9 9 -9 33.5t9 33.5q82 -4 195 -4q90 0 172 4q9 -9 9 -33.5
t-9 -33.5q-52 -3 -76.5 -8t-52 -26.5t-47 -52.5t-58.5 -100q-98 -175 -182 -296l74 -103q45 -62 87.5 -95.5t69.5 -33.5q52 0 89 26t67 85q22 0 43 -21q-33 -100 -92 -150t-119 -50q-31 0 -51.5 3t-52 15t-64.5 42t-67 77zM512 692q-149 -83 -202.5 -169t-53.5 -204
q0 -141 67 -206.5t173 -65.5q102 0 169 48.5t150 162.5q-83 109 -183.5 254t-119.5 180z" />
    <glyph glyph-name="quotesingle" unicode="'" horiz-adv-x="389" 
d="M162 872q-53 327 -53 345q0 36 30.5 69t73.5 33q37 0 54.5 -20t17.5 -48q0 -15 -17 -107.5l-34 -177.5l-17 -85z" />
    <glyph glyph-name="parenleft" unicode="(" horiz-adv-x="610" 
d="M90 516q0 274 120.5 520.5t313.5 411.5q32 -3 43 -37q-21 -23 -38.5 -45t-51 -70.5t-60 -98.5t-57 -126t-51.5 -155.5t-35 -184t-14 -215.5q0 -152 26.5 -293.5t60.5 -233t84 -178.5t77 -122t59 -72q-11 -29 -43 -35q-87 76 -157.5 164t-115 166t-77 164t-48 149
t-24.5 130.5t-10.5 98.5t-1.5 62z" />
    <glyph glyph-name="parenright" unicode=")" horiz-adv-x="610" 
d="M520 516q0 -274 -120.5 -520.5t-313.5 -411.5q-32 3 -43 37q21 23 38.5 45t51 70.5t60 98.5t57 126t51.5 155.5t35 184t14 215.5q0 152 -26.5 293.5t-60.5 233t-84 178.5t-77 122t-59 72q11 29 43 35q87 -76 157.5 -164t115 -166t77 -164t48 -149t24.5 -130.5t10.5 -98.5
t1.5 -62z" />
    <glyph glyph-name="asterisk" unicode="*" horiz-adv-x="755" 
d="M344 1120q-36 8 -86 8q-82 0 -124 16.5t-42 59.5q0 25 17 43.5t51 18.5q30 0 58.5 -17.5t65 -45t72.5 -42.5q-4 41 -25.5 102t-21.5 87q0 33 17.5 56.5t44.5 23.5q29 0 48 -18.5t19 -53.5q0 -29 -18.5 -99.5t-20.5 -99.5q37 16 74 44.5t64.5 45.5t56.5 17q36 0 53 -20.5
t17 -41.5q0 -76 -142 -76q-63 0 -112 -8q25 -28 72 -58.5t72.5 -57t25.5 -62.5q0 -26 -18.5 -42.5t-41.5 -16.5q-36 0 -59 33t-46 93.5t-40 86.5q-15 -27 -39.5 -90.5t-47 -93t-57.5 -29.5q-26 0 -42.5 16.5t-16.5 40.5q0 39 26.5 65.5t73.5 56.5t72 58z" />
    <glyph glyph-name="plus" unicode="+" horiz-adv-x="1079" 
d="M592 526h352v-100h-352v-356h-105v356h-352v100h352v357h105v-357z" />
    <glyph glyph-name="comma" unicode="," horiz-adv-x="450" 
d="M213 195q61 0 98 -55.5t37 -147.5q0 -102 -71.5 -174t-170.5 -90q-18 18 -18 49q73 19 126.5 73t53.5 91q0 56 -73 63q-91 15 -91 90q0 43 31 72t78 29z" />
    <glyph glyph-name="hyphen" unicode="-" horiz-adv-x="692" 
d="M555 457h-442q-13 0 -22 12t-9 27q0 28 16.5 56t34.5 28h449q28 0 28 -41q0 -21 -18 -51.5t-37 -30.5z" />
    <glyph glyph-name="period" unicode="." horiz-adv-x="450" 
d="M117 88q0 44 32 76.5t76 32.5t76.5 -32.5t32.5 -76.5t-32.5 -76t-76.5 -32t-76 32t-32 76z" />
    <glyph glyph-name="slash" unicode="/" horiz-adv-x="661" 
d="M600 1323l-485 -1444h-84l485 1444h84z" />
    <glyph glyph-name="zero" unicode="0" horiz-adv-x="901" 
d="M442 -23q-106 0 -191 83t-130 217.5t-45 291.5q0 139 31.5 257t84 195t119.5 120t140 43q65 0 127.5 -37t107.5 -98q131 -172 131 -461q0 -131 -25 -238t-64 -174.5t-89.5 -114t-99.5 -65.5t-97 -19zM451 1112q-29 0 -55.5 -12t-55 -49t-49 -97t-34 -164t-13.5 -241
q0 -50 2.5 -96.5t9 -108t21 -111.5t35.5 -94t55 -69t77 -25q13 0 27.5 3t35.5 14.5t40 30t38 53t31 79.5q33 120 33 400q0 183 -31.5 298.5t-80.5 157.5q-36 31 -86 31z" />
    <glyph glyph-name="one" unicode="1" horiz-adv-x="901" 
d="M590 250q0 -44 3 -72.5t12 -50t20 -32.5t34 -18.5t45.5 -9.5t63.5 -4q9 -9 9 -33.5t-9 -33.5q-204 4 -250 4q-64 0 -264 -4q-9 9 -9 33.5t9 33.5q41 2 63.5 4t45.5 9.5t34 18.5t20 32.5t12 50t3 72.5v606q0 59 -8.5 89t-32.5 30q-56 0 -178 -51q-26 17 -31 55
q288 134 402 205q12 0 12 -10q-6 -54 -6 -275v-649z" />
    <glyph glyph-name="two" unicode="2" horiz-adv-x="901" 
d="M119 907q0 45 22 93t62 89.5t104.5 68t141.5 26.5q62 0 121 -17.5t110.5 -51.5t83 -92.5t31.5 -133.5q0 -53 -13.5 -98t-44.5 -89t-58 -73.5t-79 -79.5l-194 -189q-144 -144 -144 -233h344q52 0 82 40.5t55 143.5q37 8 56 -8q-2 -47 -15.5 -141t-31.5 -166q-91 4 -152 4
h-338l-162 -4q0 94 43.5 178.5t178.5 222.5l143 142q86 87 123 167.5t37 174.5q0 66 -19 114.5t-49.5 73.5t-61 36t-59.5 11q-95 0 -133.5 -36t-38.5 -83q0 -9 7 -27t8 -20q8 -28 8 -39q0 -26 -32 -51.5t-58 -25.5q-31 0 -54.5 21.5t-23.5 51.5z" />
    <glyph glyph-name="three" unicode="3" horiz-adv-x="901" 
d="M424 1116q-24 0 -51 -6t-59 -21t-53 -46.5t-21 -75.5q0 -35 -19.5 -68t-56.5 -33q-32 0 -49 21t-17 45q0 21 10.5 50.5t37.5 65.5t66.5 65.5t105.5 50t147 20.5q71 0 126 -20.5t85.5 -52.5t45.5 -66.5t15 -67.5q0 -31 -5 -55t-22.5 -59.5t-59.5 -74.5t-107 -81l2 -5
q47 -8 90 -27.5t84 -54.5t65.5 -94.5t24.5 -134.5q0 -124 -61 -219t-159.5 -143.5t-215.5 -48.5q-61 0 -124.5 15.5t-110 46t-46.5 67.5q0 24 26 45.5t56 21.5q51 0 84 -49q1 -2 8 -13t9.5 -14.5t10.5 -13t13.5 -13l16 -10t21.5 -9t26.5 -5t33.5 -2.5q23 0 51 8t62.5 30
t62 56t46 92.5t18.5 131.5q0 63 -15 110t-38.5 74t-57.5 43t-65 21t-68 5q-51 0 -84 -4l-8 62q122 19 204.5 106.5t82.5 165.5q0 85 -46.5 126.5t-117.5 41.5z" />
    <glyph glyph-name="four" unicode="4" horiz-adv-x="901" 
d="M834 406q28 0 28 -31q0 -18 -18 -40t-37 -22h-137v-157q0 -59 21 -73.5t88 -18.5q13 0 20 -1q9 -9 9 -33.5t-9 -33.5q-122 4 -197 4q-105 0 -227 -4q-9 9 -9 33.5t9 33.5q84 6 107 15q48 18 48 78v157h-401q-38 0 -57.5 26t-24.5 56q0 2 4 6l538 762q16 21 29 21h54
q9 0 12 -8t-2 -15l-516 -755h364v321q0 29 21 41q50 35 90 35q19 0 24 -14.5t5 -49.5v-333h164z" />
    <glyph glyph-name="five" unicode="5" horiz-adv-x="901" 
d="M618 367q0 151 -61.5 223t-163.5 72q-120 0 -246 -48l66 560q125 -11 209 -11q125 0 319 21l13 -6l-31 -134q-100 -10 -203 -10q-74 0 -227 17l-39 -324q78 31 190 31q157 0 252 -105t95 -252q0 -183 -115 -302t-295 -119q-57 0 -120.5 19t-110 53.5t-46.5 72.5
q0 29 23 50.5t51 21.5q51 0 98 -64q2 -3 9.5 -13t10.5 -13.5t10 -12.5t12 -13t13 -11t15 -10t16.5 -6.5t20.5 -5t23 -1.5q89 0 150.5 91.5t61.5 228.5z" />
    <glyph glyph-name="six" unicode="6" horiz-adv-x="901" 
d="M260 590q-14 -74 -14 -146q0 -119 20.5 -201t58 -123t78 -57t91.5 -16q76 0 126 78.5t50 230.5q0 33 -5 68t-20.5 76.5t-39.5 73.5t-66.5 53.5t-96.5 21.5q-108 0 -182 -59zM279 665q43 24 101 38t103 14q95 0 164.5 -27t108 -74.5t56 -103t17.5 -121.5
q0 -52 -12.5 -106.5t-40.5 -109.5t-68 -98t-101 -70t-134 -27q-50 0 -98 10.5t-102.5 42.5t-94 82t-66 136.5t-26.5 199.5q0 120 46 244t133 225q83 97 182 159.5t243 104.5q23 -14 23 -49q-93 -35 -168.5 -88.5t-126.5 -117.5t-84.5 -128.5t-54.5 -135.5z" />
    <glyph glyph-name="seven" unicode="7" horiz-adv-x="901" 
d="M330 1036q-28 0 -47.5 -5t-43.5 -20.5t-44 -51t-35 -91.5l-62 6q37 233 39 310q0 6 8 6q9 -2 34 -14.5t63 -12.5h399q81 0 150 21l30 -23q-250 -609 -442 -1179l-133 -7l-15 13q157 354 437 1048h-338z" />
    <glyph glyph-name="eight" unicode="8" horiz-adv-x="901" 
d="M442 47q30 0 58 4.5t61 19.5t57 38.5t40 66t16 98.5q0 155 -168 258l-90 56q-58 -39 -99.5 -85t-60 -88.5t-26 -74t-7.5 -57.5q0 -62 21.5 -110t55.5 -74t70.5 -39t71.5 -13zM764 940q0 -44 -20.5 -86t-58.5 -79t-68 -60t-72 -51l119 -78q149 -98 149 -273
q0 -57 -23.5 -114.5t-68 -107t-118.5 -80.5t-165 -31q-158 0 -252 78.5t-94 224.5q0 134 113 233q86 75 141 117l-35 20q-90 56 -131 118.5t-41 143.5q0 115 91 192t237 77q139 0 218 -68.5t79 -175.5zM457 1116q-85 0 -133 -47t-48 -117q0 -55 27.5 -104t110.5 -103l59 -36
q160 118 160 233q0 74 -43.5 124t-132.5 50z" />
    <glyph glyph-name="nine" unicode="9" horiz-adv-x="901" 
d="M633 573q14 74 14 146q0 119 -20.5 201t-58 123t-78 57t-91.5 16q-76 0 -126 -78.5t-50 -230.5q0 -33 5 -68t20.5 -76.5t39.5 -73.5t66.5 -53.5t96.5 -21.5q108 0 182 59zM614 498q-43 -24 -101 -38t-103 -14q-95 0 -165 27t-108.5 74.5t-56 103t-17.5 121.5
q0 52 12.5 106.5t40.5 110t68 98.5t101.5 70t134.5 27q50 0 98 -10.5t102.5 -42.5t94 -82t66 -136.5t26.5 -199.5q0 -120 -46 -244t-133 -225q-83 -97 -182 -159.5t-243 -104.5q-23 14 -23 49q93 35 168.5 88.5t126.5 117t84.5 128t54.5 135.5z" />
    <glyph glyph-name="colon" unicode=":" horiz-adv-x="524" 
d="M184 188q0 44 32.5 76.5t76.5 32.5t76 -32.5t32 -76.5t-32 -76t-76 -32t-76.5 32t-32.5 76zM184 727q0 44 32.5 76.5t76.5 32.5t76 -32.5t32 -76.5t-32 -76.5t-76 -32.5t-76.5 32.5t-32.5 76.5z" />
    <glyph glyph-name="semicolon" unicode=";" horiz-adv-x="524" 
d="M287 195q61 0 98 -55.5t37 -147.5q0 -102 -71.5 -174t-170.5 -90q-18 18 -18 49q73 19 126.5 73t53.5 91q0 32 -20 45.5t-54 17.5q-90 15 -90 90q0 43 31 72t78 29zM184 727q0 44 32.5 76.5t76.5 32.5t76 -32.5t32 -76.5t-32 -76.5t-76 -32.5t-76.5 32.5t-32.5 76.5z" />
    <glyph glyph-name="less" unicode="&#x3c;" horiz-adv-x="997" 
d="M250 489l649 -237q21 -22 21 -57.5t-21 -44.5l-799 290q-29 46 0 99l799 288q21 -9 21 -44.5t-21 -57.5z" />
    <glyph glyph-name="equal" unicode="=" horiz-adv-x="1079" 
d="M944 395v-100h-809v100h809zM944 651v-100h-809v100h809z" />
    <glyph glyph-name="greater" unicode="&#x3e;" horiz-adv-x="997" 
d="M750 483l-650 238q-21 22 -21 57.5t21 44.5l799 -291q29 -45 0 -98l-799 -289q-21 9 -21 45t21 58z" />
    <glyph glyph-name="question" unicode="?" horiz-adv-x="890" 
d="M295 88q0 44 32 76.5t76 32.5t76.5 -32.5t32.5 -76.5t-32.5 -76t-76.5 -32t-76 32t-32 76zM233 1171q0 -37 13 -53q12 -15 12 -49q0 -33 -24 -52.5t-56 -19.5t-58 20t-26 68q0 101 105 185q93 80 254 80q156 0 250 -85t94 -225q0 -34 -8.5 -66t-18.5 -55.5t-32 -51
t-35.5 -43t-44 -40.5t-42 -33.5l-43.5 -31.5q-86 -64 -106 -103q-29 -55 -29 -149v-90q0 -10 -11 -15.5t-24 -5.5q-32 0 -32 21v94q0 40 4 73t17.5 77.5t44 90.5t77.5 89q62 58 87.5 109t25.5 122q0 103 -55 176.5t-140 73.5q-86 0 -142.5 -32t-56.5 -79z" />
    <glyph glyph-name="at" unicode="@" horiz-adv-x="1832" 
d="M1194 152q0 -13 8.5 -19t14.5 -6q82 0 141.5 20.5t105 69.5t68 135t22.5 211q0 122 -39.5 226.5t-103 176.5t-144.5 123t-164.5 75t-162.5 24q-96 0 -188 -25t-177 -80t-149 -134.5t-102.5 -196.5t-38.5 -258q0 -69 10 -138.5t33.5 -144.5t59 -141.5t91 -127t124 -104
t162.5 -69t204 -25.5q241 0 411 135l27 -37q-108 -83 -213 -124.5t-264 -41.5q-180 0 -332.5 61t-256 166t-162 248t-58.5 306q0 162 67 309t179.5 253.5t268 169t325.5 62.5q162 0 303.5 -51.5t240.5 -141t156 -214t57 -266.5q0 -74 -18 -144.5t-62 -140t-109.5 -121.5
t-168.5 -84.5t-232 -32.5q-40 0 -56.5 26t-16.5 58q0 33 30 129l-4 2q-63 -106 -137 -158.5t-135 -52.5q-72 0 -124.5 27.5t-78 70t-36.5 81.5t-11 75q0 106 44 205.5t113 168.5t154 111t166 42q52 0 97.5 -24.5t60.5 -63.5l10 49l109 26l30 -10l-122 -528
q-27 -124 -27 -137zM1165 647q0 57 -38 93t-95 36q-35 0 -89 -20t-95 -62q-139 -139 -139 -362q0 -189 159 -189q54 0 121 77t115 190q61 142 61 237z" />
    <glyph glyph-name="A" unicode="A" horiz-adv-x="1423" 
d="M317 162q-6 -15 -6.5 -28t4.5 -22.5t12.5 -16.5t20 -12t24 -8.5t28.5 -6t29.5 -3.5t29.5 -2q9 -9 9 -33.5t-9 -33.5q-152 4 -262 4q-31 0 -183 -4q-9 9 -9 33.5t9 33.5q78 5 123 32t82 114l455 1065q18 42 32.5 58t36.5 16q20 0 31.5 -14.5t24.5 -47.5l420 -1110
q11 -29 26 -49.5t28 -31.5t38 -18t37.5 -8.5t44.5 -4.5q6 -1 10 -1q9 -9 9 -33.5t-9 -33.5q-152 4 -234 4q-116 0 -268 -4q-9 9 -9 33.5t9 33.5q12 1 31.5 2t30.5 2l27 2.5t24.5 4t19 6.5t15 9.5t8 13.5t2.5 19t-6 25l-125 347h-426q-36 0 -50 -7t-22 -28zM539 580h356
l-199 546h-4l-205 -519q-7 -16 5 -21.5t47 -5.5z" />
    <glyph glyph-name="B" unicode="B" horiz-adv-x="1204" 
d="M303 1321q46 0 134 2t122 2q440 0 440 -315q0 -80 -56.5 -154t-137.5 -115v-4q144 -41 229.5 -130.5t85.5 -229.5q0 -56 -14 -107.5t-50.5 -102.5t-93 -88t-148.5 -60t-210 -23q-103 0 -185 2t-114 2q-66 0 -266 -4q-9 9 -9 33.5t9 33.5q41 2 63.5 4t45.5 9.5t34 18.5
t20 32.5t12 50t3 72.5v821q0 65 -6.5 100t-30 54.5t-52 24t-89.5 7.5q-9 9 -9 34t9 34q204 -4 264 -4zM391 680v-479q0 -61 36.5 -99.5t133.5 -38.5q76 0 135 9.5t99 28.5t67 43t41.5 56.5t20.5 65t6 72.5q0 149 -99.5 245.5t-298.5 96.5h-141zM391 1167v-417h152
q291 0 291 235q0 74 -24.5 129.5t-65.5 84.5t-84.5 42.5t-90.5 13.5q-45 0 -75 -1.5t-50 -7t-30.5 -10t-15.5 -17t-6 -22t-1 -30.5z" />
    <glyph glyph-name="C" unicode="C" horiz-adv-x="1323" 
d="M731 -20q-128 0 -236.5 37.5t-184.5 101.5t-129.5 149.5t-79 180.5t-25.5 196q0 159 57 296.5t160 232.5q190 174 440 174q110 0 198 -21t151 -44.5t100 -27.5q37 -232 45 -317q-38 -20 -68 -10q-22 72 -53.5 129t-83 108t-130.5 79t-181 28q-83 0 -168 -45.5
t-159 -136.5q-122 -150 -122 -406q0 -91 18 -179t55.5 -168.5t91.5 -141t132 -96.5t170 -36q143 0 255 52.5t220 171.5q30 0 47 -31q-104 -136 -237 -206t-283 -70z" />
    <glyph glyph-name="D" unicode="D" horiz-adv-x="1435" 
d="M303 1321q34 0 150 2t188 2q145 0 276 -55.5t225.5 -148.5t150 -221t55.5 -269q0 -105 -22 -193.5t-60 -153t-91 -115t-111.5 -82.5t-126.5 -53t-131 -29.5t-128 -8.5q-122 0 -237 2t-136 2q-66 0 -266 -4q-9 9 -9 33.5t9 33.5q41 2 63.5 4t45.5 9.5t34 18.5t20 32.5
t12 50t3 72.5v821q0 65 -6.5 100t-30 54.5t-52 24t-89.5 7.5q-9 9 -9 34t9 34q204 -4 264 -4zM391 170q0 -37 13 -57t63 -33.5t147 -13.5q92 0 167.5 13.5t146 49t118.5 92.5t76.5 148.5t28.5 212.5q0 99 -18 191.5t-62 181.5t-109.5 154.5t-168 105.5t-230.5 40
q-172 0 -172 -100v-985z" />
    <glyph glyph-name="E" unicode="E" horiz-adv-x="1124" 
d="M559 739q45 0 74 2t50 9.5t32 15.5t17.5 27t8.5 36t4 50q9 9 34 9t34 -9q-4 -122 -4 -177q0 -36 4 -180q-9 -9 -34 -9t-34 9q-2 34 -5 50.5t-13 37.5t-29 30t-53.5 15.5t-85.5 6.5h-186v-494q0 -41 19.5 -64.5t53.5 -23.5h279q108 0 170.5 71.5t97.5 196.5q37 10 72 -10
q-25 -163 -76 -342q-164 4 -262 4h-440q-167 -2 -267 -4q-9 9 -9 33.5t9 33.5q41 2 63.5 4t46 9.5t34 18.5t20 32t12.5 50t3 73v821q0 52 -5.5 84t-15.5 52.5t-34.5 30.5t-49.5 13.5t-74 5.5q-9 9 -9 34t9 34l265 -4h522q53 0 100 8q8 0 8 -6q4 -14 21.5 -127t24.5 -170
q-32 -16 -68 -10q-13 42 -22 66t-23.5 53.5t-29.5 45.5t-37.5 31t-51.5 21t-67 6h-216q-35 0 -54 -25.5t-19 -64.5v-410h186z" />
    <glyph glyph-name="F" unicode="F" horiz-adv-x="976" 
d="M563 662h-190v-412q0 -44 3 -72.5t12 -50t20 -32.5t34 -18.5t45.5 -9.5t63.5 -4q9 -9 9 -33.5t-9 -33.5q-204 4 -264 4q-67 0 -267 -4q-9 9 -9 33.5t9 33.5q41 2 63.5 4t46 9.5t34 18.5t20 32t12.5 50t3 73v821q0 52 -5.5 84t-15.5 52.5t-34.5 30.5t-49.5 13.5t-74 5.5
q-9 9 -9 34t9 34l265 -4h523q55 0 96 8q7 0 8 -6q17 -90 44 -297l-63 -10q-13 42 -22 66t-23.5 53.5t-29.5 45.5t-37.5 31t-51.5 21t-67 6h-216q-73 0 -73 -70v-430h190q45 0 74 2t50.5 9.5t32.5 15.5t17.5 27t8.5 36t4 50q9 9 33.5 9t33.5 -9q-4 -122 -4 -177q0 -36 4 -180
q-9 -9 -33.5 -9t-33.5 9q-2 34 -5 51t-13.5 37.5t-29.5 29.5t-53.5 15.5t-85.5 6.5z" />
    <glyph glyph-name="G" unicode="G" horiz-adv-x="1423" 
d="M772 1348q85 0 157.5 -14.5t114 -32t88.5 -32t87 -14.5q17 -183 45 -315l-70 -12q-17 58 -38.5 104t-58 92.5t-83 77.5t-116 50.5t-155.5 19.5q-210 0 -350.5 -168.5t-140.5 -433.5q0 -68 16 -139.5t47 -140.5t79 -130t108 -107t139.5 -73t167.5 -27q86 0 166 25.5
t131 73.5v305q0 57 -36 73.5t-132 24.5q-9 9 -9 37t9 37q192 -4 254 -4q60 0 182 4q9 -9 9 -37t-9 -37q-48 -5 -71 -26t-23 -72v-230q0 -31 33 -57q-222 -190 -551 -190q-151 0 -282 52t-221 140t-141.5 206.5t-51.5 250.5q0 110 28 209.5t77 177.5t116 141.5t145.5 105
t165 63.5t174.5 22z" />
    <glyph glyph-name="H" unicode="H" horiz-adv-x="1495" 
d="M1266 250q0 -44 3 -72.5t12 -50t20 -32.5t34 -18.5t45.5 -9.5t63.5 -4q9 -9 9 -33.5t-9 -33.5q-204 4 -264 4q-67 0 -267 -4q-9 9 -9 33.5t9 33.5q41 2 63.5 4t46 9.5t34 18.5t20 32t12.5 50t3 73v407h-701v-407q0 -44 3 -72.5t12 -50t20 -32.5t34 -18.5t45.5 -9.5
t63.5 -4q9 -9 9 -33.5t-9 -33.5q-204 4 -264 4q-66 0 -266 -4q-9 9 -9 33.5t9 33.5q41 2 63.5 4t45.5 9.5t34 18.5t20 32.5t12 50t3 72.5v821q0 65 -6.5 100t-30 54.5t-52 24t-89.5 7.5q-9 9 -9 34t9 34q204 -4 264 -4q66 0 266 4q9 -9 9 -34t-9 -34q-61 -3 -89.5 -7.5
t-52 -24t-30 -54.5t-6.5 -100v-328h701v328q0 52 -5.5 84t-15.5 52.5t-34.5 30.5t-49.5 13.5t-74 5.5q-9 9 -9 34t9 34q204 -4 265 -4q66 0 266 4q9 -9 9 -34t-9 -34q-61 -3 -89.5 -7.5t-52 -24t-30 -54.5t-6.5 -100v-821z" />
    <glyph glyph-name="I" unicode="I" horiz-adv-x="608" 
d="M391 250q0 -44 3 -72.5t12 -50t20 -32.5t34 -18.5t45.5 -9.5t63.5 -4q9 -9 9 -33.5t-9 -33.5q-204 4 -264 4q-66 0 -266 -4q-9 9 -9 33.5t9 33.5q41 2 63.5 4t45.5 9.5t34 18.5t20 32.5t12 50t3 72.5v821q0 65 -6.5 100t-30 54.5t-52 24t-89.5 7.5q-9 9 -9 34t9 34
q204 -4 264 -4q66 0 266 4q9 -9 9 -34t-9 -34q-61 -3 -89.5 -7.5t-52 -24t-30 -54.5t-6.5 -100v-821z" />
    <glyph glyph-name="J" unicode="J" horiz-adv-x="557" 
d="M463 1071v-860q0 -84 -14.5 -155t-32.5 -116t-51 -89t-54 -64t-57 -51q-60 -52 -113.5 -70t-126.5 -18q-45 0 -99 30.5t-54 79.5q0 31 32.5 59.5t57.5 28.5q22 0 38.5 -8t23 -15.5t17 -24l13.5 -21.5q28 -37 72 -37q23 0 44.5 8.5t46 36t42 72t29.5 124t12 185.5v905
q0 44 -3 72.5t-13 50t-21.5 32.5t-37.5 18t-51.5 9t-72.5 4q-9 9 -9 34t9 34q204 -4 285 -4q46 0 246 4q9 -9 9 -34t-9 -34q-53 -3 -78 -8t-46 -23.5t-27.5 -54t-6.5 -100.5z" />
    <glyph glyph-name="K" unicode="K" horiz-adv-x="1304" 
d="M391 250q0 -44 3 -72.5t12 -50t20 -32.5t34 -18.5t45.5 -9.5t63.5 -4q9 -9 9 -33.5t-9 -33.5q-204 4 -264 4q-66 0 -266 -4q-9 9 -9 33.5t9 33.5q41 2 63.5 4t45.5 9.5t34 18.5t20 32.5t12 50t3 72.5v821q0 65 -6.5 100t-30 54.5t-52 24t-89.5 7.5q-9 9 -9 34t9 34
q204 -4 264 -4q66 0 266 4q9 -9 9 -34t-9 -34q-61 -3 -89.5 -7.5t-52 -24t-30 -54.5t-6.5 -100v-360q87 7 156 80l344 360q18 20 28.5 35.5t15 26t1 18t-7.5 11.5t-17.5 7t-22 4t-27 2t-27.5 2q-9 9 -9 34t9 34q192 -4 231 -4q3 0 195 4q9 -9 9 -34t-9 -34q-1 0 -24 -3
t-26.5 -3.5l-25 -3.5t-27.5 -5.5t-25 -7.5t-28.5 -10.5t-26.5 -13.5t-28.5 -17.5l-26.5 -22t-29 -27.5l-286 -309q-48 -51 -62 -70.5t-14 -30.5q0 -24 24 -51l449 -532q16 -20 35 -35.5t33.5 -23.5t34.5 -14.5t28.5 -8t27.5 -3.5t21 -2q9 -9 9 -33.5t-9 -33.5q-192 4 -207 4
q-55 0 -137 -4q-10 0 -10 12q0 92 -41 142l-334 405q-58 75 -164 78v-383z" />
    <glyph glyph-name="L" unicode="L" horiz-adv-x="1077" 
d="M301 0q-166 -2 -266 -4q-9 9 -9 33.5t9 33.5q41 2 63.5 4t45.5 9.5t34 18.5t20 32.5t12 50t3 72.5v821q0 65 -6.5 100t-30 54.5t-52 24t-89.5 7.5q-9 9 -9 34t9 34q204 -4 264 -4q66 0 266 4q9 -9 9 -34t-9 -34q-61 -3 -89.5 -7.5t-52 -24t-30 -54.5t-6.5 -100v-889
q0 -47 26 -74.5t70 -27.5h232q56 0 98.5 20t71.5 60t47 83t35 105q36 6 67 -10q-19 -170 -53 -342q-188 4 -244 4h-436z" />
    <glyph glyph-name="M" unicode="M" horiz-adv-x="1718" 
d="M1357 238l-52 856h-5l-460 -1084q-11 -22 -29 -22q-22 0 -31 22l-424 1063h-4l-78 -821q-9 -96 16 -139t120 -50q9 -9 9 -33.5t-9 -33.5q-122 4 -193 4q-54 0 -176 -4q-9 9 -9 33.5t9 33.5q84 7 113.5 47t39.5 138l82 844q4 42 5 65.5t-4.5 43.5t-11.5 28.5t-27 15
t-40 8.5t-61 4q-9 9 -9 34t9 34l297 -4l420 -1040q12 -27 16 -27q7 0 19 29l434 1038l268 4q9 -9 9 -34t-9 -34q-53 -3 -81.5 -10.5t-43.5 -24t-16 -43.5t1 -69l61 -862q3 -49 5.5 -73t10 -48.5t15 -33t27 -17t40 -10t59.5 -3.5q9 -9 9 -33.5t-9 -33.5q-136 4 -223 4
q-27 0 -219 -4q-9 9 -9 33.5t9 33.5q30 1 44.5 2t33 5t25 7t15.5 13.5t10.5 20.5t3.5 31t1 41t-3 55z" />
    <glyph glyph-name="N" unicode="N" horiz-adv-x="1431" 
d="M1139 1049q0 41 -3 69.5t-7 50.5t-15.5 36t-22 23t-33.5 14.5t-42 8t-55 6.5q-9 9 -9 34t9 34q204 -4 227 -4q29 0 229 4q9 -9 9 -34t-9 -34q-61 -6 -89.5 -12.5t-52 -28.5t-30 -59.5t-6.5 -107.5v-1006q0 -29 -12.5 -46t-34.5 -17q-46 0 -82 49l-715 903q-52 67 -69 67
q-11 0 -14 -21t-3 -79v-627q0 -48 2.5 -79.5t12.5 -54.5t20 -35t34 -20.5t45.5 -12t63.5 -7.5q9 -9 9 -33.5t-9 -33.5q-204 4 -227 4q-29 0 -229 -4q-9 9 -9 33.5t9 33.5q41 4 63.5 7.5t46 12.5t34 21.5t20 35.5t12 54t2.5 78v854q-10 45 -55.5 86t-106.5 45q-9 9 -9 34
t9 34l277 -4l702 -905l30.5 -40l25.5 -33l17 -21t14.5 -15t10.5 -4q10 0 12.5 14t2.5 48v684z" />
    <glyph glyph-name="O" unicode="O" horiz-adv-x="1437" 
d="M1364 674q0 -152 -46.5 -281t-130 -220t-204.5 -142t-266 -51q-132 0 -248.5 46.5t-204 129.5t-138 207t-50.5 272q0 199 80 361.5t224.5 257t324.5 94.5q134 0 254 -49t210 -135.5t142.5 -213.5t52.5 -276zM678 1278q-73 0 -142.5 -35.5t-129.5 -106t-97 -191.5
t-37 -275q0 -143 41 -262t109.5 -196.5t155.5 -120t180 -42.5q179 0 294 158.5t115 427.5q0 156 -37 279.5t-103 202.5t-154.5 120t-194.5 41z" />
    <glyph glyph-name="P" unicode="P" horiz-adv-x="1087" 
d="M213 1071q0 65 -6.5 100t-30 54.5t-52 24t-89.5 7.5q-9 9 -9 34t9 34q204 -4 264 -4q45 0 151.5 7t129.5 7q108 0 192.5 -24t133 -60.5t80 -84t42 -89t10.5 -82.5q0 -56 -14 -110.5t-49.5 -111t-89 -99t-139.5 -69.5t-193 -27q-102 0 -166 20v-348q0 -43 3.5 -72.5
t15.5 -50t24.5 -32t40.5 -18.5t53 -9.5t72 -4.5q9 -9 9 -33.5t-9 -33.5q-204 4 -295 4q-66 0 -266 -4q-9 9 -9 33.5t9 33.5q41 2 63.5 4t45.5 9.5t34 18.5t20 32.5t12 50t3 72.5v821zM387 1135v-478q38 -10 156 -10q153 0 229 74.5t76 236.5q0 75 -16.5 131.5t-42 89.5
t-64 53t-76.5 27t-84 7q-99 0 -138.5 -38t-39.5 -93z" />
    <glyph glyph-name="Q" unicode="Q" horiz-adv-x="1437" 
d="M285 -313q53 78 147.5 159.5t200.5 137.5q-158 19 -283 101.5t-199.5 225.5t-74.5 324q0 199 80 361.5t224.5 257t324.5 94.5q134 0 254 -49t210 -135.5t142.5 -213.5t52.5 -276q0 -275 -142.5 -460.5t-384.5 -224.5q-135 -38 -267 -135q22 3 40 3q75 0 158.5 -26.5
t144.5 -57.5t135 -57.5t134 -26.5q49 0 98 18.5t80 56.5l35 -24q-61 -88 -130.5 -128t-164.5 -40q-74 0 -144 20t-124 49l-105 57.5t-106 48.5t-107 20q-32 0 -77 -29.5t-72 -91.5zM678 1278q-73 0 -142.5 -35.5t-129.5 -106t-97 -191.5t-37 -275q0 -143 41 -262
t109.5 -196.5t155.5 -120t180 -42.5q179 0 294 158.5t115 427.5q0 156 -37 279.5t-103 202.5t-154.5 120t-194.5 41z" />
    <glyph glyph-name="R" unicode="R" horiz-adv-x="1202" 
d="M387 250q0 -44 3 -72.5t12 -50t20 -32.5t34 -18.5t45.5 -9.5t63.5 -4q9 -9 9 -33.5t-9 -33.5q-204 4 -264 4q-66 0 -266 -4q-9 9 -9 33.5t9 33.5q41 2 63.5 4t45.5 9.5t34 18.5t20 32.5t12 50t3 72.5v821q0 65 -6.5 100t-30 54.5t-52 24t-89.5 7.5q-9 9 -9 34t9 34
q204 -4 264 -4q42 0 138 7t118 7q122 0 205 -18t149 -80q109 -103 109 -256q0 -76 -29.5 -140.5t-75 -105.5t-87.5 -66t-81 -38l259 -430q47 -79 90 -118.5t106 -39.5q13 -27 2 -49q-28 -14 -86 -14q-157 0 -270 182l-219 356q-16 27 -37 42t-70.5 25.5t-132.5 10.5v-346z
M557 1266q-170 0 -170 -131v-469h98q80 0 138.5 13.5t107 46.5t73.5 96.5t25 156.5q0 287 -272 287z" />
    <glyph glyph-name="S" unicode="S" horiz-adv-x="993" 
d="M808 1292q29 -150 37 -264q-15 -12 -67 -12q-14 46 -28 80t-39 70t-55.5 59t-76.5 38t-104 15q-97 0 -160.5 -67t-63.5 -162q0 -48 22.5 -90.5t52.5 -71t78 -56t81.5 -41.5t82 -32.5t61.5 -24.5q61 -26 107.5 -55.5t87.5 -72t63 -100.5t22 -128q0 -159 -131 -278
t-314 -119q-98 0 -204 23.5t-164 23.5q-19 77 -27 136t-14 175q33 17 67 6q64 -291 359 -291q123 0 189.5 64.5t66.5 187.5q0 43 -9.5 79.5t-24.5 63t-39 50.5t-46.5 39t-54.5 31t-55.5 25l-56.5 21.5t-51 20.5q-65 28 -114 59t-92.5 73.5t-66.5 99.5t-23 126q0 104 59 187
t147.5 125.5t183.5 42.5q88 0 138.5 -10t91.5 -25t84 -21z" />
    <glyph glyph-name="T" unicode="T" horiz-adv-x="1202" 
d="M717 250q0 -44 2.5 -72.5t12.5 -50t21.5 -32.5t37.5 -18.5t51.5 -9.5t72.5 -4q9 -9 9 -33.5t-9 -33.5q-204 4 -284 4q-87 0 -287 -4q-9 9 -9 33.5t9 33.5q47 2 72.5 4t51.5 9.5t37.5 18.5t21.5 32.5t13 50t3 72.5v870q0 50 -31.5 85.5t-85.5 35.5h-162q-85 0 -117 -33.5
t-63 -156.5q-45 0 -70 10q30 133 45 315q34 3 64 -8q0 -47 43 -47h891q45 0 45 47q27 8 61 8q0 -140 27 -315q-16 -8 -70 -10q-27 123 -53.5 156.5t-108.5 33.5h-127q-54 0 -84 -36t-30 -91v-864z" />
    <glyph glyph-name="U" unicode="U" horiz-adv-x="1353" 
d="M352 1071v-520q0 -63 2.5 -105.5t12 -98.5t32 -101.5t58.5 -79.5q108 -103 243 -103q72 0 129.5 16.5t96.5 43t67.5 67.5t44 82t25 95.5t12 99t2.5 100.5v504q0 26 -0.5 46t-4.5 37t-6 29.5t-11 22.5t-13.5 16.5t-20 12t-23.5 8t-30.5 6t-35 4.5t-43.5 4q-9 9 -9 34t9 34
q204 -4 237 -4q9 0 209 4q9 -9 9 -34t-9 -34q-25 -3 -34.5 -4t-28.5 -4.5t-25.5 -6t-19.5 -8t-17 -12t-12 -16.5t-10 -22.5t-5.5 -29.5t-4 -37t-0.5 -46v-467q0 -116 -13.5 -206t-49 -170.5t-93.5 -133.5t-150 -83.5t-215 -30.5q-62 0 -121.5 11.5t-126 45.5t-116 87.5
t-82.5 146t-33 212.5v588q0 65 -6.5 100.5t-27.5 54t-46 23.5t-78 8q-9 9 -9 34t9 34q204 -4 244 -4q77 0 277 4q9 -9 9 -34t-9 -34q-45 -2 -69.5 -4t-49.5 -9t-35.5 -18t-20 -32.5t-12 -50t-2.5 -72.5z" />
    <glyph glyph-name="V" unicode="V" horiz-adv-x="1335" 
d="M918 1257q-9 9 -9 34t9 34q192 -4 223 -4q16 0 180 4q9 -9 9 -34t-9 -34q-33 -4 -58.5 -12t-45.5 -24t-32 -27.5t-26 -39t-19.5 -39.5t-19.5 -48l-424 -1044q-20 -48 -49 -48t-47 48l-404 1048q-14 37 -20 51.5t-17 39t-16 32.5t-16.5 22t-20.5 18l-24 10.5t-31 8.5
t-39 4q-9 9 -10 34t8 34q192 -4 213 -4q56 0 248 4q9 -9 9 -34t-9 -34q-103 -10 -122 -41t18 -122l326 -834h10l323 821q14 36 20 60t4.5 46.5t-16 35.5t-43 22t-73.5 12z" />
    <glyph glyph-name="W" unicode="W" horiz-adv-x="1953" 
d="M1669 1157q6 18 6 32.5t-4.5 24.5t-16 17t-22 11.5t-30 7.5t-32.5 4t-36 3q-9 9 -9 34t9 34q164 -4 225 -4q26 0 178 4q9 -9 9 -34t-9 -34q-79 -4 -117 -34.5t-59 -89.5l-403 -1110q-15 -48 -55 -48q-47 0 -64 50l-240 727q-18 57 -28 57q-13 0 -29 -51l-285 -733
q-17 -50 -57 -50q-48 0 -63 50l-373 1114q-14 42 -25.5 64t-31 34t-37 14.5t-58.5 5.5q-9 9 -9 34t9 34q164 -4 191 -4q95 0 231 4q9 -9 9 -34t-9 -34q-20 -1 -34 -2.5t-29.5 -5.5t-23 -9.5t-15 -15t-5.5 -22.5l5 -31l307 -944h4l258 678q14 36 14 78q0 26 -10 57l-31 95
q-15 47 -59 82.5t-119 39.5q-9 9 -9 34t9 34q164 -4 205 -4q58 0 250 4q9 -9 9 -34t-9 -34q-24 -2 -35.5 -3.5t-30.5 -6t-27.5 -12.5t-16.5 -20.5t-7 -32.5t10 -47l295 -912h4z" />
    <glyph glyph-name="X" unicode="X" horiz-adv-x="1341" 
d="M27 1280v39l6 6q164 -4 211 -4q58 0 250 4q2 -6 4 -6v-39q0 -14 -11 -14l-65 -4q-25 -1 -36 -7.5t-9 -19.5t10 -26.5t25 -37.5l243 -360q16 -23 25 -23q8 0 27 25l264 358q20 28 27 46t-2 30.5t-38 14.5l-61 4q-14 2 -14 14v41l4 4q164 -4 203 -4q34 0 198 4l6 -4v-41
q0 -13 -18 -14q-45 -2 -79 -12t-60.5 -31.5t-43 -40t-42.5 -52.5l-269 -362q-26 -36 -26 -61t32 -68l316 -430q101 -146 217 -154q14 -1 14 -14v-41l-4 -4q-164 4 -215 4q-64 0 -256 -4l-6 4v41q0 13 12 14l41 4q60 6 63.5 22.5t-36.5 68.5l-270 385q-16 22 -29 22
q-9 0 -31 -29l-270 -370q-19 -28 -25.5 -46.5t6 -33.5t50.5 -19l38 -4q13 -1 13 -14v-41l-6 -4q-192 4 -230 4q-50 0 -172 -4l-2 4v41q0 12 23 14q42 2 79 17.5t67.5 42.5t48.5 47.5t40 50.5l281 383q20 27 20 47q0 26 -28 62l-295 419q-89 126 -183 142q-32 5 -32 14z" />
    <glyph glyph-name="Y" unicode="Y" horiz-adv-x="1177" 
d="M690 250q0 -44 3 -72.5t13 -50t21.5 -32.5t37.5 -18.5t51.5 -9.5t72.5 -4q9 -9 9 -33.5t-9 -33.5q-204 4 -285 4q-87 0 -287 -4q-9 9 -9 33.5t9 33.5q47 2 72.5 4t51.5 9.5t37.5 18.5t21.5 32.5t13 50t3 72.5v280q0 15 -0.5 26t-1 19t-3 16.5t-3.5 13t-6 14t-7 13l-10 17
t-12 19.5l-269 452q-29 49 -49 75.5t-41 39.5t-36.5 16t-47.5 5q-12 1 -18 1q-9 9 -10 34t8 34q122 -4 209 -4q70 0 234 4q9 -9 9 -34t-9 -34q-15 -1 -32 -1.5t-27 -0.5t-21.5 -0.5t-17 -2t-11.5 -3.5t-7 -6t-2 -9t2.5 -13l8 -17.5t12.5 -23.5l259 -455q10 -18 16 -24
t13 -1.5t16 21.5l243 459q10 18 14.5 31t2 21t-6 12.5t-16.5 7t-22.5 3t-31.5 1t-36 1.5q-9 9 -9 33t9 33q82 -2 186 -2q109 0 170 2q9 -9 9 -33t-9 -33l-35 -3t-31 -3t-24 -4.5t-23 -9.5l-19.5 -16.5t-22.5 -26t-22 -37.5l-262 -473q-31 -57 -33.5 -66t-2.5 -70v-298z" />
    <glyph glyph-name="Z" unicode="Z" horiz-adv-x="1236" 
d="M1128 -4q-204 4 -259 4h-746q-39 0 -39 31q0 26 16 47l797 1108q16 22 16 37q0 16 -20 16h-473q-45 0 -79.5 -13t-56.5 -31t-41.5 -54t-30 -65.5t-26.5 -80.5l-61 11q33 172 45 342q31 -2 72 -14.5t94 -12.5h657q33 3 75 11.5t54 8.5q28 0 37.5 -4.5t9.5 -15.5
q0 -43 -49 -111l-768 -1063q-16 -29 -16 -41q0 -26 51 -26h477q56 0 99 20t72.5 59.5t48.5 83.5t36 105l64 -10q-42 -176 -56 -342z" />
    <glyph glyph-name="bracketleft" unicode="[" horiz-adv-x="729" 
d="M221 -395v1835h434q9 -9 9 -31t-9 -31q-74 -5 -120 -11t-81.5 -18.5t-52.5 -25.5t-28 -41t-13 -55.5t-2 -77.5v-1251q0 -38 1 -60.5t6 -47.5t12.5 -38t23 -28t36 -22t53 -15t71 -12t94.5 -9q9 -9 9 -30.5t-9 -30.5h-434z" />
    <glyph glyph-name="backslash" unicode="\" horiz-adv-x="587" 
d="M113 1430l471 -1528h-90l-471 1528h90z" />
    <glyph glyph-name="bracketright" unicode="]" horiz-adv-x="729" 
d="M508 1442v-1835h-434q-9 9 -9 30.5t9 30.5q55 4 93.5 8t71 11.5t53 15t36.5 22t23.5 27.5t12.5 38t6 47.5t1 60.5v1251q0 38 -1 60.5t-6 47t-12.5 38t-23 28t-36 21.5t-53 15t-71 12t-94.5 9q-9 9 -9 31t9 31h434z" />
    <glyph glyph-name="asciicircum" unicode="^" horiz-adv-x="1060" 
d="M530 1214l-208 -505h-93l260 622h86l259 -622h-93z" />
    <glyph glyph-name="underscore" unicode="_" horiz-adv-x="995" 
d="M975 -225q12 -12 12 -45t-12 -45h-955q-12 12 -12 45t12 45h955z" />
    <glyph glyph-name="grave" unicode="`" horiz-adv-x="802" 
d="M365 1432l143 -258q12 -24 12 -50q0 -8 -9.5 -15t-21.5 -7q-15 0 -59 41l-233 223l4 23q63 47 133 47q15 0 31 -4z" />
    <glyph glyph-name="a" unicode="a" horiz-adv-x="935" 
d="M600 98h-4l-41 -32q-68 -53 -110.5 -69.5t-112.5 -16.5q-116 0 -187 53t-71 168q0 102 93 180.5t245 116.5l176 43q12 4 12 24q0 266 -166 266q-68 0 -119 -21.5t-51 -64.5q0 -28 4 -40q6 -12 6 -37q0 -24 -24.5 -46t-65.5 -22q-71 0 -71 72q0 54 49 107t128 86.5
t161 33.5q49 0 90 -7.5t83 -30.5t71 -60t47 -100.5t18 -147.5v-305q0 -29 0.5 -46t3 -40.5t7.5 -36.5t14 -26t23.5 -19t33.5 -6t32 8t20 16t11 8q6 0 16.5 -12t10.5 -22q0 -7 -21.5 -28t-64.5 -42.5t-88 -21.5q-38 0 -68 12t-47.5 31.5t-27.5 37.5t-15 37zM600 477l-162 -43
q-194 -51 -194 -225q0 -55 38.5 -100.5t108.5 -45.5t180 89q29 22 29 53v272z" />
    <glyph glyph-name="b" unicode="b" horiz-adv-x="1009" 
d="M342 807q102 92 229 92q67 0 132 -28.5t116.5 -79t83 -128t31.5 -167.5q0 -117 -41 -217t-107 -164t-145.5 -99.5t-159.5 -35.5q-120 0 -180 50q-17 14 -28.5 13.5t-27.5 -18.5t-48 -50q-29 0 -45 25q8 39 8 145v1000q0 35 -2 59.5t-4 43t-10 29.5l-13.5 18t-21.5 10.5
t-26.5 4.5t-34.5 2q-12 1 -19 1q-9 9 -12.5 28.5t-0.5 32.5q62 5 155.5 23t131.5 33q27 0 27 -21q-8 -82 -8 -215v-377q0 -28 20 -10zM356 743q-20 -17 -27 -35.5t-7 -50.5v-512q37 -46 70.5 -71t76.5 -25q141 0 215 113.5t74 296.5q0 148 -66.5 249t-161.5 101
q-100 0 -174 -66z" />
    <glyph glyph-name="c" unicode="c" horiz-adv-x="866" 
d="M815 186q-49 -81 -105.5 -128t-109 -62.5t-119.5 -15.5q-190 0 -297.5 122t-107.5 324q0 105 37 196t97 150.5t134.5 93t151.5 33.5q145 0 229 -54t84 -140q0 -43 -31.5 -67t-68.5 -24q-70 0 -78 74q-4 32 -10 53.5t-20.5 44t-43.5 34t-72 11.5q-103 0 -168 -97t-65 -263
q0 -176 79 -283.5t195 -107.5q141 0 246 135q32 -4 43 -29z" />
    <glyph glyph-name="d" unicode="d" horiz-adv-x="1036" 
d="M684 103q-79 -64 -138.5 -93.5t-117.5 -29.5q-162 0 -255 121t-93 315q0 219 141 360q65 62 137.5 92.5t169.5 30.5q30 0 68 -8.5t64 -17.5t28 -9q19 0 19 19v262q0 41 -1.5 68t-8.5 46t-12.5 28.5t-22 15t-28.5 7t-40 2.5q-12 1 -19 1q-9 9 -12 28.5t0 32.5
q62 5 155.5 23t131.5 33q27 0 27 -21q-9 -82 -9 -215v-928q0 -79 28 -110.5t122 -38.5q9 -9 9 -28t-9 -28q-173 -19 -248 -81q-23 -6 -39 0q-22 71 -22 120q0 7 -4 9t-10 0t-11 -6zM707 254v389q0 46 -6.5 66t-28.5 45q-64 73 -166 73q-124 0 -191 -102q-59 -82 -59 -272
q0 -180 67 -278.5t158 -98.5q80 0 193 98q21 18 27 33.5t6 46.5z" />
    <glyph glyph-name="e" unicode="e" horiz-adv-x="915" 
d="M791 190q34 -3 43 -32q-138 -178 -349 -178q-201 0 -313 131q-96 110 -96 303q0 90 25.5 169t67.5 135t95.5 97t110 60.5t110.5 19.5q346 0 346 -356q0 -35 -38 -35l-545 4q0 -173 65 -281q45 -74 104.5 -110.5t119.5 -36.5q86 0 140.5 24.5t113.5 85.5zM254 578l371 6
q30 0 30 28q0 61 -15 105.5t-41 67t-54 32.5t-60 10q-20 0 -39.5 -3.5t-51 -18t-57 -39.5t-49 -74t-34.5 -114z" />
    <glyph glyph-name="f" unicode="f" horiz-adv-x="634" 
d="M358 250q0 -45 2 -72.5t10 -49.5t16.5 -32.5t30 -18t42.5 -10t61 -4.5q9 -9 9 -33.5t-9 -33.5q-176 4 -241 4q-44 0 -216 -4q-9 9 -9 33.5t9 33.5q38 3 57 6.5t37.5 13.5t25 30.5t10.5 52t4 84.5v549h-142q-10 0 -10 12v27q0 15 11 28t36 13h105v82q0 115 32 207t85 148
t116 85t129 29q64 0 105.5 -9t78.5 -35q66 -51 66 -104q0 -30 -28.5 -57t-55.5 -27q-53 0 -82 66q-22 53 -49.5 74.5t-73.5 21.5q-162 0 -162 -365v-116h222q16 0 16 -13v-41q0 -12 -15.5 -19t-31.5 -7h-191v-549z" />
    <glyph glyph-name="g" unicode="g" horiz-adv-x="1024" 
d="M909 793q-16 0 -33.5 11.5t-23.5 24.5q-17 25 -41 25q-19 0 -45 -16.5t-37 -32.5q46 -48 67 -96t21 -117q0 -144 -101.5 -228.5t-244.5 -84.5q-113 0 -186 43q-37 -52 -37 -119q0 -60 39.5 -88.5t91.5 -28.5q4 0 12 0.5t22.5 1.5t26.5 2q82 10 138 10q218 0 299 -67
q90 -75 90 -166q0 -80 -51 -148t-133.5 -112.5t-184.5 -69t-207 -24.5q-63 0 -118 12t-103 37.5t-76 72.5t-28 111q0 68 43 134t124 114q-42 21 -68 63t-26 95q0 55 24.5 112.5t65.5 93.5q-51 49 -78.5 101.5t-27.5 128.5q0 91 49.5 163t129 110t171.5 38q124 0 213 -57
q37 48 98 76t107 28q41 0 67.5 -21.5t26.5 -54.5q0 -30 -23.5 -53.5t-52.5 -23.5zM270 -20q-40 -49 -51.5 -90t-11.5 -103q0 -49 27.5 -89t68 -63t80.5 -35t70 -12q96 0 185.5 25t152.5 78t63 123q0 40 -22 66.5t-82 60.5q-40 22 -96 28t-152 6q-10 0 -62 -3t-88 -3
q-40 0 -82 11zM653 571q0 128 -51 196.5t-147 68.5q-164 0 -164 -218q0 -46 3 -80t14.5 -73t31 -64t55.5 -42t86 -17q32 0 59.5 9.5t54.5 33t42.5 71t15.5 115.5z" />
    <glyph glyph-name="h" unicode="h" horiz-adv-x="1089" 
d="M342 586v-336q0 -45 1.5 -72.5t7.5 -49.5t12.5 -32.5t23 -18t32 -10t45.5 -4.5q9 -9 9 -33.5t-9 -33.5q-172 4 -202 4q-57 0 -225 -4q-9 9 -9 33.5t9 33.5q34 2 52 4.5t37.5 10t27.5 18.5t15 32t9 49.5t2 72.5v895q0 35 -2 59.5t-4 43t-10 29.5l-13.5 18t-21.5 10.5
t-26.5 4.5t-34.5 2q-12 1 -19 1q-9 9 -12 28.5t0 32.5q62 5 155.5 23t131.5 33q26 0 26 -21q-8 -82 -8 -215l-2 -461q0 -25 17 -4q2 3 3 4q86 96 167 131t169 35q117 0 170 -70q33 -43 44.5 -109.5t11.5 -164.5v-305q0 -37 2 -62.5t5 -46t11 -32.5t16.5 -20.5t25.5 -13.5
t33 -7.5t44 -4.5q7 -9 7 -33.5t-7 -33.5q-176 4 -217 4q-37 0 -209 -4q-7 9 -7 33.5t7 33.5q45 4 65.5 9.5t37 25t20.5 53.5t4 99v311q0 107 -25 158q-18 35 -47 54.5t-61 19.5q-126 0 -250 -121q-35 -39 -35 -86z" />
    <glyph glyph-name="i" unicode="i" horiz-adv-x="555" 
d="M371 250q0 -44 1.5 -72t9 -50t15.5 -32.5t27.5 -18t38.5 -10t55 -4.5q9 -9 9 -33.5t-9 -33.5q-176 4 -227 4q-58 0 -230 -4q-9 9 -9 33.5t9 33.5q37 3 55 5.5t38.5 10t28 18t15.5 32t9.5 49.5t1.5 72v399q0 46 -4.5 70t-21 39.5t-39 20.5t-68.5 9q-3 10 -5 29t1 29
q194 25 280 59q27 0 27 -14q-8 -131 -8 -233v-408zM184 1227q0 36 35 67t72 31q40 0 69 -33.5t29 -72.5q0 -34 -32.5 -66.5t-73.5 -32.5q-37 0 -68 33.5t-31 73.5z" />
    <glyph glyph-name="j" unicode="j" horiz-adv-x="557" 
d="M231 649q0 46 -4.5 70t-21 39.5t-39 20.5t-68.5 9q-3 10 -5 29t1 29q197 25 281 59q26 0 26 -14q-8 -132 -8 -234v-432q0 -188 -19 -313.5t-51 -191.5t-83 -107q-84 -70 -226 -70q-36 0 -74 24t-38 64q0 26 23 52t42 26q11 0 21.5 -3t17.5 -6t16 -10t12.5 -11t12 -12.5
l10.5 -10.5q23 -23 64 -23q25 0 43.5 19t30.5 57.5t19.5 82.5t11 109.5t4.5 121t1 133.5v493zM203 1227q0 36 34.5 67t71.5 31q40 0 69.5 -34t29.5 -72q0 -34 -33 -66.5t-74 -32.5q-37 0 -67.5 33.5t-30.5 73.5z" />
    <glyph glyph-name="k" unicode="k" horiz-adv-x="987" 
d="M176 250v895q0 35 -2 59.5t-4 43t-10 29.5l-13.5 18t-21.5 10.5t-26.5 4.5t-34.5 2q-12 1 -19 1q-9 9 -12 28.5t0 32.5q61 4 154.5 22.5t131.5 33.5q27 0 27 -21q-8 -82 -8 -215v-708q80 24 264 225q12 12 21 25.5t15 32t-12 31.5t-61 15q-9 9 -9 34t9 34q152 -4 189 -4
q26 0 178 4q9 -9 9 -34t-9 -34q-77 -3 -128.5 -23t-96.5 -67l-156 -172q-8 -8 -8 -21q0 -15 10 -28l240 -354q32 -47 71.5 -63.5t104.5 -23.5q9 -9 9 -33.5t-9 -33.5q-122 4 -168 4q-60 0 -142 -4q-8 0 -8 10v33q0 43 -47 111l-149 210q-29 43 -54 58t-63 16v-184
q0 -52 3.5 -84t9 -52.5t20.5 -30.5t29.5 -13.5t43.5 -6.5q9 -9 9 -33.5t-9 -33.5q-176 4 -186 4q-47 0 -219 -4q-9 9 -9 33.5t9 33.5q33 2 50.5 4.5t35.5 10t26 18t15 32t8.5 50t1.5 72.5z" />
    <glyph glyph-name="l" unicode="l" horiz-adv-x="540" 
d="M195 250v895q0 41 -1.5 68t-8.5 46t-12.5 28.5t-22 15t-28.5 7t-40 2.5q-12 1 -19 1q-9 9 -12 28.5t0 32.5q62 5 155.5 23t131.5 33q27 0 27 -21q-9 -82 -9 -215v-944q0 -66 4.5 -100.5t23.5 -54.5t43 -24.5t77 -7.5q9 -9 9 -33.5t-9 -33.5q-176 4 -228 4q-57 0 -229 -4
q-9 9 -9 33.5t9 33.5q53 3 77 7.5t43 24.5t23.5 54.5t4.5 100.5z" />
    <glyph glyph-name="m" unicode="m" horiz-adv-x="1597" 
d="M389 672q-35 -39 -35 -86v-336q0 -65 3.5 -99t19.5 -53.5t36 -25t64 -9.5q9 -9 9 -33.5t-9 -33.5q-172 4 -203 4q-53 0 -221 -4q-9 9 -9 33.5t9 33.5q48 3 70.5 8.5t41 25t23.5 54.5t5 99v399q0 46 -4.5 70.5t-21.5 39.5t-39 20t-69 9q-3 10 -5 29t1 29q198 25 283 59
q24 0 24 -16q-9 -95 -9 -156q0 -8 1.5 -12t4 -2.5t4.5 3t5.5 6t4.5 5.5q79 81 148 123.5t151 42.5q78 0 134 -42.5t71 -107.5q5 -21 22 -1q143 151 326 151q65 0 109 -24.5t66.5 -71.5t31 -101t8.5 -129v-323q0 -44 1.5 -71.5t7.5 -49.5t13.5 -32.5t24.5 -18.5t34.5 -10.5
t49.5 -4.5q7 -9 7 -33.5t-7 -33.5q-176 4 -211 4q-37 0 -209 -4q-7 9 -7 33.5t7 33.5q59 4 82 15.5t34 48.5t11 123v360q0 98 -32.5 140.5t-94.5 42.5q-66 0 -127.5 -29.5t-130.5 -106.5q2 -25 2 -82v-325q0 -53 3.5 -84t9.5 -52t22 -30.5t33.5 -13.5t52.5 -7q8 -9 8 -33.5
t-8 -33.5q-176 4 -201 4q-37 0 -209 -4q-8 9 -8 33.5t8 33.5q38 3 56.5 7t35.5 13.5t23 31t9 52t3 83.5v356q0 187 -135 187q-85 0 -209 -121z" />
    <glyph glyph-name="n" unicode="n" horiz-adv-x="1097" 
d="M377 733q87 97 162.5 131.5t160.5 34.5q116 0 170 -70q56 -75 56 -274v-305q0 -37 2 -62.5t5 -46t11 -32.5t16.5 -20.5t25.5 -13.5t33 -7.5t44 -4.5q7 -9 7 -33.5t-7 -33.5q-176 4 -217 4q-37 0 -209 -4q-7 9 -7 33.5t7 33.5q45 4 65.5 9.5t37 25t20.5 53.5t4 99v311
q0 107 -25 158q-18 35 -47.5 54.5t-60.5 19.5q-114 0 -238 -121q-35 -39 -35 -86v-336q0 -65 3.5 -99t19.5 -53.5t36 -25t64 -9.5q9 -9 9 -33.5t-9 -33.5q-172 4 -202 4q-58 0 -226 -4q-9 9 -9 33.5t9 33.5q35 3 53.5 5.5t38 10t27 18.5t15 32.5t9 49t1.5 71.5v399
q0 46 -4.5 70.5t-21.5 39.5t-39 20t-69 9q-3 10 -5 29t1 29q200 26 283 59q25 0 25 -16q-11 -95 -11 -156q0 -28 21 0z" />
    <glyph glyph-name="o" unicode="o" horiz-adv-x="1032" 
d="M496 831q-82 0 -137 -55.5t-77 -134.5t-22 -174q0 -50 9.5 -104.5t32 -111.5t55 -102t83 -73.5t111.5 -28.5q32 0 60.5 7.5t58.5 29.5t52 57t36 94.5t14 137.5q0 224 -71.5 341t-204.5 117zM84 420q0 132 50 239.5t150 173.5t234 66q92 0 166 -27.5t122.5 -73t81 -106.5
t46.5 -124t14 -130q0 -63 -15.5 -126t-50 -123.5t-83.5 -106.5t-123 -74t-162 -28q-104 0 -188.5 39t-135.5 103t-78.5 140.5t-27.5 157.5z" />
    <glyph glyph-name="p" unicode="p" horiz-adv-x="1062" 
d="M342 754q67 68 144 106.5t137 38.5q101 0 185.5 -59t130.5 -155t46 -204q0 -239 -151 -387q-120 -114 -302 -114q-100 0 -178 31q-16 8 -22 6t-6 -21v-221q0 -45 2 -72.5t10 -49.5t17 -32.5t31.5 -18t44 -10t63.5 -4.5q9 -9 9 -33.5t-9 -33.5q-176 4 -248 4
q-58 0 -230 -4q-9 9 -9 33.5t9 33.5q53 3 77 7.5t43 24.5t23.5 54.5t4.5 100.5v874q0 46 -4.5 70t-21 39.5t-39 20.5t-68.5 9q-3 10 -5 29t1 29q190 24 276 59q27 0 27 -14q-8 -57 -8 -131q0 -7 4 -9.5t8.5 -1.5t7.5 5zM358 686q-19 -20 -25.5 -38.5t-6.5 -51.5v-381
q0 -54 8.5 -74t40.5 -49q25 -22 67.5 -32.5t77.5 -10.5q82 0 141 34.5t90 92t44.5 119.5t13.5 131q0 169 -71.5 274t-172.5 105q-43 0 -100 -33.5t-107 -85.5z" />
    <glyph glyph-name="q" unicode="q" horiz-adv-x="1030" 
d="M709 -227v227q0 31 -10.5 32t-45.5 -21q-54 -31 -157 -31q-85 0 -157 28t-120 73.5t-82 104t-49.5 119t-15.5 119.5q0 203 123.5 339t310.5 136q138 0 231 -60q19 -11 29 -6.5t31 33.5q29 39 43 39q30 0 30 -51v-1081q0 -53 4 -84t11.5 -52t27.5 -30.5t41 -13t64 -5.5
q9 -9 9 -33.5t-9 -33.5q-176 4 -227 4q-58 0 -230 -4q-9 9 -9 33.5t9 33.5q43 2 64 5.5t41 13t27.5 30.5t11.5 52t4 84zM659 754q-67 75 -161 75q-120 0 -185 -99.5t-65 -264.5q0 -89 19.5 -159.5t50.5 -113.5t71.5 -71.5t79 -39.5t76.5 -11q83 0 135 27q19 10 24 21t5 40
v471q0 38 -10 65t-40 60z" />
    <glyph glyph-name="r" unicode="r" horiz-adv-x="761" 
d="M205 649q0 83 -24 107t-109 32q-6 8 -6.5 29t2.5 29q196 25 280 59q27 0 27 -14q-10 -98 -10 -164q0 -11 6 -12q5 0 12 14q41 70 101 120t126 50q59 0 91 -31.5t32 -66.5q0 -39 -29.5 -71t-66.5 -32q-19 0 -33 8q-15 8 -33 30l-18 22q-14 14 -43 14q-24 0 -94 -100
q-49 -73 -49 -137v-285q0 -44 2 -72t10.5 -49.5t17.5 -32t31.5 -18t43.5 -10t63 -5.5q9 -9 9 -33.5t-9 -33.5q-176 4 -248 4q-62 0 -234 -4q-9 9 -9 33.5t9 33.5q54 3 78.5 8t44 25t24.5 54t5 100v399z" />
    <glyph glyph-name="s" unicode="s" horiz-adv-x="784" 
d="M98 283q9 9 32 10t32 -8q10 -44 15.5 -65t24 -62t40.5 -62q43 -49 145 -49q66 0 120 37t54 106q0 67 -42 108t-167 93q-124 52 -174.5 111t-50.5 168q0 96 86.5 162.5t202.5 66.5q47 0 97 -7t103 -18.5t68 -13.5q-1 -27 -6.5 -101.5t-5.5 -115.5q-9 -9 -33 -10t-33 8
q-8 49 -26.5 86t-39 56t-46.5 30.5t-43.5 14.5t-34.5 3q-57 0 -100.5 -35.5t-43.5 -95.5q0 -24 5.5 -44t12.5 -34.5t24.5 -29t29.5 -23t39.5 -21t42.5 -18.5l51 -20q114 -43 177 -108t63 -164q0 -58 -23 -104.5t-58.5 -74.5t-80.5 -46.5t-85.5 -25.5t-78.5 -7
q-100 0 -186 22q-14 4 -41 4q-21 0 -51 -6q0 95 -15 283z" />
    <glyph glyph-name="t" unicode="t" horiz-adv-x="647" 
d="M88 879h94q0 188 -4 235q0 6 3.5 10.5t13 9t12.5 6.5l119 54q26 0 26 -20q-8 -83 -8 -216v-79h246q16 0 16 -13v-41q0 -12 -15.5 -19t-33.5 -7h-213v-518q0 -101 14.5 -145t53.5 -44q93 0 168 58q30 -3 36 -35q-59 -66 -131.5 -100.5t-144.5 -34.5q-158 0 -158 202v617
h-121q-10 0 -10 12v27q0 15 9 28t28 13z" />
    <glyph glyph-name="u" unicode="u" horiz-adv-x="1075" 
d="M444 -20q-59 0 -105 15.5t-75.5 41.5t-48.5 62.5t-27 75.5t-8 83v393q0 97 -25.5 127.5t-101.5 36.5q-9 9 -9 34t9 34q152 -4 209 -4q52 0 72 4q16 0 16 -13q-8 -150 -8 -211v-372q0 -64 16.5 -109t43.5 -65.5t52 -28.5t52 -8q79 0 192 98q21 18 27 33.5t6 46.5v395
q0 99 -25 130t-102 36q-9 9 -9 34t9 34q152 -4 209 -4q52 0 72 4q16 0 16 -13q-8 -150 -8 -211v-393q0 -80 27.5 -111t121.5 -38q9 -9 9 -28t-9 -28q-172 -19 -247 -81q-21 -7 -39 0q-23 72 -23 120q0 7 -4 9t-9.5 0t-10.5 -6q-151 -123 -265 -123z" />
    <glyph glyph-name="v" unicode="v" horiz-adv-x="1017" 
d="M666 815q-9 9 -9 34t9 34q152 -4 196 -4q45 0 135 4q9 -9 9 -34t-9 -34q-42 -4 -69.5 -14t-47.5 -33t-30 -42.5t-28 -61.5l-273 -641q-21 -48 -49 -48q-20 0 -31 9.5t-20 33.5l-262 648q-32 80 -45 98q-26 36 -91 47q-13 2 -28 4q-9 9 -9 34t9 34q152 -4 180 -4
q65 0 217 4q9 -9 9 -34t-9 -34q-19 -2 -33.5 -4.5l-25.5 -4.5t-17.5 -7t-11.5 -8.5t-5.5 -12t-0.5 -13t4 -17t6.5 -19.5l9 -24l10.5 -27l148 -395q17 -45 27.5 -58t21 -2t27.5 53l165 402q33 78 18 104.5t-97 32.5z" />
    <glyph glyph-name="w" unicode="w" horiz-adv-x="1529" 
d="M416 815q-71 -4 -82 -33.5t20 -103.5l164 -422q20 -50 28 -49t29 53l144 363l-13 32q-34 84 -49 105q-35 49 -108 55q-9 9 -9 34t9 34q152 -4 180 -4q53 0 205 4q9 -9 9 -34t-9 -34q-80 -6 -92.5 -29.5t17.5 -95.5l177 -448q4 -9 6.5 -15.5t5 -11.5t4.5 -7l3.5 -3.5
t3.5 0.5t3.5 3t4 7t4 9t5 12l5.5 14l172 426q11 27 15.5 42t4.5 35t-12 31t-39.5 20t-72.5 11q-9 9 -9 34t9 34q152 -4 213 -4q41 0 143 4q9 -9 9 -34t-9 -34q-72 -4 -107.5 -39.5t-65.5 -107.5l-267 -650q-17 -43 -47 -43q-32 0 -49 41l-211 508l-207 -504q-19 -45 -49 -45
q-32 0 -49 41l-268 662q-32 80 -61 105t-101 32q-9 9 -9 34t9 34q108 -4 180 -4q61 0 213 4q9 -9 9 -34t-9 -34z" />
    <glyph glyph-name="x" unicode="x" horiz-adv-x="1003" 
d="M373 733l125 -184q9 -13 17.5 -15.5t12 1t9.5 10.5l133 186q10 14 16 24.5t7 18.5t2.5 13.5t-5.5 10t-9.5 6.5t-16.5 4.5t-19 3t-24 3.5q-9 9 -9 34t9 34q152 -4 172 -4q47 0 149 4q9 -9 9 -34t-9 -34q-64 -5 -105 -25.5t-94 -87.5l-172 -219q-10 -15 0 -30l185 -260
q30 -43 56 -69.5t51.5 -38.5t41 -15t45.5 -6q7 -1 11 -1q9 -9 9 -33.5t-9 -33.5q-152 4 -173 4q-61 0 -213 -4q-9 9 -9 33.5t9 33.5l18.5 3t17 2.5t13.5 3t11 4.5l6.5 6.5t3 9.5t-2.5 12.5t-7 17l-14 22l-19 28.5l-119 164q-9 11 -14.5 13t-10 -1.5t-12.5 -15.5l-129 -187
q-16 -23 -19.5 -38t6 -23.5t22 -13t36.5 -7.5q9 -9 9 -33.5t-9 -33.5q-152 4 -172 4q-33 0 -51.5 -0.5t-42.5 -1.5t-53 -2q-9 9 -9 33.5t9 33.5q29 2 41 3t34.5 7t38 17.5t38 33t47.5 54.5l172 221q10 12 -2 31l-179 260q-80 116 -184 125q-9 9 -9 34t9 34q152 -4 176 -4
q55 0 207 4q9 -9 9 -34t-9 -34q-10 -1 -27 -3t-22.5 -3t-16 -3.5t-12.5 -4t-6 -6t-2.5 -9.5t4.5 -13t8.5 -17z" />
    <glyph glyph-name="y" unicode="y" horiz-adv-x="1062" 
d="M426 -328q-83 -147 -199 -147q-41 0 -68.5 22t-27.5 54q0 26 25 57t65 31q11 0 28 -3t32 -3q38 0 61 14t41 45q48 98 80 188q13 38 1.5 94t-30.5 99l-231 539q-42 97 -68.5 122t-93.5 31q-9 9 -9 34t9 34q82 -4 166 -4q79 0 231 4q9 -9 9 -34t-9 -34q-45 -4 -67.5 -11.5
t-26 -24.5t1.5 -34t20 -52q3 -7 5 -11l182 -426q25 -59 49 -2l203 469q8 18 8.5 32t-5.5 23.5t-15 16t-24.5 10.5t-29 6t-32.5 4q-9 9 -9 34t9 34q152 -4 186 -4q43 0 145 4q9 -9 9 -34t-9 -34q-53 -4 -97 -42.5t-69 -88.5q-104 -219 -362 -836q-40 -98 -84 -176z" />
    <glyph glyph-name="z" unicode="z" horiz-adv-x="868" 
d="M125 905q8 -2 34.5 -14t65.5 -12h416q26 0 57.5 3.5t53 7t24.5 3.5q25 0 25 -14q0 -18 -45 -86l-492 -723h273q44 0 74.5 9t53.5 32.5t38 49t36 72.5l27 60q38 0 61 -14q-45 -153 -65 -279h-639q-47 0 -47 25q0 13 18 41l504 743h-283q-112 0 -165 -193q-36 -7 -68 7
q29 182 31 270q0 4 4 8t8 4z" />
    <glyph glyph-name="braceleft" unicode="{" horiz-adv-x="567" 
d="M365 1151v-360q0 -93 -14.5 -148t-42.5 -84.5t-81 -52.5q85 -36 111.5 -103.5t26.5 -207.5v-326q0 -113 38.5 -183.5t104.5 -70.5q9 -9 9 -24.5t-9 -24.5q-110 2 -170 29.5t-90.5 100t-30.5 204.5v348q0 100 -34 161t-113 80v31q147 42 147 238v377q0 118 30.5 185t92 96
t168.5 32q9 -9 9 -24.5t-9 -24.5q-34 -10 -56 -23t-44 -39t-32.5 -72.5t-10.5 -113.5z" />
    <glyph glyph-name="bar" unicode="|" horiz-adv-x="419" 
d="M256 -475h-90v1905h90v-1905z" />
    <glyph glyph-name="braceright" unicode="}" horiz-adv-x="567" 
d="M195 -139v360q0 135 29.5 193.5t107.5 91.5q-85 36 -111 103.5t-26 207.5v326q0 112 -39 183t-105 71q-9 9 -9 24.5t9 24.5q110 -2 170 -29.5t90.5 -100t30.5 -204.5v-348q0 -100 34 -161.5t113 -80.5v-30q-147 -42 -147 -238v-377q0 -118 -30.5 -185t-92 -96t-168.5 -32
q-9 9 -9 24.5t9 24.5q34 10 56.5 23t44 39t32.5 72.5t11 113.5z" />
    <glyph glyph-name="asciitilde" unicode="~" horiz-adv-x="919" 
d="M53 428q21 104 96 183t166 79q66 0 154 -65q91 -68 147 -68q32 0 68 12t75 44.5t60 80.5q25 0 35 -12q-22 -77 -57 -130t-72.5 -76t-65 -31.5t-51.5 -8.5q-65 0 -155 68q-88 65 -150 65q-56 0 -118.5 -41.5t-96.5 -107.5q-19 0 -35 8z" />
    <glyph glyph-name="uni00A0" unicode="&#xa0;" horiz-adv-x="512" 
 />
    <glyph glyph-name="exclamdown" unicode="&#xa1;" horiz-adv-x="589" 
d="M403 791q0 -44 -32 -76.5t-76 -32.5t-76.5 32.5t-32.5 76.5t32.5 76t76.5 32t76 -32t32 -76zM295 -469q-43 0 -76 37t-33 113q0 59 7.5 115.5t21 135t21.5 144.5q11 97 18 183.5t9 134t3 55.5q3 40 29 40q25 0 29 -26l6 -78.5l12 -152t14 -156.5q7 -66 27 -190t20 -205
q0 -76 -32.5 -113t-75.5 -37z" />
    <glyph glyph-name="cent" unicode="&#xa2;" horiz-adv-x="901" 
d="M451 281v648q-72 -23 -115.5 -106.5t-43.5 -210.5q0 -121 44 -208t115 -123zM451 1184h69v-186q127 -1 200.5 -50t73.5 -126q0 -39 -28.5 -60t-62.5 -21q-62 0 -70 67q-3 28 -8 45.5t-16 37.5t-33.5 31t-55.5 14v-675q6 -1 19 -1q126 0 221 122q30 -3 39 -26
q-61 -100 -128.5 -141t-150.5 -45v-195h-69v197q-150 16 -233.5 124t-83.5 276q0 166 93.5 280t223.5 140v192z" />
    <glyph glyph-name="sterling" unicode="&#xa3;" horiz-adv-x="901" 
d="M143 578q-7 0 -9.5 2t-2.5 10v26q0 15 11.5 28t35.5 13h88v39q0 120 38 207.5t120 167.5q110 113 258 113q27 0 60.5 -8t64.5 -31t31 -55q0 -36 -22 -58t-58 -22q-14 0 -27 6t-20 11.5t-23 19.5q-51 45 -96 45q-68 0 -115 -86t-47 -211v-138h242q14 0 14 -12v-43
q0 -11 -15 -17.5t-32 -6.5h-209q-2 -270 -145 -402q81 0 137 -14t79.5 -31t57.5 -31t78 -14q140 0 201 84q23 -1 34 -20q-36 -78 -106.5 -124t-163.5 -46q-58 0 -103.5 18t-71 39t-70 39t-101.5 18q-78 0 -78 -47q0 -32 -22 -49.5t-56 -17.5q-28 0 -48.5 15t-20.5 38
q0 25 25.5 47.5t72.5 48.5q80 58 108.5 161.5t28.5 254.5v33h-123z" />
    <glyph glyph-name="currency" unicode="&#xa4;" horiz-adv-x="901" 
d="M449 231q-122 0 -222 74l-88 -108l-84 82l111 88q-80 95 -80 223q0 133 80 225l-107 84l76 82l94 -104q99 71 220 71q125 0 223 -76l94 113l80 -84l-113 -90q78 -93 78 -221q0 -121 -76 -219l107 -90l-74 -78l-94 104q-101 -76 -225 -76zM209 592q0 -115 67 -195t173 -80
q104 0 170.5 80.5t66.5 192.5q0 115 -68.5 193.5t-164.5 78.5q-105 0 -174.5 -79.5t-69.5 -190.5z" />
    <glyph glyph-name="yen" unicode="&#xa5;" horiz-adv-x="901" 
d="M371 250q0 -44 -3 -72.5t-13 -50t-21.5 -32.5t-37.5 -18.5t-51.5 -9.5t-72.5 -4q-9 -9 -9 -33.5t9 -33.5q200 4 283 4q74 0 278 -4q9 9 9 33.5t-9 33.5q-47 2 -72.5 4t-51.5 9.5t-37.5 18.5t-21.5 32.5t-12.5 50t-2.5 72.5v10h237q17 0 32 7.5t15 19.5v41q0 12 -14 12
h-270v129h237q17 0 32 7.5t15 19.5v43q0 12 -14 12h-250l177 393l27.5 61t21.5 39.5t20 28.5t23.5 13.5t31.5 9.5t43 4q9 9 11 33.5t-7 33.5q-122 -4 -129 -4q-31 0 -153 4q-9 -9 -9 -33.5t9 -33.5q60 -5 70 -18q11 -15 -16 -77l-26 -61l-149 -342h-4l-207 428
q-12 26 -15.5 40t6 20.5t22.5 8t44 1.5q9 9 9 33.5t-9 33.5q-122 -4 -172 -4q-52 0 -174 4q-9 -9 -9 -33.5t9 -33.5q57 -6 92.5 -36t63.5 -89l206 -424h-231q-24 0 -34.5 -13t-10.5 -28v-29q4 -11 10 -12h275v-129h-240q-24 0 -34.5 -13t-10.5 -28v-27v-6t1 -3.5t3 -2
t6 -0.5h275v-10z" />
    <glyph glyph-name="brokenbar" unicode="&#xa6;" horiz-adv-x="432" 
d="M266 330v-742h-100v742h100zM266 1380v-741h-100v741h100z" />
    <glyph glyph-name="section" unicode="&#xa7;" horiz-adv-x="968" 
d="M669 184q87 78 87 166q0 141 -126 244q-47 38 -175 113q-103 61 -155 104q-44 -39 -65.5 -77.5t-21.5 -88.5q0 -52 16.5 -97.5t42 -78.5t64.5 -64.5t76 -55t84 -50.5q12 -7 18 -10q99 -59 155 -105zM256 850q-52 52 -72 105t-20 122q0 52 20.5 99.5t59.5 86.5t101 62
t138 23q135 0 210 -67.5t75 -139.5q0 -78 -74 -78q-62 0 -84 84q-17 67 -47.5 102t-91.5 35q-72 0 -119 -47.5t-47 -118.5q0 -73 44.5 -132t142.5 -112q14 -8 48 -25.5t52 -27.5l49.5 -28.5t50 -32.5l45.5 -36t43 -41.5t34.5 -46.5t28.5 -54.5t16.5 -61.5t6.5 -71
q0 -180 -153 -304q52 -52 72 -105t20 -122q0 -109 -85 -189.5t-235 -80.5q-71 0 -128 21t-89.5 53t-49.5 66.5t-17 66.5q0 77 73 77q62 0 84 -84q17 -66 48 -101.5t92 -35.5q72 0 119 47.5t47 118.5q0 73 -44.5 132t-142.5 112q-14 8 -48 25.5t-52 27.5l-50 29t-50.5 32.5
t-45.5 35.5t-43 41.5t-34.5 47t-28 55t-16.5 61.5t-7 71q0 178 154 303z" />
    <glyph glyph-name="dieresis" unicode="&#xa8;" horiz-adv-x="776" 
d="M449 1178q0 40 28 69t68 29t68 -29t28 -69t-28 -68.5t-68 -28.5t-68 28.5t-28 68.5zM102 1178q0 40 28.5 69t68.5 29t68 -29t28 -69t-28 -68.5t-68 -28.5t-68.5 28.5t-28.5 68.5z" />
    <glyph glyph-name="copyright" unicode="&#xa9;" horiz-adv-x="1314" 
d="M657 1139q-141 0 -257 -68t-182 -185.5t-66 -258.5q0 -140 66 -258t182 -187t257 -69q139 0 255.5 68.5t183.5 187t67 258.5q0 214 -146.5 363t-359.5 149zM657 47q-158 0 -293.5 78.5t-214.5 212t-79 289.5q0 117 47 224t126.5 184.5t187.5 123t226 45.5
q157 0 292.5 -77t215.5 -210.5t80 -289.5q0 -157 -80 -290.5t-215.5 -211.5t-292.5 -78zM899 442q-35 -53 -99 -92t-143 -39q-134 0 -226.5 90.5t-92.5 214.5q0 130 95 225t229 95q63 0 104.5 -6.5t65.5 -15t36 -9.5q24 -75 21 -160q-13 -8 -41 -8q-29 78 -71 115t-124 37
q-34 0 -64.5 -11.5t-59.5 -38.5t-46.5 -78.5t-17.5 -123.5q0 -117 55 -191.5t156 -74.5q113 0 184 102q20 -6 39 -31z" />
    <glyph glyph-name="ordfeminine" unicode="&#xaa;" horiz-adv-x="628" 
d="M481 733q-35 0 -58 24.5t-28 55.5q-54 -47 -89 -63.5t-85 -16.5q-66 0 -112 40t-46 104q0 122 211 176l119 30q0 55 -10 91t-28 52t-34.5 21.5t-37.5 5.5q-51 0 -81 -15t-30 -40q0 -19 4 -27t4 -24q0 -15 -13.5 -29t-39.5 -14q-23 0 -38 14t-15 37q0 58 71.5 104
t141.5 46q42 0 77 -10t68.5 -34t52.5 -72.5t19 -117.5v-153q0 -117 28 -117q15 0 25 10q22 -9 21 -33q-15 -17 -42.5 -31t-54.5 -14zM393 1028q-128 -33 -175.5 -65t-47.5 -80q0 -36 21.5 -60t70.5 -24q31 0 60.5 15.5t70.5 51.5v162z" />
    <glyph glyph-name="guillemotleft" unicode="&#xab;" horiz-adv-x="950" 
d="M588 440q119 -116 268 -344l-51 -49q-104 125 -174.5 199t-159.5 145q-27 23 -41 33v33l41 32q89 71 159 144.5t175 200.5l51 -50q-149 -228 -268 -344zM252 440q119 -116 268 -344l-51 -49q-104 125 -174.5 199t-159.5 145q-27 23 -41 33v33l41 32q89 71 159 144.5
t175 200.5l51 -50q-149 -228 -268 -344z" />
    <glyph glyph-name="logicalnot" unicode="&#xac;" horiz-adv-x="1226" 
d="M1022 203v459h-940q-15 50 0 90h1051v-549q-61 -23 -111 0z" />
    <glyph glyph-name="uni00AD" unicode="&#xad;" horiz-adv-x="692" 
d="M555 457h-442q-13 0 -22 12t-9 27q0 28 16.5 56t34.5 28h449q28 0 28 -41q0 -21 -18 -51.5t-37 -30.5z" />
    <glyph glyph-name="registered" unicode="&#xae;" horiz-adv-x="1314" 
d="M657 1139q-141 0 -257 -68t-182 -185.5t-66 -258.5q0 -140 66 -258t182 -187t257 -69q139 0 255.5 68.5t183.5 187t67 258.5q0 214 -146.5 363t-359.5 149zM657 47q-158 0 -293.5 78.5t-214.5 212t-79 289.5q0 117 47 224t126.5 184.5t187.5 123t226 45.5
q157 0 292.5 -77t215.5 -210.5t80 -289.5q0 -157 -80 -290.5t-215.5 -211.5t-292.5 -78zM539 907q15 0 70 2t77 2q55 0 95 -15t60.5 -39t30 -49t9.5 -50q0 -57 -33 -96.5t-84 -55.5l98 -168q35 -59 88 -49q12 -12 8 -35q-35 -14 -73 -14q-79 0 -125 78l-98 164q-11 8 -76 8
v-115q0 -49 15.5 -64t66.5 -20q6 -6 6 -24.5t-6 -24.5q-74 4 -129 4q-57 0 -131 -4q-6 6 -6 24.5t6 24.5q50 5 65.5 20t15.5 64v303q0 49 -15.5 64t-65.5 20q-6 6 -6 24.5t6 24.5q74 -4 131 -4zM770 758q0 104 -102 104q-37 0 -59.5 -20t-22.5 -49v-154h86q49 0 73.5 26
t24.5 93z" />
    <glyph glyph-name="macron" unicode="&#xaf;" horiz-adv-x="813" 
d="M645 1083h-500q-24 0 -24 31q0 20 13.5 40t31.5 20h500q14 0 21 -9t7 -20q0 -20 -15 -41t-34 -21z" />
    <glyph glyph-name="degree" unicode="&#xb0;" horiz-adv-x="546" 
d="M70 1075q0 86 59.5 146.5t144.5 60.5t144 -60.5t59 -146.5q0 -85 -59 -145t-144 -60t-144.5 60t-59.5 145zM408 1073q0 57 -35 102.5t-99 45.5q-63 0 -99 -44t-36 -104q0 -57 36.5 -99t98.5 -42q60 0 97 42.5t37 98.5z" />
    <glyph glyph-name="plusminus" unicode="&#xb1;" horiz-adv-x="1079" 
d="M944 139v-100h-809v100h809zM592 700h352v-100h-352v-356h-105v356h-352v100h352v357h105v-357z" />
    <glyph glyph-name="two.superior" unicode="&#xb2;" horiz-adv-x="628" 
d="M150 1202q-20 0 -37 14.5t-17 34.5q0 52 55.5 105t163.5 53q41 0 78 -8.5t70.5 -27t53.5 -53t20 -81.5q0 -66 -44.5 -121.5t-138.5 -122.5q-61 -43 -90.5 -86t-44.5 -98h170q15 0 28 5t25 19l19 22t17.5 31.5t12.5 28.5l13 31q33 2 49 -10q-14 -111 -39 -193h-422
q0 125 176 261q41 33 62 53t42.5 48t29.5 58.5t8 71.5q0 63 -32 87t-71 24q-81 0 -98 -43q-4 -10 -3.5 -30.5t-0.5 -29.5q-7 -43 -55 -43z" />
    <glyph glyph-name="three.superior" unicode="&#xb3;" horiz-adv-x="628" 
d="M381 1278q0 36 -24 53t-54 17t-63 -13.5t-43 -36.5q-2 -5 -5 -15t-5.5 -16t-8 -13.5t-15 -11t-22.5 -3.5q-18 0 -29.5 8.5t-14.5 16t-3 12.5q0 15 12.5 36t37 43.5t73.5 38t111 15.5q80 0 127 -32t47 -89q0 -80 -105 -139q61 -5 112.5 -52t51.5 -128q0 -105 -80.5 -170.5
t-204.5 -65.5q-23 0 -54 5t-64.5 14.5t-56.5 27.5t-23 41q0 19 15.5 32t35.5 13q44 0 61 -35q10 -19 29 -27.5t66 -8.5q25 0 48.5 6.5t47.5 22.5t38.5 49t14.5 79q0 125 -153 125q-9 0 -41 -4q-16 18 -4 55q68 9 106.5 48.5t38.5 101.5z" />
    <glyph glyph-name="acute" unicode="&#xb4;" horiz-adv-x="698" 
d="M358 1440q12 4 29 4q64 0 113 -47l6 -23l-236 -223q-39 -39 -61 -39q-11 0 -20 8.5t-9 18.5q0 4 0.5 8t1 6.5t2 6.5t2 6t3.5 7t4 6.5l5.5 8t5.5 8.5z" />
    <glyph glyph-name="uni00B5" unicode="&#xb5;" horiz-adv-x="995" 
d="M659 123q-61 -72 -127 -107.5t-155 -35.5q-39 0 -74 13t-53 34q-9 0 -17 -6t-8 -13q0 -72 33 -199t33 -165q0 -60 -23.5 -91.5t-60.5 -31.5q-32 0 -71.5 38.5t-39.5 94.5q0 49 16.5 155.5t16.5 174.5q0 28 -9 126t-9 164v385q0 25 -5.5 80t-10.5 97l-5 43q27 0 90 9
t78 11q6 -131 6 -197v-401q0 -229 142 -229q74 0 147.5 45.5t110.5 101.5v660q29 0 85.5 9.5t67.5 10.5v-651q0 -29 0.5 -46.5t3 -41t7.5 -37t14 -27.5t23.5 -20t33.5 -6q22 0 36 8t21 16t11 8q6 0 14 -10t8 -20q0 -7 -20.5 -28t-62.5 -42.5t-87 -21.5q-42 0 -73 14
t-47.5 37t-24 45t-10.5 47h-5z" />
    <glyph glyph-name="pilcrow" unicode="&#xb6;" horiz-adv-x="1232" 
d="M836 1321q265 0 362 4l4 -4v-39q0 -14 -16 -16l-53 -4q-62 -5 -87.5 -23t-25.5 -63v-1506q0 -45 25.5 -63t87.5 -23l53 -4q16 -2 16 -16v-39l-4 -4q-97 4 -362 4q-263 0 -363 -4l-4 4v39q0 14 14 16l56 4q63 4 86.5 23.5t23.5 62.5v914q-27 -6 -65 -6q-227 0 -347 102
t-120 305q0 63 23.5 122t69 108.5t122.5 79.5t174 30q89 0 202 -2t128 -2zM752 1176v-1506q0 -39 22.5 -58.5t59.5 -19.5q84 0 84 78v1506q0 44 -22 60.5t-62 16.5q-82 0 -82 -77z" />
    <glyph glyph-name="periodcentered" unicode="&#xb7;" horiz-adv-x="512" 
d="M256 418q-43 0 -77 33.5t-34 76.5t34 77t77 34t77 -34t34 -77t-34 -76.5t-77 -33.5z" />
    <glyph glyph-name="cedilla" unicode="&#xb8;" horiz-adv-x="1107" 
d="M618 -197q-52 0 -92 -12l-12 12l82 197h70l-52 -137q24 6 54 6q63 0 104 -35t41 -92q0 -66 -62.5 -109t-156.5 -43q-74 0 -152 35q0 32 21 53q77 -28 119 -28q47 0 75.5 21.5t28.5 60.5q0 71 -68 71z" />
    <glyph glyph-name="one.superior" unicode="&#xb9;" horiz-adv-x="628" 
d="M276 1270q-28 0 -116 -31q-21 16 -21 55q128 47 240 115q23 13 37 0v-489q0 -38 7 -61t24 -34t33.5 -14.5t47.5 -5.5q6 -12 6 -30.5t-6 -29.5q-92 3 -172 3q-104 0 -196 -3q-6 10 -6.5 28.5t6.5 31.5q38 2 58.5 5.5t43.5 14.5t33 34t10 61v266q0 51 -5.5 67.5t-23.5 16.5
z" />
    <glyph glyph-name="ordmasculine" unicode="&#xba;" horiz-adv-x="714" 
d="M350 1106q-73 0 -112 -59t-39 -148q0 -54 17.5 -103t59 -85.5t99.5 -36.5q23 0 46 8.5t46 28t37 57.5t14 90q0 121 -45 184.5t-123 63.5zM80 879q0 126 78 203t209 77q127 0 198.5 -78t71.5 -190q0 -109 -74.5 -189.5t-210.5 -80.5q-114 0 -193 74.5t-79 183.5z" />
    <glyph glyph-name="guillemotright" unicode="&#xbb;" horiz-adv-x="950" 
d="M362 440q-119 116 -268 344l51 50q105 -127 175 -200.5t159 -144.5q27 -22 41 -32v-33l-41 -33q-89 -71 -159.5 -145t-174.5 -199l-51 49q149 228 268 344zM698 440q-119 116 -268 344l51 50q105 -127 175 -200.5t159 -144.5q27 -22 41 -32v-33l-41 -33
q-89 -71 -159.5 -145t-174.5 -199l-51 49q149 228 268 344z" />
    <glyph glyph-name="onequarter" unicode="&#xbc;" horiz-adv-x="1351" 
d="M270 1169q-31 0 -116 -30q-21 16 -21 55q128 47 240 115q23 13 37 0v-490q0 -38 7 -61t24 -34t33 -14t48 -5q6 -12 6 -30.5t-6 -29.5q-61 2 -172 2q-135 0 -196 -2q-6 10 -6.5 28.5t6.5 31.5q38 2 58.5 5.5t43.5 14t33 33.5t10 61v266q0 51 -5.5 67.5t-23.5 16.5z
M1081 -12v49h-293l-8 24l316 447l63 -21q-51 -78 -149.5 -215.5t-116.5 -165.5h188v117q0 11 17 37q32 41 53 41q29 0 29 -20v-175h114l-12 -69h-102v-49q0 -58 22.5 -74.5t81.5 -19.5q6 -12 6 -31t-6 -29q-61 2 -156 2q-94 0 -155 -2q-6 10 -6.5 28.5t6.5 31.5
q66 3 87 18.5t21 75.5zM1141 1231l84 -17l-938 -1341l-86 16z" />
    <glyph glyph-name="onehalf" unicode="&#xbd;" horiz-adv-x="1351" 
d="M274 1169q-31 0 -116 -30q-21 16 -21 55q128 47 240 115q23 13 37 0v-490q0 -38 7 -61t24 -34t33 -14t48 -5q6 -12 6 -30.5t-6 -29.5q-61 2 -172 2q-135 0 -196 -2q-6 10 -6.5 28.5t6.5 31.5q38 2 58.5 5.5t43.5 14t33 33.5t10 61v266q0 51 -5.5 67.5t-23.5 16.5z
M883 295q-20 0 -37 14.5t-17 34.5q0 52 56 105t164 53q57 0 103.5 -14t82 -54t35.5 -102q0 -66 -44.5 -121.5t-138.5 -122.5q-61 -43 -90.5 -86t-44.5 -98h170q15 0 28 5t25 19l19 22t17.5 31.5t12.5 28.5l13 31q33 2 49 -10q-14 -111 -39 -193h-422q0 124 176 260
q79 63 110.5 109t31.5 123q0 34 -10.5 57.5t-27.5 34t-32.5 14.5t-32.5 4q-81 0 -98 -43q-4 -10 -3.5 -30t-0.5 -29q-7 -43 -55 -43zM1090 1231l86 -17l-940 -1341l-84 16z" />
    <glyph glyph-name="threequarters" unicode="&#xbe;" horiz-adv-x="1351" 
d="M1090 -8v49h-293l-9 25l316 446l63 -20q-51 -78 -149.5 -215.5t-116.5 -165.5h189v116q0 13 16 37q32 41 53 41q29 0 29 -20v-174h115l-13 -70h-102v-49q0 -58 22.5 -74.5t81.5 -19.5q6 -12 6 -31t-6 -29q-61 2 -155 2q-95 0 -156 -2q-6 10 -6.5 28.5t6.5 31.5
q67 3 88 18.5t21 75.5zM377 1174q0 36 -24 52.5t-54 16.5t-63 -13t-43 -36q-2 -5 -5 -15t-5.5 -16t-8 -13.5t-15 -11t-22.5 -3.5q-18 0 -29.5 8t-14.5 15.5t-3 12.5q0 15 12.5 36t37 44t73.5 38.5t111 15.5q80 0 127 -32t47 -89q0 -81 -105 -140q61 -5 112.5 -52t51.5 -128
q0 -105 -80.5 -170t-204.5 -65q-23 0 -54 4.5t-64.5 14t-56.5 27.5t-23 41q0 20 15.5 33t35.5 13q44 0 61 -35q10 -20 29.5 -28.5t65.5 -8.5q25 0 48.5 6.5t47.5 22.5t38.5 49.5t14.5 79.5q0 125 -154 125q-8 0 -40 -4q-16 19 -5 55q68 9 107 48.5t39 101.5zM1151 1231
l84 -17l-938 -1341l-86 16z" />
    <glyph glyph-name="questiondown" unicode="&#xbf;" horiz-adv-x="890" 
d="M596 791q0 -44 -32.5 -76.5t-76.5 -32.5t-76 32.5t-32 76.5t32 76t76 32t76.5 -32t32.5 -76zM657 -293q0 38 -12 53t-12 50q0 33 24 52t56 19t58 -20t26 -68q0 -100 -105 -184q-93 -80 -254 -80q-156 0 -250 84.5t-94 224.5q0 34 8 66t18.5 56t32 51t36 43.5t43 40
t42 33.5l43.5 32t46 35t34.5 32t26.5 35q29 55 29 150v90q0 20 34 20q33 0 33 -20v-94q0 -40 -4 -73t-17.5 -77.5t-44 -90.5t-77.5 -89q-62 -58 -87.5 -109.5t-25.5 -122.5q0 -103 54.5 -176t140.5 -73q87 0 142.5 32t55.5 78z" />
    <glyph glyph-name="Agrave" unicode="&#xc0;" horiz-adv-x="1423" 
d="M317 162q-6 -15 -6.5 -28t4.5 -22.5t12.5 -16.5t20 -12t24 -8.5t28.5 -6t29.5 -3.5t29.5 -2q9 -9 9 -33.5t-9 -33.5q-152 4 -262 4q-31 0 -183 -4q-9 9 -9 33.5t9 33.5q78 5 123 32t82 114l455 1065q18 42 32.5 58t36.5 16q20 0 31.5 -14.5t24.5 -47.5l420 -1110
q11 -29 26 -49.5t28 -31.5t38 -18t37.5 -8.5t44.5 -4.5q6 -1 10 -1q9 -9 9 -33.5t-9 -33.5q-152 4 -234 4q-116 0 -268 -4q-9 9 -9 33.5t9 33.5q12 1 31.5 2t30.5 2l27 2.5t24.5 4t19 6.5t15 9.5t8 13.5t2.5 19t-6 25l-125 347h-426q-36 0 -50 -7t-22 -28zM539 580h356
l-199 546h-4l-205 -519q-7 -16 5 -21.5t47 -5.5zM582 1675l247 -172q31 -22 31 -43q0 -12 -9.5 -21t-21.5 -9q-31 0 -88 24l-315 129q61 59 156 92z" />
    <glyph glyph-name="Aacute" unicode="&#xc1;" horiz-adv-x="1423" 
d="M317 162q-6 -15 -6.5 -28t4.5 -22.5t12.5 -16.5t20 -12t24 -8.5t28.5 -6t29.5 -3.5t29.5 -2q9 -9 9 -33.5t-9 -33.5q-152 4 -262 4q-31 0 -183 -4q-9 9 -9 33.5t9 33.5q78 5 123 32t82 114l455 1065q18 42 32.5 58t36.5 16q20 0 31.5 -14.5t24.5 -47.5l420 -1110
q11 -29 26 -49.5t28 -31.5t38 -18t37.5 -8.5t44.5 -4.5q6 -1 10 -1q9 -9 9 -33.5t-9 -33.5q-152 4 -234 4q-116 0 -268 -4q-9 9 -9 33.5t9 33.5q12 1 31.5 2t30.5 2l27 2.5t24.5 4t19 6.5t15 9.5t8 13.5t2.5 19t-6 25l-125 347h-426q-36 0 -50 -7t-22 -28zM539 580h356
l-199 546h-4l-205 -519q-7 -16 5 -21.5t47 -5.5zM854 1679q88 -40 127 -106l-295 -119q-57 -24 -86 -24q-13 0 -22 9t-9 21q0 22 31 43z" />
    <glyph glyph-name="Acircumflex" unicode="&#xc2;" horiz-adv-x="1423" 
d="M317 162q-6 -15 -6.5 -28t4.5 -22.5t12.5 -16.5t20 -12t24 -8.5t28.5 -6t29.5 -3.5t29.5 -2q9 -9 9 -33.5t-9 -33.5q-152 4 -262 4q-31 0 -183 -4q-9 9 -9 33.5t9 33.5q78 5 123 32t82 114l455 1065q18 42 32.5 58t36.5 16q20 0 31.5 -14.5t24.5 -47.5l420 -1110
q11 -29 26 -49.5t28 -31.5t38 -18t37.5 -8.5t44.5 -4.5q6 -1 10 -1q9 -9 9 -33.5t-9 -33.5q-152 4 -234 4q-116 0 -268 -4q-9 9 -9 33.5t9 33.5q12 1 31.5 2t30.5 2l27 2.5t24.5 4t19 6.5t15 9.5t8 13.5t2.5 19t-6 25l-125 347h-426q-36 0 -50 -7t-22 -28zM539 580h356
l-199 546h-4l-205 -519q-7 -16 5 -21.5t47 -5.5zM772 1655q90 -109 211 -199q-11 -34 -33 -43q-131 61 -217 125q-97 -70 -219 -125q-23 15 -29 43q86 64 207 199q37 22 80 0z" />
    <glyph glyph-name="Atilde" unicode="&#xc3;" horiz-adv-x="1423" 
d="M317 162q-6 -15 -6.5 -28t4.5 -22.5t12.5 -16.5t20 -12t24 -8.5t28.5 -6t29.5 -3.5t29.5 -2q9 -9 9 -33.5t-9 -33.5q-152 4 -262 4q-31 0 -183 -4q-9 9 -9 33.5t9 33.5q78 5 123 32t82 114l455 1065q18 42 32.5 58t36.5 16q20 0 31.5 -14.5t24.5 -47.5l420 -1110
q11 -29 26 -49.5t28 -31.5t38 -18t37.5 -8.5t44.5 -4.5q6 -1 10 -1q9 -9 9 -33.5t-9 -33.5q-152 4 -234 4q-116 0 -268 -4q-9 9 -9 33.5t9 33.5q12 1 31.5 2t30.5 2l27 2.5t24.5 4t19 6.5t15 9.5t8 13.5t2.5 19t-6 25l-125 347h-426q-36 0 -50 -7t-22 -28zM539 580h356
l-199 546h-4l-205 -519q-7 -16 5 -21.5t47 -5.5zM864 1530q35 0 55.5 21.5t41.5 84.5q33 3 55 -12q-19 -95 -64 -149t-114 -54q-13 0 -26 3.5t-28 12t-24.5 14.5t-27.5 18.5l-25 17.5q-63 39 -111 39q-38 0 -58 -22.5t-36 -76.5q-38 -7 -56 11q23 97 62 148.5t102 51.5
q15 0 30 -3.5t25.5 -7.5t26.5 -13t22.5 -13.5l23 -16.5l20.5 -15q51 -39 106 -39z" />
    <glyph glyph-name="Adieresis" unicode="&#xc4;" horiz-adv-x="1423" 
d="M317 162q-6 -15 -6.5 -28t4.5 -22.5t12.5 -16.5t20 -12t24 -8.5t28.5 -6t29.5 -3.5t29.5 -2q9 -9 9 -33.5t-9 -33.5q-152 4 -262 4q-31 0 -183 -4q-9 9 -9 33.5t9 33.5q78 5 123 32t82 114l455 1065q18 42 32.5 58t36.5 16q20 0 31.5 -14.5t24.5 -47.5l420 -1110
q11 -29 26 -49.5t28 -31.5t38 -18t37.5 -8.5t44.5 -4.5q6 -1 10 -1q9 -9 9 -33.5t-9 -33.5q-152 4 -234 4q-116 0 -268 -4q-9 9 -9 33.5t9 33.5q12 1 31.5 2t30.5 2l27 2.5t24.5 4t19 6.5t15 9.5t8 13.5t2.5 19t-6 25l-125 347h-426q-36 0 -50 -7t-22 -28zM539 580h356
l-199 546h-4l-205 -519q-7 -16 5 -21.5t47 -5.5zM881 1446q0 40 29 69t69 29t69 -29t29 -69t-29 -69t-69 -29t-69 29t-29 69zM395 1446q0 40 29.5 69t69.5 29t69 -29t29 -69t-29 -69t-69 -29t-69.5 29t-29.5 69z" />
    <glyph glyph-name="Aring" unicode="&#xc5;" horiz-adv-x="1423" 
d="M735 1571q-46 0 -72 -31t-26 -78q0 -45 26.5 -76.5t71.5 -31.5t72 31.5t27 76.5q0 48 -27 78.5t-72 30.5zM317 162q-6 -15 -6.5 -28t4.5 -22.5t12.5 -16.5t20 -12t24 -8.5t28.5 -6t29.5 -3.5t29.5 -2q9 -9 9 -33.5t-9 -33.5q-152 4 -262 4q-31 0 -183 -4q-9 9 -9 33.5
t9 33.5q78 5 123 32t82 114l455 1065q3 8 10 22q-55 17 -92 63t-37 103q0 70 54.5 122t125.5 52t125.5 -51.5t54.5 -122.5q0 -54 -34 -99.5t-87 -64.5l5 -12l420 -1110q11 -29 26 -49.5t28 -31.5t38 -18t37.5 -8.5t44.5 -4.5q6 -1 10 -1q9 -9 9 -33.5t-9 -33.5
q-152 4 -234 4q-116 0 -268 -4q-9 9 -9 33.5t9 33.5q12 1 31.5 2t30.5 2l27 2.5t24.5 4t19 6.5t15 9.5t8 13.5t2.5 19t-6 25l-125 347h-426q-36 0 -50 -7t-22 -28zM539 580h356l-199 546h-4l-205 -519q-7 -16 5 -21.5t47 -5.5z" />
    <glyph glyph-name="AE" unicode="&#xc6;" horiz-adv-x="1771" 
d="M965 0l-265 -4l-4 4v37q0 16 17 18l53 4q63 5 88 27t25 66v393h-365l-211 -406q-28 -56 -22.5 -66t61.5 -14l59 -4q13 -2 13 -12v-43l-2 -4q-139 4 -219 4l-185 -4l-4 4v39q0 14 21 16l47 4q56 5 79 24.5t60 90.5l528 1008q17 34 -3 55.5t-54 24.5l-64 4q-16 1 -16 14v41
l4 2l361 -2h157h455q11 -124 43 -315l-59 -11q-14 44 -22.5 67.5t-23.5 57.5t-30.5 51t-38.5 35t-53 25.5t-68 7.5h-205q-35 0 -54 -26t-19 -64v-406h208q50 0 71.5 21.5t33.5 69.5l12 61q4 16 17 16h45q6 0 6 -8q-17 -145 -17 -194q0 -48 17 -197l-4 -6h-47q-15 0 -19 14
l-10 64q-10 46 -32.5 68t-72.5 22h-208v-522q0 -39 18.5 -55.5t54.5 -16.5h269q56 0 99.5 21t73 61t49 84.5t36.5 105.5l61 -10q-43 -198 -53 -342h-692zM555 625h324v553q0 42 -11 47z" />
    <glyph glyph-name="Ccedilla" unicode="&#xc7;" horiz-adv-x="1323" 
d="M752 -197q-53 0 -93 -12l-12 12l73 177q-126 1 -233 39.5t-181.5 102.5t-127 149t-77.5 179.5t-25 194.5q0 159 57 296.5t160 232.5q190 174 440 174q110 0 198 -21t151 -44.5t100 -27.5q37 -232 45 -317q-38 -20 -68 -10q-22 72 -53.5 129t-83 108t-130.5 79t-181 28
q-83 0 -168 -45.5t-159 -136.5q-122 -150 -122 -406q0 -91 18 -179t55.5 -168.5t91.5 -141t132 -96.5t170 -36q143 0 255 52.5t220 171.5q30 0 47 -31q-189 -247 -459 -273l-44 -120q24 6 53 6q63 0 104 -35t41 -92q0 -66 -62.5 -109t-156.5 -43q-74 0 -152 35q0 32 21 53
q77 -28 119 -28q47 0 75.5 21.5t28.5 60.5q0 71 -67 71z" />
    <glyph glyph-name="Egrave" unicode="&#xc8;" horiz-adv-x="1124" 
d="M559 739q45 0 74 2t50 9.5t32 15.5t17.5 27t8.5 36t4 50q9 9 34 9t34 -9q-4 -122 -4 -177q0 -36 4 -180q-9 -9 -34 -9t-34 9q-2 34 -5 50.5t-13 37.5t-29 30t-53.5 15.5t-85.5 6.5h-186v-494q0 -41 19.5 -64.5t53.5 -23.5h279q108 0 170.5 71.5t97.5 196.5q37 10 72 -10
q-25 -163 -76 -342q-164 4 -262 4h-440q-167 -2 -267 -4q-9 9 -9 33.5t9 33.5q41 2 63.5 4t46 9.5t34 18.5t20 32t12.5 50t3 73v821q0 52 -5.5 84t-15.5 52.5t-34.5 30.5t-49.5 13.5t-74 5.5q-9 9 -9 34t9 34l265 -4h522q53 0 100 8q8 0 8 -6q4 -14 21.5 -127t24.5 -170
q-32 -16 -68 -10q-13 42 -22 66t-23.5 53.5t-29.5 45.5t-37.5 31t-51.5 21t-67 6h-216q-35 0 -54 -25.5t-19 -64.5v-410h186zM502 1673l248 -172q30 -21 30 -43q0 -12 -9 -21.5t-21 -9.5q-28 0 -88 25l-316 129q61 59 156 92z" />
    <glyph glyph-name="Eacute" unicode="&#xc9;" horiz-adv-x="1124" 
d="M559 739q45 0 74 2t50 9.5t32 15.5t17.5 27t8.5 36t4 50q9 9 34 9t34 -9q-4 -122 -4 -177q0 -36 4 -180q-9 -9 -34 -9t-34 9q-2 34 -5 50.5t-13 37.5t-29 30t-53.5 15.5t-85.5 6.5h-186v-494q0 -41 19.5 -64.5t53.5 -23.5h279q108 0 170.5 71.5t97.5 196.5q37 10 72 -10
q-25 -163 -76 -342q-164 4 -262 4h-440q-167 -2 -267 -4q-9 9 -9 33.5t9 33.5q41 2 63.5 4t46 9.5t34 18.5t20 32t12.5 50t3 73v821q0 52 -5.5 84t-15.5 52.5t-34.5 30.5t-49.5 13.5t-74 5.5q-9 9 -9 34t9 34l265 -4h522q53 0 100 8q8 0 8 -6q4 -14 21.5 -127t24.5 -170
q-32 -16 -68 -10q-13 42 -22 66t-23.5 53.5t-29.5 45.5t-37.5 31t-51.5 21t-67 6h-216q-35 0 -54 -25.5t-19 -64.5v-410h186zM717 1679q88 -40 127 -106l-295 -119q-57 -24 -86 -24q-13 0 -22 9t-9 21q0 22 31 43z" />
    <glyph glyph-name="Ecircumflex" unicode="&#xca;" horiz-adv-x="1124" 
d="M559 739q45 0 74 2t50 9.5t32 15.5t17.5 27t8.5 36t4 50q9 9 34 9t34 -9q-4 -122 -4 -177q0 -36 4 -180q-9 -9 -34 -9t-34 9q-2 34 -5 50.5t-13 37.5t-29 30t-53.5 15.5t-85.5 6.5h-186v-494q0 -41 19.5 -64.5t53.5 -23.5h279q108 0 170.5 71.5t97.5 196.5q37 10 72 -10
q-25 -163 -76 -342q-164 4 -262 4h-440q-167 -2 -267 -4q-9 9 -9 33.5t9 33.5q41 2 63.5 4t46 9.5t34 18.5t20 32t12.5 50t3 73v821q0 52 -5.5 84t-15.5 52.5t-34.5 30.5t-49.5 13.5t-74 5.5q-9 9 -9 34t9 34l265 -4h522q53 0 100 8q8 0 8 -6q4 -14 21.5 -127t24.5 -170
q-32 -16 -68 -10q-13 42 -22 66t-23.5 53.5t-29.5 45.5t-37.5 31t-51.5 21t-67 6h-216q-35 0 -54 -25.5t-19 -64.5v-410h186zM645 1655q90 -109 211 -199q-11 -34 -33 -43q-131 61 -217 125q-97 -70 -219 -125q-23 15 -29 43q86 64 207 199q37 22 80 0z" />
    <glyph glyph-name="Edieresis" unicode="&#xcb;" horiz-adv-x="1124" 
d="M559 739q45 0 74 2t50 9.5t32 15.5t17.5 27t8.5 36t4 50q9 9 34 9t34 -9q-4 -122 -4 -177q0 -36 4 -180q-9 -9 -34 -9t-34 9q-2 34 -5 50.5t-13 37.5t-29 30t-53.5 15.5t-85.5 6.5h-186v-494q0 -41 19.5 -64.5t53.5 -23.5h279q108 0 170.5 71.5t97.5 196.5q37 10 72 -10
q-25 -163 -76 -342q-164 4 -262 4h-440q-167 -2 -267 -4q-9 9 -9 33.5t9 33.5q41 2 63.5 4t46 9.5t34 18.5t20 32t12.5 50t3 73v821q0 52 -5.5 84t-15.5 52.5t-34.5 30.5t-49.5 13.5t-74 5.5q-9 9 -9 34t9 34l265 -4h522q53 0 100 8q8 0 8 -6q4 -14 21.5 -127t24.5 -170
q-32 -16 -68 -10q-13 42 -22 66t-23.5 53.5t-29.5 45.5t-37.5 31t-51.5 21t-67 6h-216q-35 0 -54 -25.5t-19 -64.5v-410h186zM276 1538q0 40 29.5 69t69.5 29t69 -29t29 -69t-29 -69t-69 -29t-69.5 29t-29.5 69zM664 1538q0 40 29 69t69 29t69 -29t29 -69t-29 -69t-69 -29
t-69 29t-29 69z" />
    <glyph glyph-name="Igrave" unicode="&#xcc;" horiz-adv-x="608" 
d="M391 250q0 -44 3 -72.5t12 -50t20 -32.5t34 -18.5t45.5 -9.5t63.5 -4q9 -9 9 -33.5t-9 -33.5q-204 4 -264 4q-66 0 -266 -4q-9 9 -9 33.5t9 33.5q41 2 63.5 4t45.5 9.5t34 18.5t20 32.5t12 50t3 72.5v821q0 65 -6.5 100t-30 54.5t-52 24t-89.5 7.5q-9 9 -9 34t9 34
q204 -4 264 -4q66 0 266 4q9 -9 9 -34t-9 -34q-61 -3 -89.5 -7.5t-52 -24t-30 -54.5t-6.5 -100v-821zM203 1673l248 -172q30 -21 30 -43q0 -12 -9 -21.5t-21 -9.5q-29 0 -89 25l-315 129q61 59 156 92z" />
    <glyph glyph-name="Iacute" unicode="&#xcd;" horiz-adv-x="608" 
d="M391 250q0 -44 3 -72.5t12 -50t20 -32.5t34 -18.5t45.5 -9.5t63.5 -4q9 -9 9 -33.5t-9 -33.5q-204 4 -264 4q-66 0 -266 -4q-9 9 -9 33.5t9 33.5q41 2 63.5 4t45.5 9.5t34 18.5t20 32.5t12 50t3 72.5v821q0 65 -6.5 100t-30 54.5t-52 24t-89.5 7.5q-9 9 -9 34t9 34
q204 -4 264 -4q66 0 266 4q9 -9 9 -34t-9 -34q-61 -3 -89.5 -7.5t-52 -24t-30 -54.5t-6.5 -100v-821zM430 1677q88 -40 127 -106l-295 -119q-60 -25 -86 -25q-13 0 -22 9.5t-9 21.5q0 22 31 43z" />
    <glyph glyph-name="Icircumflex" unicode="&#xce;" horiz-adv-x="608" 
d="M391 250q0 -44 3 -72.5t12 -50t20 -32.5t34 -18.5t45.5 -9.5t63.5 -4q9 -9 9 -33.5t-9 -33.5q-204 4 -264 4q-66 0 -266 -4q-9 9 -9 33.5t9 33.5q41 2 63.5 4t45.5 9.5t34 18.5t20 32.5t12 50t3 72.5v821q0 65 -6.5 100t-30 54.5t-52 24t-89.5 7.5q-9 9 -9 34t9 34
q204 -4 264 -4q66 0 266 4q9 -9 9 -34t-9 -34q-61 -3 -89.5 -7.5t-52 -24t-30 -54.5t-6.5 -100v-821zM338 1655q90 -109 211 -199q-11 -34 -33 -43q-131 61 -217 125q-97 -70 -219 -125q-23 15 -29 43q86 64 207 199q37 22 80 0z" />
    <glyph glyph-name="Idieresis" unicode="&#xcf;" horiz-adv-x="608" 
d="M391 250q0 -44 3 -72.5t12 -50t20 -32.5t34 -18.5t45.5 -9.5t63.5 -4q9 -9 9 -33.5t-9 -33.5q-204 4 -264 4q-66 0 -266 -4q-9 9 -9 33.5t9 33.5q41 2 63.5 4t45.5 9.5t34 18.5t20 32.5t12 50t3 72.5v821q0 65 -6.5 100t-30 54.5t-52 24t-89.5 7.5q-9 9 -9 34t9 34
q204 -4 264 -4q66 0 266 4q9 -9 9 -34t-9 -34q-61 -3 -89.5 -7.5t-52 -24t-30 -54.5t-6.5 -100v-821zM12 1561q0 40 29.5 69t69.5 29t69 -29t29 -69t-29 -69.5t-69 -29.5t-69.5 29.5t-29.5 69.5zM399 1561q0 40 29.5 69t69.5 29t69 -29t29 -69t-29 -69.5t-69 -29.5
t-69.5 29.5t-29.5 69.5z" />
    <glyph glyph-name="Eth" unicode="&#xd0;" horiz-adv-x="1435" 
d="M303 1321q34 0 150 2t188 2q145 0 276 -55.5t225.5 -148.5t150 -221t55.5 -269q0 -105 -22 -193.5t-60 -153t-91 -115t-111.5 -82.5t-126.5 -53t-131 -29.5t-128 -8.5q-122 0 -237 2t-136 2q-66 0 -266 -4q-9 9 -9 33.5t9 33.5q41 2 63.5 4t45.5 9.5t34 18.5t20 32.5
t12 50t3 72.5v338h-178q-11 0 -17 9t-6 19q0 16 13 34t26 18h162v403q0 65 -6.5 100t-30 54.5t-52 24t-89.5 7.5q-9 9 -9 34t9 34q204 -4 264 -4zM391 170q0 -37 13 -57t63 -33.5t147 -13.5q92 0 167.5 13.5t146 49t118.5 92.5t76.5 148.5t28.5 212.5q0 99 -18 191.5
t-62 181.5t-109.5 154.5t-168 105.5t-230.5 40q-172 0 -172 -100v-487h199q12 0 18 -8.5t6 -18.5q0 -19 -12.5 -36t-30.5 -17h-180v-418z" />
    <glyph glyph-name="Ntilde" unicode="&#xd1;" horiz-adv-x="1431" 
d="M1139 1049q0 41 -3 69.5t-7 50.5t-15.5 36t-22 23t-33.5 14.5t-42 8t-55 6.5q-9 9 -9 34t9 34q204 -4 227 -4q29 0 229 4q9 -9 9 -34t-9 -34q-61 -6 -89.5 -12.5t-52 -28.5t-30 -59.5t-6.5 -107.5v-1006q0 -29 -12.5 -46t-34.5 -17q-46 0 -82 49l-715 903q-52 67 -69 67
q-11 0 -14 -21t-3 -79v-627q0 -48 2.5 -79.5t12.5 -54.5t20 -35t34 -20.5t45.5 -12t63.5 -7.5q9 -9 9 -33.5t-9 -33.5q-204 4 -227 4q-29 0 -229 -4q-9 9 -9 33.5t9 33.5q41 4 63.5 7.5t46 12.5t34 21.5t20 35.5t12 54t2.5 78v854q-10 45 -55.5 86t-106.5 45q-9 9 -9 34
t9 34l277 -4l702 -905l30.5 -40l25.5 -33l17 -21t14.5 -15t10.5 -4q10 0 12.5 14t2.5 48v684zM854 1526q35 0 55 21.5t41 84.5q34 3 56 -12q-19 -95 -64.5 -149t-114.5 -54q-13 0 -26 3.5t-28 12t-24.5 14.5t-27.5 18.5l-25 17.5q-63 39 -110 39q-38 0 -58 -22.5t-36 -76.5
q-38 -7 -56 11q23 97 62 148.5t102 51.5q15 0 30 -3.5t25.5 -7.5t26.5 -13t22.5 -13.5l23 -16.5l20.5 -15q51 -39 106 -39z" />
    <glyph glyph-name="Ograve" unicode="&#xd2;" horiz-adv-x="1437" 
d="M1364 674q0 -152 -46.5 -281t-130 -220t-204.5 -142t-266 -51q-132 0 -248.5 46.5t-204 129.5t-138 207t-50.5 272q0 199 80 361.5t224.5 257t324.5 94.5q134 0 254 -49t210 -135.5t142.5 -213.5t52.5 -276zM678 1278q-73 0 -142.5 -35.5t-129.5 -106t-97 -191.5
t-37 -275q0 -143 41 -262t109.5 -196.5t155.5 -120t180 -42.5q179 0 294 158.5t115 427.5q0 156 -37 279.5t-103 202.5t-154.5 120t-194.5 41zM623 1677l247 -172q31 -22 31 -43q0 -12 -9.5 -21t-21.5 -9q-31 0 -88 24l-315 129q61 59 156 92z" />
    <glyph glyph-name="Oacute" unicode="&#xd3;" horiz-adv-x="1437" 
d="M1364 674q0 -152 -46.5 -281t-130 -220t-204.5 -142t-266 -51q-132 0 -248.5 46.5t-204 129.5t-138 207t-50.5 272q0 199 80 361.5t224.5 257t324.5 94.5q134 0 254 -49t210 -135.5t142.5 -213.5t52.5 -276zM678 1278q-73 0 -142.5 -35.5t-129.5 -106t-97 -191.5
t-37 -275q0 -143 41 -262t109.5 -196.5t155.5 -120t180 -42.5q179 0 294 158.5t115 427.5q0 156 -37 279.5t-103 202.5t-154.5 120t-194.5 41zM793 1679q88 -40 127 -106l-295 -119q-57 -24 -86 -24q-13 0 -22 9t-9 21q0 22 31 43z" />
    <glyph glyph-name="Ocircumflex" unicode="&#xd4;" horiz-adv-x="1437" 
d="M1364 674q0 -152 -46.5 -281t-130 -220t-204.5 -142t-266 -51q-132 0 -248.5 46.5t-204 129.5t-138 207t-50.5 272q0 199 80 361.5t224.5 257t324.5 94.5q134 0 254 -49t210 -135.5t142.5 -213.5t52.5 -276zM678 1278q-73 0 -142.5 -35.5t-129.5 -106t-97 -191.5
t-37 -275q0 -143 41 -262t109.5 -196.5t155.5 -120t180 -42.5q179 0 294 158.5t115 427.5q0 156 -37 279.5t-103 202.5t-154.5 120t-194.5 41zM750 1655q90 -109 211 -199q-11 -34 -33 -43q-131 61 -217 125q-97 -70 -219 -125q-23 15 -29 43q86 64 207 199q37 22 80 0z" />
    <glyph glyph-name="Otilde" unicode="&#xd5;" horiz-adv-x="1437" 
d="M1364 674q0 -152 -46.5 -281t-130 -220t-204.5 -142t-266 -51q-132 0 -248.5 46.5t-204 129.5t-138 207t-50.5 272q0 199 80 361.5t224.5 257t324.5 94.5q134 0 254 -49t210 -135.5t142.5 -213.5t52.5 -276zM678 1278q-73 0 -142.5 -35.5t-129.5 -106t-97 -191.5
t-37 -275q0 -143 41 -262t109.5 -196.5t155.5 -120t180 -42.5q179 0 294 158.5t115 427.5q0 156 -37 279.5t-103 202.5t-154.5 120t-194.5 41zM840 1526q35 0 55 21.5t41 84.5q33 3 55 -12q-19 -95 -64 -149t-114 -54q-13 0 -26 3.5t-28 12t-24.5 14.5t-27.5 18.5l-25 17.5
q-63 39 -111 39q-38 0 -58 -22.5t-36 -76.5q-37 -7 -55 11q23 97 62 148.5t102 51.5q17 0 33 -3.5t35 -13.5t25.5 -14t29.5 -20.5t24 -17.5q51 -39 107 -39z" />
    <glyph glyph-name="Odieresis" unicode="&#xd6;" horiz-adv-x="1437" 
d="M1364 674q0 -152 -46.5 -281t-130 -220t-204.5 -142t-266 -51q-132 0 -248.5 46.5t-204 129.5t-138 207t-50.5 272q0 199 80 361.5t224.5 257t324.5 94.5q134 0 254 -49t210 -135.5t142.5 -213.5t52.5 -276zM678 1278q-73 0 -142.5 -35.5t-129.5 -106t-97 -191.5
t-37 -275q0 -143 41 -262t109.5 -196.5t155.5 -120t180 -42.5q179 0 294 158.5t115 427.5q0 156 -37 279.5t-103 202.5t-154.5 120t-194.5 41zM1036 1446q0 40 29.5 69t69.5 29t69 -29t29 -69t-29 -69t-69 -29t-69.5 29t-29.5 69zM199 1446q0 40 29 69t69 29t69 -29t29 -69
t-29 -69t-69 -29t-69 29t-29 69z" />
    <glyph glyph-name="multiply" unicode="&#xd7;" horiz-adv-x="1079" 
d="M610 471l252 -250l-71 -71l-250 249l-250 -249l-74 71l252 250l-252 252l74 72l250 -252l250 252l71 -72z" />
    <glyph glyph-name="Oslash" unicode="&#xd8;" horiz-adv-x="1437" 
d="M1081 1035l-662 -818q68 -81 156.5 -124.5t182.5 -43.5q179 0 294 158.5t115 427.5q0 241 -86 400zM678 1278q-73 0 -142.5 -35.5t-129.5 -106t-97 -191.5t-37 -275q0 -212 89 -369l664 818q-131 159 -347 159zM221 -27q-28 0 -48.5 20.5t-25.5 45.5l105 129
q-176 182 -176 467q0 199 80 361.5t224.5 257t324.5 94.5q227 0 400 -130l105 130q28 0 49 -19t25 -43l-107 -132q89 -90 138 -212.5t49 -267.5q0 -152 -46.5 -281t-130 -220t-204.5 -142t-266 -51q-225 0 -391 123z" />
    <glyph glyph-name="Ugrave" unicode="&#xd9;" horiz-adv-x="1353" 
d="M352 1071v-520q0 -63 2.5 -105.5t12 -98.5t32 -101.5t58.5 -79.5q108 -103 243 -103q72 0 129.5 16.5t96.5 43t67.5 67.5t44 82t25 95.5t12 99t2.5 100.5v504q0 26 -0.5 46t-4.5 37t-6 29.5t-11 22.5t-13.5 16.5t-20 12t-23.5 8t-30.5 6t-35 4.5t-43.5 4q-9 9 -9 34t9 34
q204 -4 237 -4q9 0 209 4q9 -9 9 -34t-9 -34q-25 -3 -34.5 -4t-28.5 -4.5t-25.5 -6t-19.5 -8t-17 -12t-12 -16.5t-10 -22.5t-5.5 -29.5t-4 -37t-0.5 -46v-467q0 -116 -13.5 -206t-49 -170.5t-93.5 -133.5t-150 -83.5t-215 -30.5q-62 0 -121.5 11.5t-126 45.5t-116 87.5
t-82.5 146t-33 212.5v588q0 65 -6.5 100.5t-27.5 54t-46 23.5t-78 8q-9 9 -9 34t9 34q204 -4 244 -4q77 0 277 4q9 -9 9 -34t-9 -34q-45 -2 -69.5 -4t-49.5 -9t-35.5 -18t-20 -32.5t-12 -50t-2.5 -72.5zM565 1675l248 -172q31 -22 31 -43q0 -12 -9.5 -21t-21.5 -9
q-31 0 -88 24l-315 129q62 60 155 92z" />
    <glyph glyph-name="Uacute" unicode="&#xda;" horiz-adv-x="1353" 
d="M352 1071v-520q0 -63 2.5 -105.5t12 -98.5t32 -101.5t58.5 -79.5q108 -103 243 -103q72 0 129.5 16.5t96.5 43t67.5 67.5t44 82t25 95.5t12 99t2.5 100.5v504q0 26 -0.5 46t-4.5 37t-6 29.5t-11 22.5t-13.5 16.5t-20 12t-23.5 8t-30.5 6t-35 4.5t-43.5 4q-9 9 -9 34t9 34
q204 -4 237 -4q9 0 209 4q9 -9 9 -34t-9 -34q-25 -3 -34.5 -4t-28.5 -4.5t-25.5 -6t-19.5 -8t-17 -12t-12 -16.5t-10 -22.5t-5.5 -29.5t-4 -37t-0.5 -46v-467q0 -116 -13.5 -206t-49 -170.5t-93.5 -133.5t-150 -83.5t-215 -30.5q-62 0 -121.5 11.5t-126 45.5t-116 87.5
t-82.5 146t-33 212.5v588q0 65 -6.5 100.5t-27.5 54t-46 23.5t-78 8q-9 9 -9 34t9 34q204 -4 244 -4q77 0 277 4q9 -9 9 -34t-9 -34q-45 -2 -69.5 -4t-49.5 -9t-35.5 -18t-20 -32.5t-12 -50t-2.5 -72.5zM829 1677q88 -40 127 -106l-294 -119q-60 -25 -87 -25
q-13 0 -21.5 9.5t-8.5 21.5q0 23 30 43z" />
    <glyph glyph-name="Ucircumflex" unicode="&#xdb;" horiz-adv-x="1353" 
d="M352 1071v-520q0 -63 2.5 -105.5t12 -98.5t32 -101.5t58.5 -79.5q108 -103 243 -103q72 0 129.5 16.5t96.5 43t67.5 67.5t44 82t25 95.5t12 99t2.5 100.5v504q0 26 -0.5 46t-4.5 37t-6 29.5t-11 22.5t-13.5 16.5t-20 12t-23.5 8t-30.5 6t-35 4.5t-43.5 4q-9 9 -9 34t9 34
q204 -4 237 -4q9 0 209 4q9 -9 9 -34t-9 -34q-25 -3 -34.5 -4t-28.5 -4.5t-25.5 -6t-19.5 -8t-17 -12t-12 -16.5t-10 -22.5t-5.5 -29.5t-4 -37t-0.5 -46v-467q0 -116 -13.5 -206t-49 -170.5t-93.5 -133.5t-150 -83.5t-215 -30.5q-62 0 -121.5 11.5t-126 45.5t-116 87.5
t-82.5 146t-33 212.5v588q0 65 -6.5 100.5t-27.5 54t-46 23.5t-78 8q-9 9 -9 34t9 34q204 -4 244 -4q77 0 277 4q9 -9 9 -34t-9 -34q-45 -2 -69.5 -4t-49.5 -9t-35.5 -18t-20 -32.5t-12 -50t-2.5 -72.5zM754 1655q90 -109 211 -199q-11 -34 -33 -43q-131 61 -217 125
q-97 -70 -219 -125q-23 15 -29 43q86 64 207 199q37 22 80 0z" />
    <glyph glyph-name="Udieresis" unicode="&#xdc;" horiz-adv-x="1366" 
d="M770 1448q0 40 28 68t68 28t68.5 -28t28.5 -68t-28.5 -68t-68.5 -28t-68 28t-28 68zM475 1448q0 40 28 68t68 28t68.5 -28t28.5 -68t-28.5 -68t-68.5 -28t-68 28t-28 68zM662 -20q-61 0 -120.5 11.5t-126.5 45.5t-117 87.5t-83 146t-33 212.5v588q0 43 -2.5 72t-11 50
t-18 32.5t-30 18.5t-40 9t-55.5 4q-9 9 -9 34t9 34q152 -4 245 -4q72 0 174 4q20 0 22 -32.5t-13 -35.5q-49 -8 -73 -50.5t-24 -135.5v-520q0 -48 0.5 -69t3 -64.5t9 -69.5t18 -61.5t31 -65t45.5 -55.5q103 -103 244 -103q72 0 129 16.5t96 43t67.5 67.5t44 82t25 95.5
t12 99t2.5 100.5v504q0 99 -21 137t-77 49q-23 17 -18.5 42.5t32.5 25.5q27 0 71 -2t67 -2q76 0 198 4q9 -9 9 -34t-9 -34q-53 -3 -77.5 -7.5t-44 -24t-24.5 -54t-5 -100.5v-467q0 -116 -13.5 -206t-49 -171t-93.5 -133.5t-150 -83t-216 -30.5z" />
    <glyph glyph-name="Yacute" unicode="&#xdd;" horiz-adv-x="1177" 
d="M690 250q0 -44 3 -72.5t13 -50t21.5 -32.5t37.5 -18.5t51.5 -9.5t72.5 -4q9 -9 9 -33.5t-9 -33.5q-204 4 -285 4q-87 0 -287 -4q-9 9 -9 33.5t9 33.5q47 2 72.5 4t51.5 9.5t37.5 18.5t21.5 32.5t13 50t3 72.5v280q0 15 -0.5 26t-1 19t-3 16.5t-3.5 13t-6 14t-7 13l-10 17
t-12 19.5l-269 452q-29 49 -49 75.5t-41 39.5t-36.5 16t-47.5 5q-12 1 -18 1q-9 9 -10 34t8 34q122 -4 209 -4q70 0 234 4q9 -9 9 -34t-9 -34q-15 -1 -32 -1.5t-27 -0.5t-21.5 -0.5t-17 -2t-11.5 -3.5t-7 -6t-2 -9t2.5 -13l8 -17.5t12.5 -23.5l259 -455q10 -18 16 -24
t13 -1.5t16 21.5l243 459q10 18 14.5 31t2 21t-6 12.5t-16.5 7t-22.5 3t-31.5 1t-36 1.5q-9 9 -9 33t9 33q82 -2 186 -2q109 0 170 2q9 -9 9 -33t-9 -33l-35 -3t-30.5 -3t-23.5 -4.5t-23.5 -9.5t-19.5 -16.5t-22.5 -26t-22.5 -37.5l-262 -473q-31 -57 -33.5 -66t-2.5 -70
v-298zM737 1679q88 -40 127 -106l-295 -119q-57 -24 -86 -24q-13 0 -21.5 9t-8.5 21q0 23 30 43z" />
    <glyph glyph-name="Thorn" unicode="&#xde;" horiz-adv-x="1079" 
d="M375 250q0 -44 3 -72.5t12 -50t20 -32.5t34 -18.5t45.5 -9.5t63.5 -4q9 -9 9 -33.5t-9 -33.5q-204 4 -264 4q-66 0 -266 -4q-9 9 -9 33.5t9 33.5q41 2 63.5 4t45.5 9.5t34 18.5t20 32.5t12 50t3 72.5v821q0 65 -6.5 100t-30 54.5t-52 24t-89.5 7.5q-9 9 -9 34t9 34
q204 -4 264 -4q66 0 266 4q9 -9 9 -34t-9 -34q-61 -3 -89.5 -7.5t-52 -24t-30 -54.5t-6.5 -100v-8q148 8 184 8q109 0 192 -25t131 -62.5t78 -89.5t40 -97.5t10 -94.5t-14.5 -100.5t-50 -105t-88.5 -95t-137.5 -68t-189.5 -26.5q-96 0 -155 19v-76zM375 981v-596
q30 -10 145 -10q47 0 87.5 8.5t80.5 31t68 58t45.5 94.5t17.5 135q0 71 -16 125.5t-41 87.5t-60.5 53.5t-70.5 28t-74 7.5q-31 0 -91 -7t-91 -16z" />
    <glyph glyph-name="germandbls" unicode="&#xdf;" horiz-adv-x="1107" 
d="M188 250v541q0 24 -24 24h-105q-10 10 1 39t30 29q59 0 78.5 17t19.5 77q0 97 28 176.5t72 129.5t101 84.5t111 48.5t106 14q147 0 229.5 -72t82.5 -156q0 -46 -15 -88.5t-35 -74t-60.5 -70.5t-69 -62l-83.5 -65v-4l102.5 -69t95.5 -77.5t89.5 -95.5t57 -109.5
t24.5 -132.5q0 -162 -89.5 -268t-229.5 -106q-61 0 -105 17.5t-66.5 47.5t-32 62t-9.5 69q0 26 19.5 49t43.5 23q57 0 57 -62q0 -19 -8 -42.5t-8 -34.5q0 -22 9.5 -35.5t28.5 -18.5t33 -6.5t38 -1.5q53 0 99 72t46 200q0 250 -318 492v27q76 59 118.5 102.5t70 103.5
t27.5 132q0 86 -40.5 136t-119.5 50q-52 0 -91.5 -18t-65 -52.5t-42.5 -74.5t-25 -96t-11 -105t-3 -111v-655q0 -51 4 -84t9 -52.5t19.5 -29.5t27 -13.5t39.5 -7.5q9 -9 9 -33.5t-9 -33.5q-176 4 -179 4q-51 0 -223 -4q-9 9 -9 33.5t9 33.5q40 2 60.5 6t39 13.5t26 30.5
t11.5 52.5t4 84.5z" />
    <glyph glyph-name="agrave" unicode="&#xe0;" horiz-adv-x="935" 
d="M600 98h-4l-41 -32q-68 -53 -110.5 -69.5t-112.5 -16.5q-116 0 -187 53t-71 168q0 102 93 180.5t245 116.5l176 43q12 4 12 24q0 266 -166 266q-68 0 -119 -21.5t-51 -64.5q0 -28 4 -40q6 -12 6 -37q0 -24 -24.5 -46t-65.5 -22q-71 0 -71 72q0 54 49 107t128 86.5
t161 33.5q49 0 90 -7.5t83 -30.5t71 -60t47 -100.5t18 -147.5v-305q0 -29 0.5 -46t3 -40.5t7.5 -36.5t14 -26t23.5 -19t33.5 -6t32 8t20 16t11 8q6 0 16.5 -12t10.5 -22q0 -7 -21.5 -28t-64.5 -42.5t-88 -21.5q-38 0 -68 12t-47.5 31.5t-27.5 37.5t-15 37zM600 477l-162 -43
q-194 -51 -194 -225q0 -55 38.5 -100.5t108.5 -45.5t180 89q29 22 29 53v272zM401 1374l144 -258q12 -24 12 -49q0 -8 -9.5 -15.5t-21.5 -7.5q-15 0 -59 41l-234 224l5 22q63 47 133 47q14 0 30 -4z" />
    <glyph glyph-name="aacute" unicode="&#xe1;" horiz-adv-x="935" 
d="M600 98h-4l-41 -32q-68 -53 -110.5 -69.5t-112.5 -16.5q-116 0 -187 53t-71 168q0 102 93 180.5t245 116.5l176 43q12 4 12 24q0 266 -166 266q-68 0 -119 -21.5t-51 -64.5q0 -28 4 -40q6 -12 6 -37q0 -24 -24.5 -46t-65.5 -22q-71 0 -71 72q0 54 49 107t128 86.5
t161 33.5q49 0 90 -7.5t83 -30.5t71 -60t47 -100.5t18 -147.5v-305q0 -29 0.5 -46t3 -40.5t7.5 -36.5t14 -26t23.5 -19t33.5 -6t32 8t20 16t11 8q6 0 16.5 -12t10.5 -22q0 -7 -21.5 -28t-64.5 -42.5t-88 -21.5q-38 0 -68 12t-47.5 31.5t-27.5 37.5t-15 37zM600 477l-162 -43
q-194 -51 -194 -225q0 -55 38.5 -100.5t108.5 -45.5t180 89q29 22 29 53v272zM500 1374q12 4 28 4q64 0 113 -47l6 -22l-235 -224q-38 -38 -62 -38q-11 0 -19.5 8t-8.5 18q0 16 4 25.5t19 31.5z" />
    <glyph glyph-name="acircumflex" unicode="&#xe2;" horiz-adv-x="935" 
d="M600 98h-4l-41 -32q-68 -53 -110.5 -69.5t-112.5 -16.5q-116 0 -187 53t-71 168q0 102 93 180.5t245 116.5l176 43q12 4 12 24q0 266 -166 266q-68 0 -119 -21.5t-51 -64.5q0 -28 4 -40q6 -12 6 -37q0 -24 -24.5 -46t-65.5 -22q-71 0 -71 72q0 54 49 107t128 86.5
t161 33.5q49 0 90 -7.5t83 -30.5t71 -60t47 -100.5t18 -147.5v-305q0 -29 0.5 -46t3 -40.5t7.5 -36.5t14 -26t23.5 -19t33.5 -6t32 8t20 16t11 8q6 0 16.5 -12t10.5 -22q0 -7 -21.5 -28t-64.5 -42.5t-88 -21.5q-38 0 -68 12t-47.5 31.5t-27.5 37.5t-15 37zM600 477l-162 -43
q-194 -51 -194 -225q0 -55 38.5 -100.5t108.5 -45.5t180 89q29 22 29 53v272zM473 1352q77 -125 223 -287q-21 -30 -47 -35q-118 74 -211 170q-115 -115 -213 -170q-25 6 -45 35q157 174 228 287q35 8 65 0z" />
    <glyph glyph-name="atilde" unicode="&#xe3;" horiz-adv-x="935" 
d="M600 98h-4l-41 -32q-68 -53 -110.5 -69.5t-112.5 -16.5q-116 0 -187 53t-71 168q0 102 93 180.5t245 116.5l176 43q12 4 12 24q0 266 -166 266q-68 0 -119 -21.5t-51 -64.5q0 -28 4 -40q6 -12 6 -37q0 -24 -24.5 -46t-65.5 -22q-71 0 -71 72q0 54 49 107t128 86.5
t161 33.5q49 0 90 -7.5t83 -30.5t71 -60t47 -100.5t18 -147.5v-305q0 -29 0.5 -46t3 -40.5t7.5 -36.5t14 -26t23.5 -19t33.5 -6t32 8t20 16t11 8q6 0 16.5 -12t10.5 -22q0 -7 -21.5 -28t-64.5 -42.5t-88 -21.5q-38 0 -68 12t-47.5 31.5t-27.5 37.5t-15 37zM600 477l-162 -43
q-194 -51 -194 -225q0 -55 38.5 -100.5t108.5 -45.5t180 89q29 22 29 53v272zM580 1174q35 0 55 21.5t41 84.5q33 3 55 -12q-19 -95 -64 -149t-114 -54q-13 0 -26 3.5t-28.5 12l-24 13.5t-28 18.5t-24.5 17.5q-63 39 -111 39q-38 0 -58 -22.5t-36 -75.5q-38 -7 -55 10
q23 97 62 149t102 52q17 0 33.5 -3.5t34 -13.5l26.5 -15t29.5 -20.5t23.5 -17.5q50 -38 107 -38z" />
    <glyph glyph-name="adieresis" unicode="&#xe4;" horiz-adv-x="935" 
d="M600 98h-4l-41 -32q-68 -53 -110.5 -69.5t-112.5 -16.5q-116 0 -187 53t-71 168q0 102 93 180.5t245 116.5l176 43q12 4 12 24q0 266 -166 266q-68 0 -119 -21.5t-51 -64.5q0 -28 4 -40q6 -12 6 -37q0 -24 -24.5 -46t-65.5 -22q-71 0 -71 72q0 54 49 107t128 86.5
t161 33.5q49 0 90 -7.5t83 -30.5t71 -60t47 -100.5t18 -147.5v-305q0 -29 0.5 -46t3 -40.5t7.5 -36.5t14 -26t23.5 -19t33.5 -6t32 8t20 16t11 8q6 0 16.5 -12t10.5 -22q0 -7 -21.5 -28t-64.5 -42.5t-88 -21.5q-38 0 -68 12t-47.5 31.5t-27.5 37.5t-15 37zM600 477l-162 -43
q-194 -51 -194 -225q0 -55 38.5 -100.5t108.5 -45.5t180 89q29 22 29 53v272zM516 1178q0 40 28 69t68 29t68.5 -29t28.5 -69t-28.5 -68.5t-68.5 -28.5t-68 28.5t-28 68.5zM170 1178q0 40 28 69t68 29t68 -29t28 -69t-28 -68.5t-68 -28.5t-68 28.5t-28 68.5z" />
    <glyph glyph-name="aring" unicode="&#xe5;" horiz-adv-x="935" 
d="M600 98h-4l-41 -32q-68 -53 -110.5 -69.5t-112.5 -16.5q-116 0 -187 53t-71 168q0 102 93 180.5t245 116.5l176 43q12 4 12 24q0 266 -166 266q-68 0 -119 -21.5t-51 -64.5q0 -28 4 -40q6 -12 6 -37q0 -24 -24.5 -46t-65.5 -22q-71 0 -71 72q0 54 49 107t128 86.5
t161 33.5q49 0 90 -7.5t83 -30.5t71 -60t47 -100.5t18 -147.5v-305q0 -29 0.5 -46t3 -40.5t7.5 -36.5t14 -26t23.5 -19t33.5 -6t32 8t20 16t11 8q6 0 16.5 -12t10.5 -22q0 -7 -21.5 -28t-64.5 -42.5t-88 -21.5q-38 0 -68 12t-47.5 31.5t-27.5 37.5t-15 37zM600 477l-162 -43
q-194 -51 -194 -225q0 -55 38.5 -100.5t108.5 -45.5t180 89q29 22 29 53v272zM250 1192q0 70 54.5 122t125.5 52t125.5 -51.5t54.5 -122.5q0 -69 -53.5 -121.5t-126.5 -52.5q-71 0 -125.5 52t-54.5 122zM430 1300q-46 0 -72 -30.5t-26 -77.5q0 -45 26.5 -77t71.5 -32
t71.5 32t26.5 77q0 48 -26.5 78t-71.5 30z" />
    <glyph glyph-name="ae" unicode="&#xe6;" horiz-adv-x="1406" 
d="M762 518q234 3 321.5 39.5t87.5 130.5q0 52 -50 97.5t-120 45.5q-100 0 -163 -88t-76 -225zM610 440q-202 -16 -307 -92q-76 -55 -76 -129q0 -69 43.5 -111t126.5 -42q50 0 115 52t88 113q10 49 10 209zM543 786q-21 22 -59 33.5t-74 11.5q-65 0 -111.5 -23t-46.5 -65
q0 -32 6 -41q6 -12 6 -36q0 -27 -22 -47.5t-58 -20.5q-43 0 -62.5 27.5t-19.5 64.5q0 87 99.5 148t228.5 61q21 0 41.5 -1.5t57 -9.5t67 -22t63 -42.5t54.5 -67.5q51 69 127 106t164 37q82 0 148 -22t102 -55t54.5 -66t18.5 -62q0 -66 -22.5 -108.5t-83.5 -75t-173 -47.5
t-288 -17q0 -92 36 -176t99.5 -137t138.5 -53q140 0 244 123q22 -2 41 -33q-45 -85 -129.5 -137.5t-183.5 -52.5q-65 0 -118.5 13.5t-92 40t-56.5 43t-43 44.5q-14 12 -21.5 9t-27.5 -24q-123 -126 -274 -126q-131 0 -193 36q-100 56 -100 193q0 61 36.5 119.5t92.5 91.5
q124 73 401 92q-1 119 -16 178t-51 96z" />
    <glyph glyph-name="ccedilla" unicode="&#xe7;" horiz-adv-x="866" 
d="M467 -197q-52 0 -92 -12l-13 12l75 178q-170 15 -265.5 135.5t-95.5 309.5q0 105 37 196t97 150.5t134.5 93t151.5 33.5q145 0 229 -54t84 -140q0 -43 -31.5 -67t-68.5 -24q-70 0 -78 74q-4 32 -10 53.5t-20.5 44t-43.5 34t-72 11.5q-103 0 -168 -97t-65 -263
q0 -176 79 -283.5t195 -107.5q141 0 246 135q32 -4 43 -29q-67 -110 -141.5 -156t-166.5 -50l-44 -117q24 6 53 6q63 0 104.5 -35t41.5 -92q0 -66 -63 -109t-157 -43q-46 0 -77 8t-74 27q0 33 20 53q77 -28 119 -28q47 0 76 21.5t29 60.5q0 71 -68 71z" />
    <glyph glyph-name="egrave" unicode="&#xe8;" horiz-adv-x="915" 
d="M791 190q34 -3 43 -32q-138 -178 -349 -178q-201 0 -313 131q-96 110 -96 303q0 90 25.5 169t67.5 135t95.5 97t110 60.5t110.5 19.5q346 0 346 -356q0 -35 -38 -35l-545 4q0 -173 65 -281q45 -74 104.5 -110.5t119.5 -36.5q86 0 140.5 24.5t113.5 85.5zM254 578l371 6
q30 0 30 28q0 61 -15 105.5t-41 67t-54 32.5t-60 10q-20 0 -39.5 -3.5t-51 -18t-57 -39.5t-49 -74t-34.5 -114zM430 1374l143 -258q13 -26 13 -49q0 -8 -9.5 -15.5t-21.5 -7.5q-15 0 -59 41l-234 224l4 22q63 47 133 47q15 0 31 -4z" />
    <glyph glyph-name="eacute" unicode="&#xe9;" horiz-adv-x="915" 
d="M791 190q34 -3 43 -32q-138 -178 -349 -178q-201 0 -313 131q-96 110 -96 303q0 90 25.5 169t67.5 135t95.5 97t110 60.5t110.5 19.5q346 0 346 -356q0 -35 -38 -35l-545 4q0 -173 65 -281q45 -74 104.5 -110.5t119.5 -36.5q86 0 140.5 24.5t113.5 85.5zM254 578l371 6
q30 0 30 28q0 61 -15 105.5t-41 67t-54 32.5t-60 10q-20 0 -39.5 -3.5t-51 -18t-57 -39.5t-49 -74t-34.5 -114zM553 1374q12 4 29 4q63 0 112 -47l6 -22l-235 -224q-38 -38 -62 -38q-11 0 -19.5 8t-8.5 18q0 16 4 25.5t19 31.5z" />
    <glyph glyph-name="ecircumflex" unicode="&#xea;" horiz-adv-x="915" 
d="M791 190q34 -3 43 -32q-138 -178 -349 -178q-201 0 -313 131q-96 110 -96 303q0 90 25.5 169t67.5 135t95.5 97t110 60.5t110.5 19.5q346 0 346 -356q0 -35 -38 -35l-545 4q0 -173 65 -281q45 -74 104.5 -110.5t119.5 -36.5q86 0 140.5 24.5t113.5 85.5zM254 578l371 6
q30 0 30 28q0 61 -15 105.5t-41 67t-54 32.5t-60 10q-20 0 -39.5 -3.5t-51 -18t-57 -39.5t-49 -74t-34.5 -114zM510 1352q77 -125 223 -287q-21 -30 -47 -35q-118 74 -211 170q-115 -115 -213 -170q-25 6 -45 35q154 171 227 287q36 8 66 0z" />
    <glyph glyph-name="edieresis" unicode="&#xeb;" horiz-adv-x="915" 
d="M791 190q34 -3 43 -32q-138 -178 -349 -178q-201 0 -313 131q-96 110 -96 303q0 90 25.5 169t67.5 135t95.5 97t110 60.5t110.5 19.5q346 0 346 -356q0 -35 -38 -35l-545 4q0 -173 65 -281q45 -74 104.5 -110.5t119.5 -36.5q86 0 140.5 24.5t113.5 85.5zM254 578l371 6
q30 0 30 28q0 61 -15 105.5t-41 67t-54 32.5t-60 10q-20 0 -39.5 -3.5t-51 -18t-57 -39.5t-49 -74t-34.5 -114zM549 1178q0 40 28 69t68 29t68 -29t28 -69t-28 -68.5t-68 -28.5t-68 28.5t-28 68.5zM203 1178q0 40 28 69t68 29t68 -29t28 -69t-28 -68.5t-68 -28.5t-68 28.5
t-28 68.5z" />
    <glyph glyph-name="igrave" unicode="&#xec;" horiz-adv-x="555" 
d="M371 250q0 -44 1.5 -72t9 -50t15.5 -32.5t27.5 -18t38.5 -10t55 -4.5q9 -9 9 -33.5t-9 -33.5q-176 4 -227 4q-58 0 -230 -4q-9 9 -9 33.5t9 33.5q37 3 55 5.5t38.5 10t28 18t15.5 32t9.5 49.5t1.5 72v399q0 46 -4.5 70t-21 39.5t-39 20.5t-68.5 9q-3 10 -5 29t1 29
q194 25 280 59q27 0 27 -14q-8 -131 -8 -233v-408zM203 1374l143 -258q12 -24 12 -49q0 -8 -9 -15.5t-21 -7.5q-16 0 -60 41l-233 224l4 22q63 47 133 47q15 0 31 -4z" />
    <glyph glyph-name="iacute" unicode="&#xed;" horiz-adv-x="555" 
d="M371 250q0 -44 1.5 -72t9 -50t15.5 -32.5t27.5 -18t38.5 -10t55 -4.5q9 -9 9 -33.5t-9 -33.5q-176 4 -227 4q-58 0 -230 -4q-9 9 -9 33.5t9 33.5q37 3 55 5.5t38.5 10t28 18t15.5 32t9.5 49.5t1.5 72v399q0 46 -4.5 70t-21 39.5t-39 20.5t-68.5 9q-3 10 -5 29t1 29
q194 25 280 59q27 0 27 -14q-8 -131 -8 -233v-408zM334 1374q12 4 28 4q64 0 113 -47l6 -22l-235 -224q-38 -38 -62 -38q-11 0 -19.5 8t-8.5 18q0 16 4 25.5t19 31.5z" />
    <glyph glyph-name="icircumflex" unicode="&#xee;" horiz-adv-x="555" 
d="M371 250q0 -44 1.5 -72t9 -50t15.5 -32.5t27.5 -18t38.5 -10t55 -4.5q9 -9 9 -33.5t-9 -33.5q-176 4 -227 4q-58 0 -230 -4q-9 9 -9 33.5t9 33.5q37 3 55 5.5t38.5 10t28 18t15.5 32t9.5 49.5t1.5 72v399q0 46 -4.5 70t-21 39.5t-39 20.5t-68.5 9q-3 10 -5 29t1 29
q194 25 280 59q27 0 27 -14q-8 -131 -8 -233v-408zM289 1352q77 -125 223 -287q-21 -30 -47 -35q-118 74 -211 170q-115 -115 -213 -170q-25 6 -45 35q154 171 227 287q36 8 66 0z" />
    <glyph glyph-name="idieresis" unicode="&#xef;" horiz-adv-x="555" 
d="M371 250q0 -44 1.5 -72t9 -50t15.5 -32.5t27.5 -18t38.5 -10t55 -4.5q9 -9 9 -33.5t-9 -33.5q-176 4 -227 4q-58 0 -230 -4q-9 9 -9 33.5t9 33.5q37 3 55 5.5t38.5 10t28 18t15.5 32t9.5 49.5t1.5 72v399q0 46 -4.5 70t-21 39.5t-39 20.5t-68.5 9q-3 10 -5 29t1 29
q194 25 280 59q27 0 27 -14q-8 -131 -8 -233v-408zM338 1178q0 40 28 69t68 29t68 -29t28 -69t-28 -68.5t-68 -28.5t-68 28.5t-28 68.5zM-8 1178q0 40 28 69t68 29t68 -29t28 -69t-28 -68.5t-68 -28.5t-68 28.5t-28 68.5z" />
    <glyph glyph-name="eth" unicode="&#xf0;" horiz-adv-x="995" 
d="M70 426q0 102 29.5 185t76 135t106 88t116 50.5t110.5 14.5q82 0 156 -29q-63 153 -183 301l-223 -149l-45 65l215 146l-33 33q-62 65 -139 120l33 44q103 -56 217 -146l217 146l45 -66l-199 -133l37 -37q309 -309 309 -709q0 -125 -36.5 -224t-99 -159t-140.5 -91
t-166 -31q-92 0 -169.5 39.5t-127.5 103.5t-78 143t-28 160zM508 53q32 0 61.5 9.5t62 37.5t56.5 71t39.5 117t15.5 169q0 159 -32 272q-78 98 -207 98q-60 0 -106.5 -23.5t-74 -60t-46 -86.5t-25 -97.5t-6.5 -98.5q0 -174 76 -291t186 -117z" />
    <glyph glyph-name="ntilde" unicode="&#xf1;" horiz-adv-x="1097" 
d="M377 733q87 97 162.5 131.5t160.5 34.5q116 0 170 -70q56 -75 56 -274v-305q0 -37 2 -62.5t5 -46t11 -32.5t16.5 -20.5t25.5 -13.5t33 -7.5t44 -4.5q7 -9 7 -33.5t-7 -33.5q-176 4 -217 4q-37 0 -209 -4q-7 9 -7 33.5t7 33.5q45 4 65.5 9.5t37 25t20.5 53.5t4 99v311
q0 107 -25 158q-18 35 -47.5 54.5t-60.5 19.5q-114 0 -238 -121q-35 -39 -35 -86v-336q0 -65 3.5 -99t19.5 -53.5t36 -25t64 -9.5q9 -9 9 -33.5t-9 -33.5q-172 4 -202 4q-58 0 -226 -4q-9 9 -9 33.5t9 33.5q35 3 53.5 5.5t38 10t27 18.5t15 32.5t9 49t1.5 71.5v399
q0 46 -4.5 70.5t-21.5 39.5t-39 20t-69 9q-3 10 -5 29t1 29q200 26 283 59q25 0 25 -16q-11 -95 -11 -156q0 -28 21 0zM709 1174q35 0 55 21.5t41 84.5q33 3 55 -12q-19 -95 -64 -149t-114 -54q-13 0 -26 3.5t-28.5 12l-24 13.5t-28 18.5t-24.5 17.5q-63 39 -111 39
q-38 0 -58 -22.5t-36 -75.5q-38 -7 -55 10q23 97 62 149t102 52q17 0 33.5 -3.5t34 -13.5l26.5 -15t29.5 -20.5t23.5 -17.5q50 -38 107 -38z" />
    <glyph glyph-name="ograve" unicode="&#xf2;" horiz-adv-x="1032" 
d="M496 831q-82 0 -137 -55.5t-77 -134.5t-22 -174q0 -50 9.5 -104.5t32 -111.5t55 -102t83 -73.5t111.5 -28.5q32 0 60.5 7.5t58.5 29.5t52 57t36 94.5t14 137.5q0 224 -71.5 341t-204.5 117zM84 420q0 132 50 239.5t150 173.5t234 66q92 0 166 -27.5t122.5 -73t81 -106.5
t46.5 -124t14 -130q0 -63 -15.5 -126t-50 -123.5t-83.5 -106.5t-123 -74t-162 -28q-104 0 -188.5 39t-135.5 103t-78.5 140.5t-27.5 157.5zM459 1374l143 -258q12 -24 12 -49q0 -8 -9 -15.5t-21 -7.5q-16 0 -60 41l-233 224l4 22q63 47 133 47q15 0 31 -4z" />
    <glyph glyph-name="oacute" unicode="&#xf3;" horiz-adv-x="1032" 
d="M496 831q-82 0 -137 -55.5t-77 -134.5t-22 -174q0 -50 9.5 -104.5t32 -111.5t55 -102t83 -73.5t111.5 -28.5q32 0 60.5 7.5t58.5 29.5t52 57t36 94.5t14 137.5q0 224 -71.5 341t-204.5 117zM84 420q0 132 50 239.5t150 173.5t234 66q92 0 166 -27.5t122.5 -73t81 -106.5
t46.5 -124t14 -130q0 -63 -15.5 -126t-50 -123.5t-83.5 -106.5t-123 -74t-162 -28q-104 0 -188.5 39t-135.5 103t-78.5 140.5t-27.5 157.5zM553 1374q12 4 29 4q63 0 112 -47l6 -22l-235 -224q-38 -38 -62 -38q-11 0 -19.5 8t-8.5 18q0 16 4 25.5t19 31.5z" />
    <glyph glyph-name="ocircumflex" unicode="&#xf4;" horiz-adv-x="1032" 
d="M496 831q-82 0 -137 -55.5t-77 -134.5t-22 -174q0 -50 9.5 -104.5t32 -111.5t55 -102t83 -73.5t111.5 -28.5q32 0 60.5 7.5t58.5 29.5t52 57t36 94.5t14 137.5q0 224 -71.5 341t-204.5 117zM84 420q0 132 50 239.5t150 173.5t234 66q92 0 166 -27.5t122.5 -73t81 -106.5
t46.5 -124t14 -130q0 -63 -15.5 -126t-50 -123.5t-83.5 -106.5t-123 -74t-162 -28q-104 0 -188.5 39t-135.5 103t-78.5 140.5t-27.5 157.5zM549 1352q77 -125 223 -287q-21 -30 -47 -35q-118 74 -211 170q-115 -115 -213 -170q-25 6 -45 35q154 171 227 287q36 8 66 0z" />
    <glyph glyph-name="otilde" unicode="&#xf5;" horiz-adv-x="1032" 
d="M496 831q-82 0 -137 -55.5t-77 -134.5t-22 -174q0 -50 9.5 -104.5t32 -111.5t55 -102t83 -73.5t111.5 -28.5q32 0 60.5 7.5t58.5 29.5t52 57t36 94.5t14 137.5q0 224 -71.5 341t-204.5 117zM84 420q0 132 50 239.5t150 173.5t234 66q92 0 166 -27.5t122.5 -73t81 -106.5
t46.5 -124t14 -130q0 -63 -15.5 -126t-50 -123.5t-83.5 -106.5t-123 -74t-162 -28q-104 0 -188.5 39t-135.5 103t-78.5 140.5t-27.5 157.5zM623 1174q35 0 55 21.5t41 84.5q33 3 55 -12q-19 -95 -64 -149t-114 -54q-13 0 -26 3.5t-28.5 12l-24 13.5t-28 18.5t-24.5 17.5
q-63 39 -111 39q-38 0 -58 -22.5t-36 -75.5q-38 -7 -55 10q23 97 62 149t102 52q17 0 33.5 -3.5t34 -13.5l26.5 -15t29.5 -20.5t23.5 -17.5q50 -38 107 -38z" />
    <glyph glyph-name="odieresis" unicode="&#xf6;" horiz-adv-x="1032" 
d="M496 831q-82 0 -137 -55.5t-77 -134.5t-22 -174q0 -50 9.5 -104.5t32 -111.5t55 -102t83 -73.5t111.5 -28.5q32 0 60.5 7.5t58.5 29.5t52 57t36 94.5t14 137.5q0 224 -71.5 341t-204.5 117zM84 420q0 132 50 239.5t150 173.5t234 66q92 0 166 -27.5t122.5 -73t81 -106.5
t46.5 -124t14 -130q0 -63 -15.5 -126t-50 -123.5t-83.5 -106.5t-123 -74t-162 -28q-104 0 -188.5 39t-135.5 103t-78.5 140.5t-27.5 157.5zM594 1178q0 40 28 69t68 29t68 -29t28 -69t-28 -68.5t-68 -28.5t-68 28.5t-28 68.5zM248 1178q0 40 28 69t68 29t68 -29t28 -69
t-28 -68.5t-68 -28.5t-68 28.5t-28 68.5z" />
    <glyph glyph-name="divide" unicode="&#xf7;" horiz-adv-x="1079" 
d="M944 526v-100h-809v100h809zM452 201q0 37 27 64t64 27t64 -27t27 -64t-27 -64t-64 -27t-64 27t-27 64zM452 750q0 37 26.5 63.5t64.5 26.5t64.5 -26.5t26.5 -63.5q0 -38 -27 -64.5t-64 -26.5t-64 26.5t-27 64.5z" />
    <glyph glyph-name="oslash" unicode="&#xf8;" horiz-adv-x="1032" 
d="M728 659l-393 -478q80 -134 216 -134q32 0 60.5 7.5t58.5 29.5t52 57t36 94.5t14 137.5q0 175 -44 286zM496 831q-82 0 -137 -55.5t-77 -134.5t-22 -174q0 -105 37 -205l390 473q-69 96 -191 96zM848 930q49 0 63 -47l-85 -104q62 -66 92 -155.5t30 -185.5
q0 -63 -15.5 -126t-50 -123.5t-83.5 -106.5t-123 -74t-162 -28q-159 0 -270 90l-105 -127q-25 0 -41.5 15t-19.5 38l108 131q-102 125 -102 293q0 132 50 239.5t150 173.5t234 66q147 0 248 -69z" />
    <glyph glyph-name="ugrave" unicode="&#xf9;" horiz-adv-x="1075" 
d="M444 -20q-59 0 -105 15.5t-75.5 41.5t-48.5 62.5t-27 75.5t-8 83v393q0 97 -25.5 127.5t-101.5 36.5q-9 9 -9 34t9 34q152 -4 209 -4q52 0 72 4q16 0 16 -13q-8 -150 -8 -211v-372q0 -64 16.5 -109t43.5 -65.5t52 -28.5t52 -8q79 0 192 98q21 18 27 33.5t6 46.5v395
q0 99 -25 130t-102 36q-9 9 -9 34t9 34q152 -4 209 -4q52 0 72 4q16 0 16 -13q-8 -150 -8 -211v-393q0 -80 27.5 -111t121.5 -38q9 -9 9 -28t-9 -28q-172 -19 -247 -81q-21 -7 -39 0q-23 72 -23 120q0 7 -4 9t-9.5 0t-10.5 -6q-151 -123 -265 -123zM449 1374l143 -258
q12 -24 12 -49q0 -8 -9.5 -15.5t-21.5 -7.5q-15 0 -59 41l-233 224l4 22q63 47 133 47q15 0 31 -4z" />
    <glyph glyph-name="uacute" unicode="&#xfa;" horiz-adv-x="1075" 
d="M444 -20q-59 0 -105 15.5t-75.5 41.5t-48.5 62.5t-27 75.5t-8 83v393q0 97 -25.5 127.5t-101.5 36.5q-9 9 -9 34t9 34q152 -4 209 -4q52 0 72 4q16 0 16 -13q-8 -150 -8 -211v-372q0 -64 16.5 -109t43.5 -65.5t52 -28.5t52 -8q79 0 192 98q21 18 27 33.5t6 46.5v395
q0 99 -25 130t-102 36q-9 9 -9 34t9 34q152 -4 209 -4q52 0 72 4q16 0 16 -13q-8 -150 -8 -211v-393q0 -80 27.5 -111t121.5 -38q9 -9 9 -28t-9 -28q-172 -19 -247 -81q-21 -7 -39 0q-23 72 -23 120q0 7 -4 9t-9.5 0t-10.5 -6q-151 -123 -265 -123zM608 1374q12 4 29 4
q64 0 113 -47l6 -22l-236 -224q-38 -38 -61 -38q-11 0 -20 8t-9 18q0 16 4 25.5t19 31.5z" />
    <glyph glyph-name="ucircumflex" unicode="&#xfb;" horiz-adv-x="1075" 
d="M444 -20q-59 0 -105 15.5t-75.5 41.5t-48.5 62.5t-27 75.5t-8 83v393q0 97 -25.5 127.5t-101.5 36.5q-9 9 -9 34t9 34q152 -4 209 -4q52 0 72 4q16 0 16 -13q-8 -150 -8 -211v-372q0 -64 16.5 -109t43.5 -65.5t52 -28.5t52 -8q79 0 192 98q21 18 27 33.5t6 46.5v395
q0 99 -25 130t-102 36q-9 9 -9 34t9 34q152 -4 209 -4q52 0 72 4q16 0 16 -13q-8 -150 -8 -211v-393q0 -80 27.5 -111t121.5 -38q9 -9 9 -28t-9 -28q-172 -19 -247 -81q-21 -7 -39 0q-23 72 -23 120q0 7 -4 9t-9.5 0t-10.5 -6q-151 -123 -265 -123zM539 1352
q77 -125 223 -287q-21 -30 -47 -35q-118 74 -211 170q-115 -115 -213 -170q-25 6 -45 35q154 171 227 287q36 8 66 0z" />
    <glyph glyph-name="udieresis" unicode="&#xfc;" horiz-adv-x="1075" 
d="M444 -20q-59 0 -105 15.5t-75.5 41.5t-48.5 62.5t-27 75.5t-8 83v393q0 97 -25.5 127.5t-101.5 36.5q-9 9 -9 34t9 34q152 -4 209 -4q52 0 72 4q16 0 16 -13q-8 -150 -8 -211v-372q0 -64 16.5 -109t43.5 -65.5t52 -28.5t52 -8q79 0 192 98q21 18 27 33.5t6 46.5v395
q0 99 -25 130t-102 36q-9 9 -9 34t9 34q152 -4 209 -4q52 0 72 4q16 0 16 -13q-8 -150 -8 -211v-393q0 -80 27.5 -111t121.5 -38q9 -9 9 -28t-9 -28q-172 -19 -247 -81q-21 -7 -39 0q-23 72 -23 120q0 7 -4 9t-9.5 0t-10.5 -6q-151 -123 -265 -123zM598 1178q0 40 28 69
t68 29t68.5 -29t28.5 -69t-28.5 -68.5t-68.5 -28.5t-68 28.5t-28 68.5zM252 1178q0 40 28 69t68 29t68 -29t28 -69t-28 -68.5t-68 -28.5t-68 28.5t-28 68.5z" />
    <glyph glyph-name="yacute" unicode="&#xfd;" horiz-adv-x="1062" 
d="M426 -328q-83 -147 -199 -147q-41 0 -68.5 22t-27.5 54q0 26 25 57t65 31q11 0 28 -3t32 -3q38 0 61 14t41 45q48 98 80 188q13 38 1.5 94t-30.5 99l-231 539q-42 97 -68.5 122t-93.5 31q-9 9 -9 34t9 34q82 -4 166 -4q79 0 231 4q9 -9 9 -34t-9 -34q-45 -4 -67.5 -11.5
t-26 -24.5t1.5 -34t20 -52q3 -7 5 -11l182 -426q25 -59 49 -2l203 469q8 18 8.5 32t-5.5 23.5t-15 16t-24.5 10.5t-29 6t-32.5 4q-9 9 -9 34t9 34q152 -4 186 -4q43 0 145 4q9 -9 9 -34t-9 -34q-53 -4 -97 -42.5t-69 -88.5q-104 -219 -362 -836q-40 -98 -84 -176zM645 1374
q12 4 29 4q63 0 112 -47l7 -22l-236 -224q-38 -38 -61 -38q-11 0 -20 8t-9 18q0 16 4 25.5t19 31.5z" />
    <glyph glyph-name="thorn" unicode="&#xfe;" horiz-adv-x="1028" 
d="M172 1145q0 35 -2 59.5t-4 43t-10 29.5l-13.5 18t-21.5 10.5t-26.5 4.5t-34.5 2q-12 1 -19 1q-9 9 -12 28.5t0 32.5q61 4 154.5 22.5t131.5 33.5q27 0 27 -21q-8 -82 -8 -215v-391q0 -33 6 -35.5t29 21.5q108 110 235 110q97 0 177.5 -59.5t125.5 -155.5t45 -203
q0 -236 -147 -383q-118 -118 -287 -118q-79 0 -145 26l-12.5 6.5t-11.5 5t-7.5 -1t-6 -10.5t-1.5 -26v-205q0 -45 2 -72.5t10 -49.5t17 -32.5t31.5 -18t44 -10t63.5 -4.5q9 -9 9 -33.5t-9 -33.5q-176 4 -248 4q-57 0 -229 -4q-9 9 -9 33.5t9 33.5q53 3 77 7.5t42.5 24.5
t23 54.5t4.5 100.5v1370zM330 590v-389q0 -46 7 -64t28 -35q61 -53 143 -53q78 0 133 33t83 90t40 119t12 135q0 106 -22.5 187.5t-83.5 142.5q-49 49 -119 49q-28 0 -64 -14t-72 -39.5t-60.5 -68.5t-24.5 -93z" />
    <glyph glyph-name="ydieresis" unicode="&#xff;" horiz-adv-x="1062" 
d="M426 -328q-83 -147 -199 -147q-41 0 -68.5 22t-27.5 54q0 26 25 57t65 31q11 0 28 -3t32 -3q38 0 61 14t41 45q48 98 80 188q13 38 1.5 94t-30.5 99l-231 539q-42 97 -68.5 122t-93.5 31q-9 9 -9 34t9 34q82 -4 166 -4q79 0 231 4q9 -9 9 -34t-9 -34q-45 -4 -67.5 -11.5
t-26 -24.5t1.5 -34t20 -52q3 -7 5 -11l182 -426q25 -59 49 -2l203 469q8 18 8.5 32t-5.5 23.5t-15 16t-24.5 10.5t-29 6t-32.5 4q-9 9 -9 34t9 34q152 -4 186 -4q43 0 145 4q9 -9 9 -34t-9 -34q-53 -4 -97 -42.5t-69 -88.5q-104 -219 -362 -836q-40 -98 -84 -176zM633 1178
q0 40 28 69t68 29t68 -29t28 -69t-28 -68.5t-68 -28.5t-68 28.5t-28 68.5zM287 1178q0 40 28 69t68 29t68 -29t28 -69t-28 -68.5t-68 -28.5t-68 28.5t-28 68.5z" />
    <glyph glyph-name="Amacron" unicode="&#x100;" horiz-adv-x="1423" 
d="M317 162q-6 -15 -6.5 -28t4.5 -22.5t12.5 -16.5t20 -12t24 -8.5t28.5 -6t29.5 -3.5t29.5 -2q9 -9 9 -33.5t-9 -33.5q-152 4 -262 4q-31 0 -183 -4q-9 9 -9 33.5t9 33.5q78 5 123 32t82 114l455 1065q18 42 32.5 58t36.5 16q20 0 31.5 -14.5t24.5 -47.5l420 -1110
q11 -29 26 -49.5t28 -31.5t38 -18t37.5 -8.5t44.5 -4.5q6 -1 10 -1q9 -9 9 -33.5t-9 -33.5q-152 4 -234 4q-116 0 -268 -4q-9 9 -9 33.5t9 33.5q12 1 31.5 2t30.5 2l27 2.5t24.5 4t19 6.5t15 9.5t8 13.5t2.5 19t-6 25l-125 347h-426q-36 0 -50 -7t-22 -28zM539 580h356
l-199 546h-4l-205 -519q-7 -16 5 -21.5t47 -5.5zM946 1511h-459q-12 0 -19 12t-7 25q0 20 14.5 43t30.5 23h461q13 0 20.5 -11.5t7.5 -23.5q0 -21 -15 -44.5t-34 -23.5z" />
    <glyph glyph-name="amacron" unicode="&#x101;" horiz-adv-x="935" 
d="M600 98h-4l-41 -32q-68 -53 -110.5 -69.5t-112.5 -16.5q-116 0 -187 53t-71 168q0 102 93 180.5t245 116.5l176 43q12 4 12 24q0 266 -166 266q-68 0 -119 -21.5t-51 -64.5q0 -28 4 -40q6 -12 6 -37q0 -24 -24.5 -46t-65.5 -22q-71 0 -71 72q0 54 49 107t128 86.5
t161 33.5q49 0 90 -7.5t83 -30.5t71 -60t47 -100.5t18 -147.5v-305q0 -29 0.5 -46t3 -40.5t7.5 -36.5t14 -26t23.5 -19t33.5 -6t32 8t20 16t11 8q6 0 16.5 -12t10.5 -22q0 -7 -21.5 -28t-64.5 -42.5t-88 -21.5q-38 0 -68 12t-47.5 31.5t-27.5 37.5t-15 37zM600 477l-162 -43
q-194 -51 -194 -225q0 -55 38.5 -100.5t108.5 -45.5t180 89q29 22 29 53v272zM659 1061h-458q-12 0 -19.5 12.5t-7.5 24.5q0 20 14.5 42.5t30.5 22.5h461q13 0 21 -12t8 -23q0 -21 -15.5 -44t-34.5 -23z" />
    <glyph glyph-name="Abreve" unicode="&#x102;" horiz-adv-x="1423" 
d="M317 162q-6 -15 -6.5 -28t4.5 -22.5t12.5 -16.5t20 -12t24 -8.5t28.5 -6t29.5 -3.5t29.5 -2q9 -9 9 -33.5t-9 -33.5q-152 4 -262 4q-31 0 -183 -4q-9 9 -9 33.5t9 33.5q78 5 123 32t82 114l455 1065q18 42 32.5 58t36.5 16q20 0 31.5 -14.5t24.5 -47.5l420 -1110
q11 -29 26 -49.5t28 -31.5t38 -18t37.5 -8.5t44.5 -4.5q6 -1 10 -1q9 -9 9 -33.5t-9 -33.5q-152 4 -234 4q-116 0 -268 -4q-9 9 -9 33.5t9 33.5q12 1 31.5 2t30.5 2l27 2.5t24.5 4t19 6.5t15 9.5t8 13.5t2.5 19t-6 25l-125 347h-426q-36 0 -50 -7t-22 -28zM539 580h356
l-199 546h-4l-205 -519q-7 -16 5 -21.5t47 -5.5zM1012 1647q-9 -105 -91 -168.5t-188 -63.5q-115 0 -193 63.5t-85 168.5h57q12 -58 74 -91.5t147 -33.5q80 0 145.5 34t75.5 91h58z" />
    <glyph glyph-name="abreve" unicode="&#x103;" horiz-adv-x="935" 
d="M600 98h-4l-41 -32q-68 -53 -110.5 -69.5t-112.5 -16.5q-116 0 -187 53t-71 168q0 102 93 180.5t245 116.5l176 43q12 4 12 24q0 266 -166 266q-68 0 -119 -21.5t-51 -64.5q0 -28 4 -40q6 -12 6 -37q0 -24 -24.5 -46t-65.5 -22q-71 0 -71 72q0 54 49 107t128 86.5
t161 33.5q49 0 90 -7.5t83 -30.5t71 -60t47 -100.5t18 -147.5v-305q0 -29 0.5 -46t3 -40.5t7.5 -36.5t14 -26t23.5 -19t33.5 -6t32 8t20 16t11 8q6 0 16.5 -12t10.5 -22q0 -7 -21.5 -28t-64.5 -42.5t-88 -21.5q-38 0 -68 12t-47.5 31.5t-27.5 37.5t-15 37zM600 477l-162 -43
q-194 -51 -194 -225q0 -55 38.5 -100.5t108.5 -45.5t180 89q29 22 29 53v272zM201 1325q17 -82 77.5 -133t143.5 -51t144.5 49t76.5 135l55 -25q-18 -126 -99 -201t-177 -75q-108 0 -181.5 73t-95.5 203z" />
    <glyph glyph-name="Aogonek" unicode="&#x104;" horiz-adv-x="1423" 
d="M539 580h356l-199 546h-4l-205 -519q-7 -16 5 -21.5t47 -5.5zM1436 -276q-86 -134 -226 -134q-82 0 -131 36.5t-49 115.5q0 68 54 143.5t143 114.5h-58q-116 0 -268 -4q-9 9 -9 33.5t9 33.5q12 1 31.5 2t30.5 2l27 2.5t24.5 4t19 6.5t15 9.5t8 13.5t2.5 19t-6 25
l-125 347h-426q-36 0 -50 -7t-22 -28l-113 -297q-6 -15 -6.5 -28t4.5 -22.5t12.5 -16.5t20 -12t24 -8.5t28.5 -6t29.5 -3.5t29.5 -2q9 -9 9 -33.5t-9 -33.5q-152 4 -262 4q-31 0 -183 -4q-9 9 -9 33.5t9 33.5q78 5 123 32t82 114l455 1065q18 42 32.5 58t36.5 16
q20 0 31.5 -14.5t24.5 -47.5l420 -1110q11 -29 26 -49.5t28 -31.5t38 -18t37.5 -8.5t44.5 -4.5q6 -1 10 -1q9 -9 9 -33.5t-9 -33.5q-68 0 -126.5 -39t-89 -91.5t-30.5 -101.5q0 -43 24.5 -69.5t78.5 -26.5q28 0 53 11.5t40 24.5t44 42q26 0 39 -22z" />
    <glyph glyph-name="aogonek" unicode="&#x105;" horiz-adv-x="935" 
d="M600 477l-162 -43q-194 -51 -194 -225q0 -55 38.5 -100.5t108.5 -45.5t180 89q29 22 29 53v272zM942 -276q-86 -134 -225 -134q-82 0 -131 36.5t-49 115.5q0 112 176 242q-87 20 -113 114h-4l-41 -32q-68 -53 -110.5 -69.5t-112.5 -16.5q-116 0 -187 53t-71 168
q0 102 93 180.5t245 116.5l176 43q12 4 12 24q0 266 -166 266q-68 0 -119 -21.5t-51 -64.5q0 -28 4 -40q6 -12 6 -37q0 -24 -24.5 -46t-65.5 -22q-71 0 -71 72q0 54 49 107t128 86.5t161 33.5q49 0 90 -7.5t83 -30.5t71 -60t47 -100.5t18 -147.5v-305q0 -29 0.5 -46t3 -40.5
t7.5 -36.5t14 -26t23.5 -19t33.5 -6t32 8t20 16t11 8q6 0 16.5 -12t10.5 -22q0 -5 -14.5 -20.5t-44.5 -35.5t-63 -29q-77 -66 -111.5 -116t-34.5 -107q0 -96 102 -96q28 0 53 11.5t40 24.5t44 42q26 0 39 -22z" />
    <glyph glyph-name="Cacute" unicode="&#x106;" horiz-adv-x="1323" 
d="M731 -20q-128 0 -236.5 37.5t-184.5 101.5t-129.5 149.5t-79 180.5t-25.5 196q0 159 57 296.5t160 232.5q190 174 440 174q110 0 198 -21t151 -44.5t100 -27.5q37 -232 45 -317q-38 -20 -68 -10q-22 72 -53.5 129t-83 108t-130.5 79t-181 28q-83 0 -168 -45.5
t-159 -136.5q-122 -150 -122 -406q0 -91 18 -179t55.5 -168.5t91.5 -141t132 -96.5t170 -36q143 0 255 52.5t220 171.5q30 0 47 -31q-104 -136 -237 -206t-283 -70zM803 1677q88 -40 127 -106l-295 -119q-60 -25 -86 -25q-13 0 -22 9.5t-9 21.5q0 22 31 43z" />
    <glyph glyph-name="cacute" unicode="&#x107;" horiz-adv-x="866" 
d="M815 186q-49 -81 -105.5 -128t-109 -62.5t-119.5 -15.5q-190 0 -297.5 122t-107.5 324q0 105 37 196t97 150.5t134.5 93t151.5 33.5q145 0 229 -54t84 -140q0 -43 -31.5 -67t-68.5 -24q-70 0 -78 74q-4 32 -10 53.5t-20.5 44t-43.5 34t-72 11.5q-103 0 -168 -97t-65 -263
q0 -176 79 -283.5t195 -107.5q141 0 246 135q32 -4 43 -29zM520 1374q12 4 29 4q64 0 113 -47l6 -22l-236 -224q-38 -38 -61 -38q-11 0 -20 8t-9 18q0 16 4 25.5t19 31.5z" />
    <glyph glyph-name="Ccircumflex" unicode="&#x108;" horiz-adv-x="1323" 
d="M731 -20q-128 0 -236.5 37.5t-184.5 101.5t-129.5 149.5t-79 180.5t-25.5 196q0 159 57 296.5t160 232.5q190 174 440 174q110 0 198 -21t151 -44.5t100 -27.5q37 -232 45 -317q-38 -20 -68 -10q-22 72 -53.5 129t-83 108t-130.5 79t-181 28q-83 0 -168 -45.5
t-159 -136.5q-122 -150 -122 -406q0 -91 18 -179t55.5 -168.5t91.5 -141t132 -96.5t170 -36q143 0 255 52.5t220 171.5q30 0 47 -31q-104 -136 -237 -206t-283 -70zM770 1657q90 -109 211 -199q-11 -34 -33 -43q-131 61 -217 125q-97 -70 -219 -125q-23 15 -29 43
q86 64 207 199q37 22 80 0z" />
    <glyph glyph-name="ccircumflex" unicode="&#x109;" horiz-adv-x="866" 
d="M815 186q-49 -81 -105.5 -128t-109 -62.5t-119.5 -15.5q-190 0 -297.5 122t-107.5 324q0 105 37 196t97 150.5t134.5 93t151.5 33.5q145 0 229 -54t84 -140q0 -43 -31.5 -67t-68.5 -24q-70 0 -78 74q-4 32 -10 53.5t-20.5 44t-43.5 34t-72 11.5q-103 0 -168 -97t-65 -263
q0 -176 79 -283.5t195 -107.5q141 0 246 135q32 -4 43 -29zM489 1352q75 -122 224 -287q-21 -30 -47 -35q-118 74 -211 170q-115 -115 -213 -170q-25 6 -45 35q154 171 227 287q35 8 65 0z" />
    <glyph glyph-name="Cdotaccent" unicode="&#x10a;" horiz-adv-x="1323" 
d="M731 -20q-128 0 -236.5 37.5t-184.5 101.5t-129.5 149.5t-79 180.5t-25.5 196q0 159 57 296.5t160 232.5q190 174 440 174q110 0 198 -21t151 -44.5t100 -27.5q37 -232 45 -317q-38 -20 -68 -10q-22 72 -53.5 129t-83 108t-130.5 79t-181 28q-83 0 -168 -45.5
t-159 -136.5q-122 -150 -122 -406q0 -91 18 -179t55.5 -168.5t91.5 -141t132 -96.5t170 -36q143 0 255 52.5t220 171.5q30 0 47 -31q-104 -136 -237 -206t-283 -70zM623 1532q0 43 31.5 74.5t74.5 31.5t75 -31.5t32 -74.5t-32 -75t-75 -32t-74.5 32t-31.5 75z" />
    <glyph glyph-name="cdotaccent" unicode="&#x10b;" horiz-adv-x="866" 
d="M815 186q-49 -81 -105.5 -128t-109 -62.5t-119.5 -15.5q-190 0 -297.5 122t-107.5 324q0 105 37 196t97 150.5t134.5 93t151.5 33.5q145 0 229 -54t84 -140q0 -43 -31.5 -67t-68.5 -24q-70 0 -78 74q-4 32 -10 53.5t-20.5 44t-43.5 34t-72 11.5q-103 0 -168 -97t-65 -263
q0 -176 79 -283.5t195 -107.5q141 0 246 135q32 -4 43 -29zM367 1229q0 36 34.5 67t71.5 31q40 0 69 -33.5t29 -72.5q0 -34 -32.5 -66.5t-73.5 -32.5q-37 0 -67.5 33.5t-30.5 73.5z" />
    <glyph glyph-name="Ccaron" unicode="&#x10c;" horiz-adv-x="1323" 
d="M731 -20q-128 0 -236.5 37.5t-184.5 101.5t-129.5 149.5t-79 180.5t-25.5 196q0 159 57 296.5t160 232.5q190 174 440 174q110 0 198 -21t151 -44.5t100 -27.5q37 -232 45 -317q-38 -20 -68 -10q-22 72 -53.5 129t-83 108t-130.5 79t-181 28q-83 0 -168 -45.5
t-159 -136.5q-122 -150 -122 -406q0 -91 18 -179t55.5 -168.5t91.5 -141t132 -96.5t170 -36q143 0 255 52.5t220 171.5q30 0 47 -31q-104 -136 -237 -206t-283 -70zM682 1427q-75 93 -207 195l33 41q121 -53 217 -125q118 82 219 125l31 -41q-103 -78 -205 -195h-88z" />
    <glyph glyph-name="ccaron" unicode="&#x10d;" horiz-adv-x="866" 
d="M815 186q-49 -81 -105.5 -128t-109 -62.5t-119.5 -15.5q-190 0 -297.5 122t-107.5 324q0 105 37 196t97 150.5t134.5 93t151.5 33.5q145 0 229 -54t84 -140q0 -43 -31.5 -67t-68.5 -24q-70 0 -78 74q-4 32 -10 53.5t-20.5 44t-43.5 34t-72 11.5q-103 0 -168 -97t-65 -263
q0 -176 79 -283.5t195 -107.5q141 0 246 135q32 -4 43 -29zM414 1028q-77 125 -207 266l41 27q142 -105 217 -184q80 82 221 184l39 -27q-139 -154 -209 -266h-102z" />
    <glyph glyph-name="Dcaron" unicode="&#x10e;" horiz-adv-x="1435" 
d="M303 1321q34 0 150 2t188 2q145 0 276 -55.5t225.5 -148.5t150 -221t55.5 -269q0 -105 -22 -193.5t-60 -153t-91 -115t-111.5 -82.5t-126.5 -53t-131 -29.5t-128 -8.5q-122 0 -237 2t-136 2q-66 0 -266 -4q-9 9 -9 33.5t9 33.5q41 2 63.5 4t45.5 9.5t34 18.5t20 32.5
t12 50t3 72.5v821q0 65 -6.5 100t-30 54.5t-52 24t-89.5 7.5q-9 9 -9 34t9 34q204 -4 264 -4zM391 170q0 -37 13 -57t63 -33.5t147 -13.5q92 0 167.5 13.5t146 49t118.5 92.5t76.5 148.5t28.5 212.5q0 99 -18 191.5t-62 181.5t-109.5 154.5t-168 105.5t-230.5 40
q-172 0 -172 -100v-985zM596 1427q-75 93 -207 195l33 41q121 -53 217 -125q118 82 219 125l31 -41q-103 -78 -205 -195h-88z" />
    <glyph glyph-name="dcaron" unicode="&#x10f;" horiz-adv-x="1081" 
d="M684 103q-79 -64 -138.5 -93.5t-117.5 -29.5q-162 0 -255 121t-93 315q0 219 141 360q65 62 137.5 92.5t169.5 30.5q30 0 68 -8.5t64 -17.5t28 -9q19 0 19 19v262q0 41 -1.5 68t-8.5 46t-12.5 28.5t-22 15t-28.5 7t-40 2.5q-12 1 -19 1q-9 9 -12 28.5t0 32.5
q62 5 155.5 23t131.5 33q27 0 27 -21q-9 -82 -9 -215v-928q0 -79 28 -110.5t122 -38.5q9 -9 9 -28t-9 -28q-173 -19 -248 -81q-23 -6 -39 0q-22 71 -22 120q0 7 -4 9t-10 0t-11 -6zM707 254v389q0 46 -6.5 66t-28.5 45q-64 73 -166 73q-124 0 -191 -102q-59 -82 -59 -272
q0 -180 67 -278.5t158 -98.5q80 0 193 98q21 18 27 33.5t6 46.5zM1030 1430q56 0 89.5 -45.5t33.5 -104.5q0 -67 -56 -136.5t-153 -80.5l-10 35q59 12 94 56t35 85q0 20 -8.5 31.5t-20.5 11.5q-94 0 -94 78q0 27 23.5 48.5t66.5 21.5z" />
    <glyph glyph-name="Dcroat" unicode="&#x110;" horiz-adv-x="1435" 
d="M303 1321q34 0 150 2t188 2q145 0 276 -55.5t225.5 -148.5t150 -221t55.5 -269q0 -105 -22 -193.5t-60 -153t-91 -115t-111.5 -82.5t-126.5 -53t-131 -29.5t-128 -8.5q-122 0 -237 2t-136 2q-66 0 -266 -4q-9 9 -9 33.5t9 33.5q41 2 63.5 4t45.5 9.5t34 18.5t20 32.5
t12 50t3 72.5v338h-182v82h182v401q0 65 -6.5 100t-30 54.5t-52 24t-89.5 7.5q-9 9 -9 34t9 34q204 -4 264 -4zM391 170q0 -37 13 -57t63 -33.5t147 -13.5q92 0 167.5 13.5t146 49t118.5 92.5t76.5 148.5t28.5 212.5q0 99 -18 191.5t-62 181.5t-109.5 154.5t-168 105.5
t-230.5 40q-172 0 -172 -100v-485h314v-82h-314v-418z" />
    <glyph glyph-name="dcroat" unicode="&#x111;" horiz-adv-x="1036" 
d="M707 254v389q0 46 -6.5 66t-28.5 45q-64 73 -166 73q-124 0 -191 -102q-59 -82 -59 -272q0 -180 67 -278.5t158 -98.5q80 0 193 98q21 18 27 33.5t6 46.5zM995 1171l2 -79h-129v-826q0 -79 28 -110.5t122 -38.5q9 -9 9 -28t-9 -28q-173 -19 -248 -81q-23 -6 -39 0
q-22 71 -22 120q0 7 -4 9t-10 0t-11 -6q-79 -64 -138.5 -93.5t-117.5 -29.5q-162 0 -255 121t-93 315q0 219 141 360q65 62 137.5 92.5t169.5 30.5q30 0 68 -8.5t64 -17.5t28 -9q19 0 19 19v209h-318v79h317q-1 34 -3 57t-9 38.5t-12.5 24t-22 13t-28 6t-38.5 2.5
q-12 1 -18 1q-9 9 -12 28.5t0 32.5q62 5 155.5 23t131.5 33q27 0 27 -21q-9 -82 -9 -215v-23h127z" />
    <glyph glyph-name="Emacron" unicode="&#x112;" horiz-adv-x="1124" 
d="M559 739q45 0 74 2t50 9.5t32 15.5t17.5 27t8.5 36t4 50q9 9 34 9t34 -9q-4 -122 -4 -177q0 -36 4 -180q-9 -9 -34 -9t-34 9q-2 34 -5 50.5t-13 37.5t-29 30t-53.5 15.5t-85.5 6.5h-186v-494q0 -41 19.5 -64.5t53.5 -23.5h279q108 0 170.5 71.5t97.5 196.5q37 10 72 -10
q-25 -163 -76 -342q-164 4 -262 4h-440q-167 -2 -267 -4q-9 9 -9 33.5t9 33.5q41 2 63.5 4t46 9.5t34 18.5t20 32t12.5 50t3 73v821q0 52 -5.5 84t-15.5 52.5t-34.5 30.5t-49.5 13.5t-74 5.5q-9 9 -9 34t9 34l265 -4h522q53 0 100 8q8 0 8 -6q4 -14 21.5 -127t24.5 -170
q-32 -16 -68 -10q-13 42 -22 66t-23.5 53.5t-29.5 45.5t-37.5 31t-51.5 21t-67 6h-216q-35 0 -54 -25.5t-19 -64.5v-410h186zM768 1526h-459q-12 0 -19 12t-7 25q0 20 14.5 42.5t30.5 22.5h460q13 0 21 -12t8 -23q0 -21 -15 -44t-34 -23z" />
    <glyph glyph-name="emacron" unicode="&#x113;" horiz-adv-x="915" 
d="M791 190q34 -3 43 -32q-138 -178 -349 -178q-201 0 -313 131q-96 110 -96 303q0 90 25.5 169t67.5 135t95.5 97t110 60.5t110.5 19.5q346 0 346 -356q0 -35 -38 -35l-545 4q0 -173 65 -281q45 -74 104.5 -110.5t119.5 -36.5q86 0 140.5 24.5t113.5 85.5zM254 578l371 6
q30 0 30 28q0 61 -15 105.5t-41 67t-54 32.5t-60 10q-20 0 -39.5 -3.5t-51 -18t-57 -39.5t-49 -74t-34.5 -114zM690 1061h-459q-12 0 -19 12t-7 25q0 20 14.5 42.5t30.5 22.5h461q13 0 20.5 -11.5t7.5 -23.5q0 -21 -15 -44t-34 -23z" />
    <glyph glyph-name="Ebreve" unicode="&#x114;" horiz-adv-x="1124" 
d="M559 739q45 0 74 2t50 9.5t32 15.5t17.5 27t8.5 36t4 50q9 9 34 9t34 -9q-4 -122 -4 -177q0 -36 4 -180q-9 -9 -34 -9t-34 9q-2 34 -5 50.5t-13 37.5t-29 30t-53.5 15.5t-85.5 6.5h-186v-494q0 -41 19.5 -64.5t53.5 -23.5h279q108 0 170.5 71.5t97.5 196.5q37 10 72 -10
q-25 -163 -76 -342q-164 4 -262 4h-440q-167 -2 -267 -4q-9 9 -9 33.5t9 33.5q41 2 63.5 4t46 9.5t34 18.5t20 32t12.5 50t3 73v821q0 52 -5.5 84t-15.5 52.5t-34.5 30.5t-49.5 13.5t-74 5.5q-9 9 -9 34t9 34l265 -4h522q53 0 100 8q8 0 8 -6q4 -14 21.5 -127t24.5 -170
q-32 -16 -68 -10q-13 42 -22 66t-23.5 53.5t-29.5 45.5t-37.5 31t-51.5 21t-67 6h-216q-35 0 -54 -25.5t-19 -64.5v-410h186zM852 1645q-9 -105 -91 -168.5t-188 -63.5q-115 0 -193 63.5t-85 168.5h57q12 -58 74 -91.5t147 -33.5q80 0 146 34t76 91h57z" />
    <glyph glyph-name="ebreve" unicode="&#x115;" horiz-adv-x="915" 
d="M791 190q34 -3 43 -32q-138 -178 -349 -178q-201 0 -313 131q-96 110 -96 303q0 90 25.5 169t67.5 135t95.5 97t110 60.5t110.5 19.5q346 0 346 -356q0 -35 -38 -35l-545 4q0 -173 65 -281q45 -74 104.5 -110.5t119.5 -36.5q86 0 140.5 24.5t113.5 85.5zM254 578l371 6
q30 0 30 28q0 61 -15 105.5t-41 67t-54 32.5t-60 10q-20 0 -39.5 -3.5t-51 -18t-57 -39.5t-49 -74t-34.5 -114zM246 1327q17 -82 77.5 -133t143.5 -51t144.5 49t76.5 135l55 -24q-18 -126 -99 -201.5t-177 -75.5q-108 0 -181.5 73.5t-95.5 203.5z" />
    <glyph glyph-name="Edotaccent" unicode="&#x116;" horiz-adv-x="1124" 
d="M559 739q45 0 74 2t50 9.5t32 15.5t17.5 27t8.5 36t4 50q9 9 34 9t34 -9q-4 -122 -4 -177q0 -36 4 -180q-9 -9 -34 -9t-34 9q-2 34 -5 50.5t-13 37.5t-29 30t-53.5 15.5t-85.5 6.5h-186v-494q0 -41 19.5 -64.5t53.5 -23.5h279q108 0 170.5 71.5t97.5 196.5q37 10 72 -10
q-25 -163 -76 -342q-164 4 -262 4h-440q-167 -2 -267 -4q-9 9 -9 33.5t9 33.5q41 2 63.5 4t46 9.5t34 18.5t20 32t12.5 50t3 73v821q0 52 -5.5 84t-15.5 52.5t-34.5 30.5t-49.5 13.5t-74 5.5q-9 9 -9 34t9 34l265 -4h522q53 0 100 8q8 0 8 -6q4 -14 21.5 -127t24.5 -170
q-32 -16 -68 -10q-13 42 -22 66t-23.5 53.5t-29.5 45.5t-37.5 31t-51.5 21t-67 6h-216q-35 0 -54 -25.5t-19 -64.5v-410h186zM467 1516q0 43 31.5 74.5t74.5 31.5t75 -31.5t32 -74.5t-32 -75t-75 -32t-74.5 32t-31.5 75z" />
    <glyph glyph-name="edotaccent" unicode="&#x117;" horiz-adv-x="915" 
d="M791 190q34 -3 43 -32q-138 -178 -349 -178q-201 0 -313 131q-96 110 -96 303q0 90 25.5 169t67.5 135t95.5 97t110 60.5t110.5 19.5q346 0 346 -356q0 -35 -38 -35l-545 4q0 -173 65 -281q45 -74 104.5 -110.5t119.5 -36.5q86 0 140.5 24.5t113.5 85.5zM254 578l371 6
q30 0 30 28q0 61 -15 105.5t-41 67t-54 32.5t-60 10q-20 0 -39.5 -3.5t-51 -18t-57 -39.5t-49 -74t-34.5 -114zM369 1227q0 36 34.5 67t71.5 31q40 0 69 -33.5t29 -72.5q0 -34 -32.5 -66.5t-73.5 -32.5q-37 0 -67.5 33.5t-30.5 73.5z" />
    <glyph glyph-name="Eogonek" unicode="&#x118;" horiz-adv-x="1124" 
d="M1026 -276q-86 -134 -225 -134q-82 0 -131 36.5t-49 115.5q0 68 53.5 142.5t141.5 114.5q-17 0 -47 0.5t-42 0.5h-440q-167 -2 -267 -4q-9 9 -9 33.5t9 33.5q41 2 63.5 4t46 9.5t34 18.5t20 32t12.5 50t3 73v821q0 52 -5.5 84t-15.5 52.5t-34.5 30.5t-49.5 13.5t-74 5.5
q-9 9 -9 34t9 34l265 -4h522q53 0 100 8q8 0 8 -6q4 -14 21.5 -127t24.5 -170q-32 -16 -68 -10q-13 42 -22 66t-23.5 53.5t-29.5 45.5t-37.5 31t-51.5 21t-67 6h-216q-35 0 -54 -25.5t-19 -64.5v-410h186q45 0 74 2t50 9.5t32 15.5t17.5 27t8.5 36t4 50q9 9 34 9t34 -9
q-4 -122 -4 -177q0 -36 4 -180q-9 -9 -34 -9t-34 9q-2 34 -5 50.5t-13 37.5t-29 30t-53.5 15.5t-85.5 6.5h-186v-494q0 -41 19.5 -64.5t53.5 -23.5h279q108 0 170.5 71.5t97.5 196.5q37 10 72 -10q-23 -149 -75 -338l3 -4q-68 0 -126.5 -39t-88.5 -91.5t-30 -101.5
q0 -96 102 -96q28 0 53 11.5t40 24.5t44 42q26 0 39 -22z" />
    <glyph glyph-name="eogonek" unicode="&#x119;" horiz-adv-x="915" 
d="M254 578l371 6q30 0 30 28q0 61 -15 105.5t-41 67t-54 32.5t-60 10q-20 0 -39.5 -3.5t-51 -18t-57 -39.5t-49 -74t-34.5 -114zM764 -276q-86 -134 -225 -134q-82 0 -131.5 36.5t-49.5 115.5q0 111 173 240q-30 -2 -46 -2q-201 0 -313 131q-96 110 -96 303q0 90 25.5 169
t67.5 135t95.5 97t110 60.5t110.5 19.5q346 0 346 -356q0 -35 -38 -35l-545 4q0 -173 65 -281q45 -74 104.5 -110.5t119.5 -36.5q86 0 140.5 24.5t113.5 85.5q34 -3 43 -32q-71 -92 -160 -136q-106 -88 -147.5 -141.5t-41.5 -116.5q0 -43 24.5 -69.5t78.5 -26.5
q28 0 53 11.5t40 24.5t44 42q26 0 39 -22z" />
    <glyph glyph-name="Ecaron" unicode="&#x11a;" horiz-adv-x="1124" 
d="M559 739q45 0 74 2t50 9.5t32 15.5t17.5 27t8.5 36t4 50q9 9 34 9t34 -9q-4 -122 -4 -177q0 -36 4 -180q-9 -9 -34 -9t-34 9q-2 34 -5 50.5t-13 37.5t-29 30t-53.5 15.5t-85.5 6.5h-186v-494q0 -41 19.5 -64.5t53.5 -23.5h279q108 0 170.5 71.5t97.5 196.5q37 10 72 -10
q-25 -163 -76 -342q-164 4 -262 4h-440q-167 -2 -267 -4q-9 9 -9 33.5t9 33.5q41 2 63.5 4t46 9.5t34 18.5t20 32t12.5 50t3 73v821q0 52 -5.5 84t-15.5 52.5t-34.5 30.5t-49.5 13.5t-74 5.5q-9 9 -9 34t9 34l265 -4h522q53 0 100 8q8 0 8 -6q4 -14 21.5 -127t24.5 -170
q-32 -16 -68 -10q-13 42 -22 66t-23.5 53.5t-29.5 45.5t-37.5 31t-51.5 21t-67 6h-216q-35 0 -54 -25.5t-19 -64.5v-410h186zM549 1427q-75 93 -207 195l33 41q121 -53 217 -125q118 82 219 125l31 -41q-103 -78 -205 -195h-88z" />
    <glyph glyph-name="ecaron" unicode="&#x11b;" horiz-adv-x="915" 
d="M791 190q34 -3 43 -32q-138 -178 -349 -178q-201 0 -313 131q-96 110 -96 303q0 90 25.5 169t67.5 135t95.5 97t110 60.5t110.5 19.5q346 0 346 -356q0 -35 -38 -35l-545 4q0 -173 65 -281q45 -74 104.5 -110.5t119.5 -36.5q86 0 140.5 24.5t113.5 85.5zM254 578l371 6
q30 0 30 28q0 61 -15 105.5t-41 67t-54 32.5t-60 10q-20 0 -39.5 -3.5t-51 -18t-57 -39.5t-49 -74t-34.5 -114zM408 1026q-77 125 -207 266l41 27q142 -105 217 -184q80 82 221 184l39 -27q-139 -154 -209 -266h-102z" />
    <glyph glyph-name="Gcircumflex" unicode="&#x11c;" horiz-adv-x="1423" 
d="M772 1348q85 0 157.5 -14.5t114 -32t88.5 -32t87 -14.5q17 -183 45 -315l-70 -12q-17 58 -38.5 104t-58 92.5t-83 77.5t-116 50.5t-155.5 19.5q-210 0 -350.5 -168.5t-140.5 -433.5q0 -68 16 -139.5t47 -140.5t79 -130t108 -107t139.5 -73t167.5 -27q86 0 166 25.5
t131 73.5v305q0 57 -36 73.5t-132 24.5q-9 9 -9 37t9 37q192 -4 254 -4q60 0 182 4q9 -9 9 -37t-9 -37q-48 -5 -71 -26t-23 -72v-230q0 -31 33 -57q-222 -190 -551 -190q-151 0 -282 52t-221 140t-141.5 206.5t-51.5 250.5q0 110 28 209.5t77 177.5t116 141.5t145.5 105
t165 63.5t174.5 22zM784 1655q90 -109 211 -199q-11 -34 -32 -43q-134 62 -218 125q-97 -70 -219 -125q-22 14 -28 43q86 64 207 199q22 13 38.5 12.5t40.5 -12.5z" />
    <glyph glyph-name="gcircumflex" unicode="&#x11d;" horiz-adv-x="1024" 
d="M909 793q-16 0 -33.5 11.5t-23.5 24.5q-17 25 -41 25q-19 0 -45 -16.5t-37 -32.5q46 -48 67 -96t21 -117q0 -144 -101.5 -228.5t-244.5 -84.5q-113 0 -186 43q-37 -52 -37 -119q0 -60 39.5 -88.5t91.5 -28.5q4 0 12 0.5t22.5 1.5t26.5 2q82 10 138 10q218 0 299 -67
q90 -75 90 -166q0 -80 -51 -148t-133.5 -112.5t-184.5 -69t-207 -24.5q-63 0 -118 12t-103 37.5t-76 72.5t-28 111q0 68 43 134t124 114q-42 21 -68 63t-26 95q0 55 24.5 112.5t65.5 93.5q-51 49 -78.5 101.5t-27.5 128.5q0 91 49.5 163t129 110t171.5 38q124 0 213 -57
q37 48 98 76t107 28q41 0 67.5 -21.5t26.5 -54.5q0 -30 -23.5 -53.5t-52.5 -23.5zM270 -20q-40 -49 -51.5 -90t-11.5 -103q0 -49 27.5 -89t68 -63t80.5 -35t70 -12q96 0 185.5 25t152.5 78t63 123q0 40 -22 66.5t-82 60.5q-40 22 -96 28t-152 6q-10 0 -62 -3t-88 -3
q-40 0 -82 11zM653 571q0 128 -51 196.5t-147 68.5q-164 0 -164 -218q0 -46 3 -80t14.5 -73t31 -64t55.5 -42t86 -17q32 0 59.5 9.5t54.5 33t42.5 71t15.5 115.5zM504 1350q77 -125 223 -287q-21 -30 -47 -35q-118 74 -211 170q-115 -115 -213 -170q-25 6 -45 35
q154 171 227 287q36 8 66 0z" />
    <glyph glyph-name="Gbreve" unicode="&#x11e;" horiz-adv-x="1423" 
d="M772 1348q85 0 157.5 -14.5t114 -32t88.5 -32t87 -14.5q17 -183 45 -315l-70 -12q-17 58 -38.5 104t-58 92.5t-83 77.5t-116 50.5t-155.5 19.5q-210 0 -350.5 -168.5t-140.5 -433.5q0 -68 16 -139.5t47 -140.5t79 -130t108 -107t139.5 -73t167.5 -27q86 0 166 25.5
t131 73.5v305q0 57 -36 73.5t-132 24.5q-9 9 -9 37t9 37q192 -4 254 -4q60 0 182 4q9 -9 9 -37t-9 -37q-48 -5 -71 -26t-23 -72v-230q0 -31 33 -57q-222 -190 -551 -190q-151 0 -282 52t-221 140t-141.5 206.5t-51.5 250.5q0 110 28 209.5t77 177.5t116 141.5t145.5 105
t165 63.5t174.5 22zM1040 1651q-9 -105 -90.5 -168.5t-187.5 -63.5q-115 0 -193.5 63.5t-85.5 168.5h58q12 -58 74 -91.5t147 -33.5q80 0 145.5 34t75.5 91h57z" />
    <glyph glyph-name="gbreve" unicode="&#x11f;" horiz-adv-x="1024" 
d="M909 793q-16 0 -33.5 11.5t-23.5 24.5q-17 25 -41 25q-19 0 -45 -16.5t-37 -32.5q46 -48 67 -96t21 -117q0 -144 -101.5 -228.5t-244.5 -84.5q-113 0 -186 43q-37 -52 -37 -119q0 -60 39.5 -88.5t91.5 -28.5q4 0 12 0.5t22.5 1.5t26.5 2q82 10 138 10q218 0 299 -67
q90 -75 90 -166q0 -80 -51 -148t-133.5 -112.5t-184.5 -69t-207 -24.5q-63 0 -118 12t-103 37.5t-76 72.5t-28 111q0 68 43 134t124 114q-42 21 -68 63t-26 95q0 55 24.5 112.5t65.5 93.5q-51 49 -78.5 101.5t-27.5 128.5q0 91 49.5 163t129 110t171.5 38q124 0 213 -57
q37 48 98 76t107 28q41 0 67.5 -21.5t26.5 -54.5q0 -30 -23.5 -53.5t-52.5 -23.5zM270 -20q-40 -49 -51.5 -90t-11.5 -103q0 -49 27.5 -89t68 -63t80.5 -35t70 -12q96 0 185.5 25t152.5 78t63 123q0 40 -22 66.5t-82 60.5q-40 22 -96 28t-152 6q-10 0 -62 -3t-88 -3
q-40 0 -82 11zM653 571q0 128 -51 196.5t-147 68.5q-164 0 -164 -218q0 -46 3 -80t14.5 -73t31 -64t55.5 -42t86 -17q32 0 59.5 9.5t54.5 33t42.5 71t15.5 115.5zM229 1319q17 -82 78 -133t144 -51t144.5 49t76.5 135l55 -25q-18 -126 -99 -201t-177 -75q-108 0 -181.5 73
t-95.5 203z" />
    <glyph glyph-name="Gdotaccent" unicode="&#x120;" horiz-adv-x="1423" 
d="M772 1348q85 0 157.5 -14.5t114 -32t88.5 -32t87 -14.5q17 -183 45 -315l-70 -12q-17 58 -38.5 104t-58 92.5t-83 77.5t-116 50.5t-155.5 19.5q-210 0 -350.5 -168.5t-140.5 -433.5q0 -68 16 -139.5t47 -140.5t79 -130t108 -107t139.5 -73t167.5 -27q86 0 166 25.5
t131 73.5v305q0 57 -36 73.5t-132 24.5q-9 9 -9 37t9 37q192 -4 254 -4q60 0 182 4q9 -9 9 -37t-9 -37q-48 -5 -71 -26t-23 -72v-230q0 -31 33 -57q-222 -190 -551 -190q-151 0 -282 52t-221 140t-141.5 206.5t-51.5 250.5q0 110 28 209.5t77 177.5t116 141.5t145.5 105
t165 63.5t174.5 22zM664 1540q0 43 31.5 75t74.5 32t75 -32t32 -75t-32 -74.5t-75 -31.5t-74.5 31.5t-31.5 74.5z" />
    <glyph glyph-name="gdotaccent" unicode="&#x121;" horiz-adv-x="1024" 
d="M909 793q-16 0 -33.5 11.5t-23.5 24.5q-17 25 -41 25q-19 0 -45 -16.5t-37 -32.5q46 -48 67 -96t21 -117q0 -144 -101.5 -228.5t-244.5 -84.5q-113 0 -186 43q-37 -52 -37 -119q0 -60 39.5 -88.5t91.5 -28.5q4 0 12 0.5t22.5 1.5t26.5 2q82 10 138 10q218 0 299 -67
q90 -75 90 -166q0 -80 -51 -148t-133.5 -112.5t-184.5 -69t-207 -24.5q-63 0 -118 12t-103 37.5t-76 72.5t-28 111q0 68 43 134t124 114q-42 21 -68 63t-26 95q0 55 24.5 112.5t65.5 93.5q-51 49 -78.5 101.5t-27.5 128.5q0 91 49.5 163t129 110t171.5 38q124 0 213 -57
q37 48 98 76t107 28q41 0 67.5 -21.5t26.5 -54.5q0 -30 -23.5 -53.5t-52.5 -23.5zM270 -20q-40 -49 -51.5 -90t-11.5 -103q0 -49 27.5 -89t68 -63t80.5 -35t70 -12q96 0 185.5 25t152.5 78t63 123q0 40 -22 66.5t-82 60.5q-40 22 -96 28t-152 6q-10 0 -62 -3t-88 -3
q-40 0 -82 11zM653 571q0 128 -51 196.5t-147 68.5q-164 0 -164 -218q0 -46 3 -80t14.5 -73t31 -64t55.5 -42t86 -17q32 0 59.5 9.5t54.5 33t42.5 71t15.5 115.5zM369 1227q0 36 34.5 67t71.5 31q40 0 69 -33.5t29 -72.5q0 -34 -32.5 -66.5t-73.5 -32.5q-37 0 -67.5 33.5
t-30.5 73.5z" />
    <glyph glyph-name="Gcommaaccent" unicode="&#x122;" horiz-adv-x="1423" 
d="M772 1348q85 0 157.5 -14.5t114 -32t88.5 -32t87 -14.5q17 -183 45 -315l-70 -12q-17 58 -38.5 104t-58 92.5t-83 77.5t-116 50.5t-155.5 19.5q-210 0 -350.5 -168.5t-140.5 -433.5q0 -68 16 -139.5t47 -140.5t79 -130t108 -107t139.5 -73t167.5 -27q86 0 166 25.5
t131 73.5v305q0 57 -36 73.5t-132 24.5q-9 9 -9 37t9 37q192 -4 254 -4q60 0 182 4q9 -9 9 -37t-9 -37q-48 -5 -71 -26t-23 -72v-230q0 -31 33 -57q-222 -190 -551 -190q-151 0 -282 52t-221 140t-141.5 206.5t-51.5 250.5q0 110 28 209.5t77 177.5t116 141.5t145.5 105
t165 63.5t174.5 22zM768 -84q58 0 92.5 -48t34.5 -128q0 -87 -60.5 -137.5t-156.5 -65.5q-16 16 -16 49q71 16 112 47.5t41 61.5q0 28 -15.5 39t-47.5 14q-86 15 -86 80q0 37 29 62.5t73 25.5z" />
    <glyph glyph-name="gcommaaccent" unicode="&#x123;" horiz-adv-x="1024" 
d="M909 793q-16 0 -33.5 11.5t-23.5 24.5q-17 25 -41 25q-19 0 -45 -16.5t-37 -32.5q46 -48 67 -96t21 -117q0 -144 -101.5 -228.5t-244.5 -84.5q-113 0 -186 43q-37 -52 -37 -119q0 -60 39.5 -88.5t91.5 -28.5q4 0 12 0.5t22.5 1.5t26.5 2q82 10 138 10q218 0 299 -67
q90 -75 90 -166q0 -80 -51 -148t-133.5 -112.5t-184.5 -69t-207 -24.5q-63 0 -118 12t-103 37.5t-76 72.5t-28 111q0 68 43 134t124 114q-42 21 -68 63t-26 95q0 55 24.5 112.5t65.5 93.5q-51 49 -78.5 101.5t-27.5 128.5q0 91 49.5 163t129 110t171.5 38q124 0 213 -57
q37 48 98 76t107 28q41 0 67.5 -21.5t26.5 -54.5q0 -30 -23.5 -53.5t-52.5 -23.5zM270 -20q-40 -49 -51.5 -90t-11.5 -103q0 -49 27.5 -89t68 -63t80.5 -35t70 -12q96 0 185.5 25t152.5 78t63 123q0 40 -22 66.5t-82 60.5q-40 22 -96 28t-152 6q-10 0 -62 -3t-88 -3
q-40 0 -82 11zM653 571q0 128 -51 196.5t-147 68.5q-164 0 -164 -218q0 -46 3 -80t14.5 -73t31 -64t55.5 -42t86 -17q32 0 59.5 9.5t54.5 33t42.5 71t15.5 115.5zM467 1047q-57 0 -92 45t-35 104q0 77 47 135q60 74 170 88q10 -10 10 -41q-80 -17 -118.5 -56.5t-38.5 -80.5
q0 -12 1 -18t6 -8.5t9.5 -2.5t18 1t24.5 1q55 0 78.5 -25.5t23.5 -58.5q0 -29 -27.5 -56t-76.5 -27z" />
    <glyph glyph-name="Hcircumflex" unicode="&#x124;" horiz-adv-x="1495" 
d="M791 1651q91 -111 210 -199q-11 -34 -32 -43q-131 61 -217 125q-96 -69 -220 -125q-22 14 -28 43q86 64 207 199q37 22 80 0zM1266 250q0 -44 3 -72.5t12 -50t20 -32.5t34 -18.5t45.5 -9.5t63.5 -4q9 -9 9 -33.5t-9 -33.5q-204 4 -264 4q-67 0 -267 -4q-9 9 -9 33.5
t9 33.5q41 2 63.5 4t46 9.5t34 18.5t20 32t12.5 50t3 73v407h-701v-407q0 -44 3 -72.5t12 -50t20 -32.5t34 -18.5t45.5 -9.5t63.5 -4q9 -9 9 -33.5t-9 -33.5q-204 4 -264 4q-66 0 -266 -4q-9 9 -9 33.5t9 33.5q41 2 63.5 4t45.5 9.5t34 18.5t20 32.5t12 50t3 72.5v821
q0 65 -6.5 100t-30 54.5t-52 24t-89.5 7.5q-9 9 -9 34t9 34q204 -4 264 -4q66 0 266 4q9 -9 9 -34t-9 -34q-61 -3 -89.5 -7.5t-52 -24t-30 -54.5t-6.5 -100v-328h701v328q0 52 -5.5 84t-15.5 52.5t-34.5 30.5t-49.5 13.5t-74 5.5q-9 9 -9 34t9 34q204 -4 265 -4q66 0 266 4
q9 -9 9 -34t-9 -34q-61 -3 -89.5 -7.5t-52 -24t-30 -54.5t-6.5 -100v-821z" />
    <glyph glyph-name="hcircumflex" unicode="&#x125;" horiz-adv-x="1089" 
d="M342 586v-336q0 -45 1.5 -72.5t7.5 -49.5t12.5 -32.5t23 -18t32 -10t45.5 -4.5q9 -9 9 -33.5t-9 -33.5q-172 4 -202 4q-57 0 -225 -4q-9 9 -9 33.5t9 33.5q34 2 52 4.5t37.5 10t27.5 18.5t15 32t9 49.5t2 72.5v895q0 35 -2 59.5t-4 43t-10 29.5l-13.5 18t-21.5 10.5
t-26.5 4.5t-34.5 2q-12 1 -19 1q-9 9 -12 28.5t0 32.5q62 5 155.5 23t131.5 33q26 0 26 -21q-8 -82 -8 -215l-2 -461q0 -25 17 -4q2 3 3 4q86 96 167 131t169 35q117 0 170 -70q33 -43 44.5 -109.5t11.5 -164.5v-305q0 -37 2 -62.5t5 -46t11 -32.5t16.5 -20.5t25.5 -13.5
t33 -7.5t44 -4.5q7 -9 7 -33.5t-7 -33.5q-176 4 -217 4q-37 0 -209 -4q-7 9 -7 33.5t7 33.5q45 4 65.5 9.5t37 25t20.5 53.5t4 99v311q0 107 -25 158q-18 35 -47 54.5t-61 19.5q-126 0 -250 -121q-35 -39 -35 -86zM582 1710q90 -109 211 -199q-11 -34 -33 -43
q-131 61 -217 125q-97 -70 -219 -125q-23 15 -29 43q86 64 207 199q37 22 80 0z" />
    <glyph glyph-name="Hbar" unicode="&#x126;" horiz-adv-x="1495" 
d="M1092 1049h-701v-306h701v306zM1266 250q0 -44 3 -72.5t12 -50t20 -32.5t34 -18.5t45.5 -9.5t63.5 -4q9 -9 9 -33.5t-9 -33.5q-204 4 -264 4q-67 0 -267 -4q-9 9 -9 33.5t9 33.5q41 2 63.5 4t46 9.5t34 18.5t20 32t12.5 50t3 73v407h-701v-407q0 -44 3 -72.5t12 -50
t20 -32.5t34 -18.5t45.5 -9.5t63.5 -4q9 -9 9 -33.5t-9 -33.5q-204 4 -264 4q-66 0 -266 -4q-9 9 -9 33.5t9 33.5q41 2 63.5 4t45.5 9.5t34 18.5t20 32.5t12 50t3 72.5v799h-133v69h132q-3 47 -11.5 73.5t-32.5 40.5t-50.5 18t-82.5 7q-9 9 -9 34t9 34q204 -4 264 -4
q66 0 266 4q9 -9 9 -34t-9 -34q-56 -3 -82.5 -7t-50.5 -18t-32.5 -40.5t-11.5 -73.5h698q-3 47 -11.5 73.5t-32.5 40.5t-50.5 18t-82.5 7q-9 9 -9 34t9 34q204 -4 265 -4q66 0 266 4q9 -9 9 -34t-9 -34q-56 -3 -82.5 -7t-50.5 -18t-32.5 -40.5t-11.5 -73.5h117v-69h-118
v-799z" />
    <glyph glyph-name="hbar" unicode="&#x127;" horiz-adv-x="1089" 
d="M342 586v-336q0 -45 1.5 -72.5t7.5 -49.5t12.5 -32.5t23 -18t32 -10t45.5 -4.5q9 -9 9 -33.5t-9 -33.5q-172 4 -202 4q-57 0 -225 -4q-9 9 -9 33.5t9 33.5q34 2 52 4.5t37.5 10t27.5 18.5t15 32t9 49.5t2 72.5v835h-127v80h127q0 36 -2 59.5t-9 40t-13 25t-21.5 13.5
t-28 6.5t-38.5 2.5q-12 1 -19 1q-9 9 -12 28.5t0 32.5q62 5 155.5 23t131.5 33q26 0 26 -21q-8 -82 -8 -215v-29h356v-80h-356l-2 -352q0 -25 17 -4q2 3 3 4q86 96 167 131t169 35q117 0 170 -70q33 -43 44.5 -109.5t11.5 -164.5v-305q0 -37 2 -62.5t5 -46t11 -32.5
t16.5 -20.5t25.5 -13.5t33 -7.5t44 -4.5q7 -9 7 -33.5t-7 -33.5q-176 4 -217 4q-37 0 -209 -4q-7 9 -7 33.5t7 33.5q45 4 65.5 9.5t37 25t20.5 53.5t4 99v311q0 107 -25 158q-18 35 -47 54.5t-61 19.5q-126 0 -250 -121q-35 -39 -35 -86z" />
    <glyph glyph-name="Itilde" unicode="&#x128;" horiz-adv-x="608" 
d="M391 250q0 -44 3 -72.5t12 -50t20 -32.5t34 -18.5t45.5 -9.5t63.5 -4q9 -9 9 -33.5t-9 -33.5q-204 4 -264 4q-66 0 -266 -4q-9 9 -9 33.5t9 33.5q41 2 63.5 4t45.5 9.5t34 18.5t20 32.5t12 50t3 72.5v821q0 65 -6.5 100t-30 54.5t-52 24t-89.5 7.5q-9 9 -9 34t9 34
q204 -4 264 -4q66 0 266 4q9 -9 9 -34t-9 -34q-61 -3 -89.5 -7.5t-52 -24t-30 -54.5t-6.5 -100v-821zM436 1524q35 0 55 21.5t41 84.5q34 3 56 -12q-19 -95 -64 -149t-114 -54q-13 0 -26 3.5t-28 12t-24.5 14.5t-27.5 18.5l-25 17.5q-63 39 -111 39q-38 0 -58 -22.5
t-36 -76.5q-38 -7 -56 11q23 97 62 148.5t102 51.5q15 0 30 -3.5t25.5 -7.5t26.5 -13t22.5 -13.5l23 -16.5l20.5 -15q51 -39 106 -39z" />
    <glyph glyph-name="itilde" unicode="&#x129;" horiz-adv-x="555" 
d="M371 250q0 -44 1.5 -72t9 -50t15.5 -32.5t27.5 -18t38.5 -10t55 -4.5q9 -9 9 -33.5t-9 -33.5q-176 4 -227 4q-58 0 -230 -4q-9 9 -9 33.5t9 33.5q37 3 55 5.5t38.5 10t28 18t15.5 32t9.5 49.5t1.5 72v399q0 46 -4.5 70t-21 39.5t-39 20.5t-68.5 9q-3 10 -5 29t1 29
q194 25 280 59q27 0 27 -14q-8 -131 -8 -233v-408zM377 1174q32 0 50 21.5t37 84.5q29 3 49 -12q-17 -95 -57.5 -149t-102.5 -54q-12 0 -23.5 3.5t-25 11.5t-22 14t-25 19t-22.5 17q-56 39 -99 39q-35 0 -53 -22.5t-32 -75.5q-35 -7 -50 10q43 201 147 201q13 0 26.5 -3.5
t23.5 -8t23.5 -13t20.5 -14l20.5 -16.5l18.5 -15q44 -38 96 -38z" />
    <glyph glyph-name="Imacron" unicode="&#x12a;" horiz-adv-x="608" 
d="M391 250q0 -44 3 -72.5t12 -50t20 -32.5t34 -18.5t45.5 -9.5t63.5 -4q9 -9 9 -33.5t-9 -33.5q-204 4 -264 4q-66 0 -266 -4q-9 9 -9 33.5t9 33.5q41 2 63.5 4t45.5 9.5t34 18.5t20 32.5t12 50t3 72.5v821q0 65 -6.5 100t-30 54.5t-52 24t-89.5 7.5q-9 9 -9 34t9 34
q204 -4 264 -4q66 0 266 4q9 -9 9 -34t-9 -34q-61 -3 -89.5 -7.5t-52 -24t-30 -54.5t-6.5 -100v-821zM522 1526h-459q-12 0 -19 12t-7 25q0 20 14.5 42.5t30.5 22.5h461q13 0 20.5 -11.5t7.5 -23.5q0 -21 -15 -44t-34 -23z" />
    <glyph glyph-name="imacron" unicode="&#x12b;" horiz-adv-x="555" 
d="M371 250q0 -44 1.5 -72t9 -50t15.5 -32.5t27.5 -18t38.5 -10t55 -4.5q9 -9 9 -33.5t-9 -33.5q-176 4 -227 4q-58 0 -230 -4q-9 9 -9 33.5t9 33.5q37 3 55 5.5t38.5 10t28 18t15.5 32t9.5 49.5t1.5 72v399q0 46 -4.5 70t-21 39.5t-39 20.5t-68.5 9q-3 10 -5 29t1 29
q194 25 280 59q27 0 27 -14q-8 -131 -8 -233v-408zM450 1061h-413q-11 0 -17 12t-6 25q0 20 13 42.5t27 22.5h415q12 0 19 -12t7 -23q0 -21 -14 -44t-31 -23z" />
    <glyph glyph-name="Ibreve" unicode="&#x12c;" horiz-adv-x="608" 
d="M391 250q0 -44 3 -72.5t12 -50t20 -32.5t34 -18.5t45.5 -9.5t63.5 -4q9 -9 9 -33.5t-9 -33.5q-204 4 -264 4q-66 0 -266 -4q-9 9 -9 33.5t9 33.5q41 2 63.5 4t45.5 9.5t34 18.5t20 32.5t12 50t3 72.5v821q0 65 -6.5 100t-30 54.5t-52 24t-89.5 7.5q-9 9 -9 34t9 34
q204 -4 264 -4q66 0 266 4q9 -9 9 -34t-9 -34q-61 -3 -89.5 -7.5t-52 -24t-30 -54.5t-6.5 -100v-821zM584 1649q-9 -105 -91 -168.5t-188 -63.5q-115 0 -193 63.5t-85 168.5h57q12 -58 74 -91.5t147 -33.5q80 0 145.5 34t75.5 91h58z" />
    <glyph glyph-name="ibreve" unicode="&#x12d;" horiz-adv-x="555" 
d="M371 250q0 -44 1.5 -72t9 -50t15.5 -32.5t27.5 -18t38.5 -10t55 -4.5q9 -9 9 -33.5t-9 -33.5q-176 4 -227 4q-58 0 -230 -4q-9 9 -9 33.5t9 33.5q37 3 55 5.5t38.5 10t28 18t15.5 32t9.5 49.5t1.5 72v399q0 46 -4.5 70t-21 39.5t-39 20.5t-68.5 9q-3 10 -5 29t1 29
q194 25 280 59q27 0 27 -14q-8 -131 -8 -233v-408zM58 1331q15 -82 69.5 -133t129.5 -51t130.5 48.5t68.5 135.5l50 -24q-16 -126 -89 -201.5t-160 -75.5q-97 0 -163.5 73.5t-85.5 203.5z" />
    <glyph glyph-name="Iogonek" unicode="&#x12e;" horiz-adv-x="608" 
d="M555 -276q-86 -134 -225 -134q-82 0 -131 36.5t-49 115.5q0 68 54 143.5t143 114.5h-42q-66 0 -266 -4q-9 9 -9 33.5t9 33.5q41 2 63.5 4t45.5 9.5t34 18.5t20 32.5t12 50t3 72.5v821q0 65 -6.5 100t-30 54.5t-52 24t-89.5 7.5q-9 9 -9 34t9 34q204 -4 264 -4q66 0 266 4
q9 -9 9 -34t-9 -34q-61 -3 -89.5 -7.5t-52 -24t-30 -54.5t-6.5 -100v-821q0 -44 3 -72.5t12 -50t20 -32.5t34 -18.5t45.5 -9.5t63.5 -4q9 -9 9 -33.5t-9 -33.5q-9 0 -25 0.5t-23 0.5l1 -1q-68 0 -126.5 -39t-89 -91.5t-30.5 -101.5q0 -43 24.5 -69.5t78.5 -26.5
q28 0 53 11.5t40 24.5t44 42q26 0 39 -22z" />
    <glyph glyph-name="iogonek" unicode="&#x12f;" horiz-adv-x="555" 
d="M184 1227q0 36 35 67t72 31q40 0 69 -33.5t29 -72.5q0 -34 -32.5 -66.5t-73.5 -32.5q-37 0 -68 33.5t-31 73.5zM530 -276q-86 -134 -225 -134q-82 0 -131 36.5t-49 115.5q0 68 54 143.5t143 114.5h-31q-58 0 -230 -4q-9 9 -9 33.5t9 33.5q37 3 55 5.5t38.5 10t28 18
t15.5 32t9.5 49.5t1.5 72v399q0 46 -4.5 70t-21 39.5t-39 20.5t-68.5 9q-3 10 -5 29t1 29q194 25 280 59q27 0 27 -14q-8 -131 -8 -233v-408q0 -44 1.5 -72t9 -50t15.5 -32.5t27.5 -18t38.5 -10t55 -4.5q9 -9 9 -33.5t-9 -33.5h-21h1q-68 0 -126.5 -39t-89 -91.5
t-30.5 -101.5q0 -96 102 -96q28 0 53 11.5t41 25t44 41.5q25 0 38 -22z" />
    <glyph glyph-name="Idotaccent" unicode="&#x130;" horiz-adv-x="608" 
d="M391 250q0 -44 3 -72.5t12 -50t20 -32.5t34 -18.5t45.5 -9.5t63.5 -4q9 -9 9 -33.5t-9 -33.5q-204 4 -264 4q-66 0 -266 -4q-9 9 -9 33.5t9 33.5q41 2 63.5 4t45.5 9.5t34 18.5t20 32.5t12 50t3 72.5v821q0 65 -6.5 100t-30 54.5t-52 24t-89.5 7.5q-9 9 -9 34t9 34
q204 -4 264 -4q66 0 266 4q9 -9 9 -34t-9 -34q-61 -3 -89.5 -7.5t-52 -24t-30 -54.5t-6.5 -100v-821zM193 1536q0 43 31.5 74.5t74.5 31.5t75 -31.5t32 -74.5t-32 -74.5t-75 -31.5t-74.5 31.5t-31.5 74.5z" />
    <glyph glyph-name="dotlessi" unicode="&#x131;" horiz-adv-x="555" 
d="M371 250q0 -44 1.5 -72t9 -50t15.5 -32.5t27.5 -18t38.5 -10t55 -4.5q9 -9 9 -33.5t-9 -33.5q-176 4 -227 4q-58 0 -230 -4q-9 9 -9 33.5t9 33.5q37 3 55 5.5t38.5 10t28 18t15.5 32t9.5 49.5t1.5 72v399q0 46 -4.5 70t-21 39.5t-39 20.5t-68.5 9q-3 10 -5 29t1 29
q194 25 280 59q27 0 27 -14q-8 -131 -8 -233v-408z" />
    <glyph glyph-name="IJ" unicode="&#x132;" horiz-adv-x="1224" 
d="M391 250q0 -44 3 -72.5t12 -50t20 -32.5t34 -18.5t45.5 -9.5t63.5 -4q9 -9 9 -33.5t-9 -33.5q-204 4 -264 4q-66 0 -266 -4q-9 9 -9 33.5t9 33.5q41 2 63.5 4t45.5 9.5t34 18.5t20 32.5t12 50t3 72.5v821q0 65 -6.5 100t-30 54.5t-52 24t-89.5 7.5q-9 9 -9 34t9 34
q204 -4 264 -4q66 0 266 4q9 -9 9 -34t-9 -34q-61 -3 -89.5 -7.5t-52 -24t-30 -54.5t-6.5 -100v-821zM1042 1071v-860q0 -84 -14 -155t-32.5 -116t-51 -88.5t-53.5 -64.5t-57 -51q-60 -52 -113.5 -70t-126.5 -18q-45 0 -99.5 30.5t-54.5 79.5q0 31 32.5 59.5t57.5 28.5
q22 0 38.5 -8t23.5 -15.5t17.5 -24.5t13.5 -21q28 -37 71 -37q23 0 44.5 8.5t46 36t42 72t29.5 124t12 185.5v905q0 44 -2.5 72.5t-13 50t-21.5 32.5t-37 18t-51.5 9t-72.5 4q-9 9 -9 34t9 34q204 -4 284 -4q46 0 246 4q9 -9 9 -34t-9 -34q-53 -3 -78 -8t-46 -23.5
t-27.5 -54t-6.5 -100.5z" />
    <glyph glyph-name="ij" unicode="&#x133;" horiz-adv-x="1110" 
d="M371 250q0 -44 1.5 -72t9 -50t15.5 -32.5t27.5 -18t38.5 -10t55 -4.5q9 -9 9 -33.5t-9 -33.5q-176 4 -227 4q-58 0 -230 -4q-9 9 -9 33.5t9 33.5q37 3 55 5.5t38.5 10t28 18t15.5 32t9.5 49.5t1.5 72v399q0 46 -4.5 70t-21 39.5t-39 20.5t-68.5 9q-3 10 -5 29t1 29
q194 25 280 59q27 0 27 -14q-8 -131 -8 -233v-408zM184 1227q0 36 35 67t72 31q40 0 69 -33.5t29 -72.5q0 -34 -32.5 -66.5t-73.5 -32.5q-37 0 -68 33.5t-31 73.5zM784 649q0 46 -4.5 70t-21 39.5t-39 20.5t-68.5 9q-3 10 -5 29t1 29q197 25 281 59q26 0 26 -14
q-8 -132 -8 -234v-432q0 -188 -19 -313.5t-51 -191.5t-83 -107q-84 -70 -226 -70q-36 0 -74 24t-38 64q0 26 23 52t42 26q11 0 21.5 -3t17.5 -6t16 -10t12.5 -11t12 -12.5l10.5 -10.5q23 -23 64 -23q25 0 43.5 19t30.5 57.5t19.5 82.5t11 109.5t4.5 121t1 133.5v493z
M756 1237q0 36 34.5 67t71.5 31q40 0 69.5 -34t29.5 -72q0 -34 -33 -66.5t-74 -32.5q-37 0 -67.5 33.5t-30.5 73.5z" />
    <glyph glyph-name="Jcircumflex" unicode="&#x134;" horiz-adv-x="557" 
d="M463 1071v-860q0 -84 -14.5 -155t-32.5 -116t-51 -89t-54 -64t-57 -51q-60 -52 -113.5 -70t-126.5 -18q-45 0 -99 30.5t-54 79.5q0 31 32.5 59.5t57.5 28.5q22 0 38.5 -8t23 -15.5t17 -24l13.5 -21.5q28 -37 72 -37q23 0 44.5 8.5t46 36t42 72t29.5 124t12 185.5v905
q0 44 -3 72.5t-13 50t-21.5 32.5t-37.5 18t-51.5 9t-72.5 4q-9 9 -9 34t9 34q204 -4 285 -4q46 0 246 4q9 -9 9 -34t-9 -34q-53 -3 -78 -8t-46 -23.5t-27.5 -54t-6.5 -100.5zM403 1655q90 -109 211 -199q-11 -34 -32 -43q-131 61 -217 125q-96 -69 -220 -125q-22 14 -28 43
q86 64 207 199q22 13 38.5 12.5t40.5 -12.5z" />
    <glyph glyph-name="jcircumflex" unicode="&#x135;" horiz-adv-x="557" 
d="M342 1348q77 -125 223 -287q-21 -30 -47 -35q-118 74 -211 170q-115 -115 -213 -170q-25 6 -45 35q154 171 227 287q36 8 66 0zM231 649q0 46 -4.5 70t-21 39.5t-39 20.5t-68.5 9q-3 10 -5 29t1 29q197 25 281 59q26 0 26 -14q-8 -132 -8 -234v-432q0 -188 -19 -313.5
t-51 -191.5t-83 -107q-84 -70 -226 -70q-36 0 -74 24t-38 64q0 26 23 52t42 26q11 0 21.5 -3t17.5 -6t16 -10t12.5 -11t12 -12.5l10.5 -10.5q23 -23 64 -23q25 0 43.5 19t30.5 57.5t19.5 82.5t11 109.5t4.5 121t1 133.5v493z" />
    <glyph glyph-name="Kcommaaccent" unicode="&#x136;" horiz-adv-x="1304" 
d="M391 250q0 -44 3 -72.5t12 -50t20 -32.5t34 -18.5t45.5 -9.5t63.5 -4q9 -9 9 -33.5t-9 -33.5q-204 4 -264 4q-66 0 -266 -4q-9 9 -9 33.5t9 33.5q41 2 63.5 4t45.5 9.5t34 18.5t20 32.5t12 50t3 72.5v821q0 65 -6.5 100t-30 54.5t-52 24t-89.5 7.5q-9 9 -9 34t9 34
q204 -4 264 -4q66 0 266 4q9 -9 9 -34t-9 -34q-61 -3 -89.5 -7.5t-52 -24t-30 -54.5t-6.5 -100v-360q87 7 156 80l344 360q18 20 28.5 35.5t15 26t1 18t-7.5 11.5t-17.5 7t-22 4t-27 2t-27.5 2q-9 9 -9 34t9 34q192 -4 231 -4q3 0 195 4q9 -9 9 -34t-9 -34q-1 0 -24 -3
t-26.5 -3.5l-25 -3.5t-27.5 -5.5t-25 -7.5t-28.5 -10.5t-26.5 -13.5t-28.5 -17.5l-26.5 -22t-29 -27.5l-286 -309q-48 -51 -62 -70.5t-14 -30.5q0 -24 24 -51l449 -532q16 -20 35 -35.5t33.5 -23.5t34.5 -14.5t28.5 -8t27.5 -3.5t21 -2q9 -9 9 -33.5t-9 -33.5q-192 4 -207 4
q-55 0 -137 -4q-10 0 -10 12q0 92 -41 142l-334 405q-58 75 -164 78v-383zM721 -84q58 0 92.5 -48t34.5 -128q0 -87 -60.5 -137.5t-156.5 -65.5q-17 17 -17 49q71 16 112.5 47.5t41.5 61.5q0 28 -15.5 39t-47.5 14q-87 15 -87 80q0 37 29.5 62.5t73.5 25.5z" />
    <glyph glyph-name="kcommaaccent" unicode="&#x137;" horiz-adv-x="987" 
d="M176 250v895q0 35 -2 59.5t-4 43t-10 29.5l-13.5 18t-21.5 10.5t-26.5 4.5t-34.5 2q-12 1 -19 1q-9 9 -12 28.5t0 32.5q61 4 154.5 22.5t131.5 33.5q27 0 27 -21q-8 -82 -8 -215v-708q80 24 264 225q12 12 21 25.5t15 32t-12 31.5t-61 15q-9 9 -9 34t9 34q152 -4 189 -4
q26 0 178 4q9 -9 9 -34t-9 -34q-77 -3 -128.5 -23t-96.5 -67l-156 -172q-8 -8 -8 -21q0 -15 10 -28l240 -354q32 -47 71.5 -63.5t104.5 -23.5q9 -9 9 -33.5t-9 -33.5q-122 4 -168 4q-60 0 -142 -4q-8 0 -8 10v33q0 43 -47 111l-149 210q-29 43 -54 58t-63 16v-184
q0 -52 3.5 -84t9 -52.5t20.5 -30.5t29.5 -13.5t43.5 -6.5q9 -9 9 -33.5t-9 -33.5q-176 4 -186 4q-47 0 -219 -4q-9 9 -9 33.5t9 33.5q33 2 50.5 4.5t35.5 10t26 18t15 32t8.5 50t1.5 72.5zM545 -84q58 0 92.5 -48t34.5 -128q0 -87 -60.5 -137.5t-156.5 -65.5q-17 17 -17 49
q71 16 112.5 47.5t41.5 61.5q0 28 -16 39t-48 14q-86 15 -86 80q0 37 29.5 62.5t73.5 25.5z" />
    <glyph glyph-name="kgreenlandic" unicode="&#x138;" horiz-adv-x="1001" 
d="M358 250q0 -65 3.5 -99.5t18.5 -54t31 -24.5t54 -9q9 -9 9 -33.5t-9 -33.5q-176 4 -186 4q-58 0 -230 -4q-9 9 -9 33.5t9 33.5q37 3 55 5.5t38.5 10t28 18t15.5 32t9.5 49.5t1.5 72v399q0 46 -4.5 70t-21.5 39.5t-39.5 20.5t-68.5 9q-3 10 -5 29t1 29q195 25 281 59
q27 0 27 -14q-9 -131 -9 -233v-170q79 28 258 223q12 12 21 25.5t15.5 32t-11.5 31.5t-61 15q-9 9 -9 34t9 34q152 -4 188 -4q26 0 178 4q9 -9 9 -34t-9 -34q-77 -3 -128.5 -23t-96.5 -67l-156 -172q-8 -8 -8 -21q0 -15 10 -28l240 -354q32 -47 71.5 -63.5t104.5 -23.5
q9 -9 9 -33.5t-9 -33.5q-122 4 -168 4q-59 0 -141 -4q-8 0 -8 10v33q0 42 -48 111l-149 210q-28 41 -52.5 56.5t-58.5 17.5v-184z" />
    <glyph glyph-name="Lacute" unicode="&#x139;" horiz-adv-x="1077" 
d="M301 0q-166 -2 -266 -4q-9 9 -9 33.5t9 33.5q41 2 63.5 4t45.5 9.5t34 18.5t20 32.5t12 50t3 72.5v821q0 65 -6.5 100t-30 54.5t-52 24t-89.5 7.5q-9 9 -9 34t9 34q204 -4 264 -4q66 0 266 4q9 -9 9 -34t-9 -34q-61 -3 -89.5 -7.5t-52 -24t-30 -54.5t-6.5 -100v-889
q0 -47 26 -74.5t70 -27.5h232q56 0 98.5 20t71.5 60t47 83t35 105q36 6 67 -10q-19 -170 -53 -342q-188 4 -244 4h-436zM393 1677q88 -40 127 -106l-295 -119q-60 -25 -86 -25q-13 0 -21.5 9.5t-8.5 21.5q0 23 30 43z" />
    <glyph glyph-name="lacute" unicode="&#x13a;" horiz-adv-x="540" 
d="M416 1735q87 -40 127 -107l-295 -119q-57 -24 -86 -24q-13 0 -22 9.5t-9 21.5q0 22 31 43zM195 250v895q0 41 -1.5 68t-8.5 46t-12.5 28.5t-22 15t-28.5 7t-40 2.5q-12 1 -19 1q-9 9 -12 28.5t0 32.5q62 5 155.5 23t131.5 33q27 0 27 -21q-9 -82 -9 -215v-944
q0 -66 4.5 -100.5t23.5 -54.5t43 -24.5t77 -7.5q9 -9 9 -33.5t-9 -33.5q-176 4 -228 4q-57 0 -229 -4q-9 9 -9 33.5t9 33.5q53 3 77 7.5t43 24.5t23.5 54.5t4.5 100.5z" />
    <glyph glyph-name="Lcommaaccent" unicode="&#x13b;" horiz-adv-x="1077" 
d="M301 0q-166 -2 -266 -4q-9 9 -9 33.5t9 33.5q41 2 63.5 4t45.5 9.5t34 18.5t20 32.5t12 50t3 72.5v821q0 65 -6.5 100t-30 54.5t-52 24t-89.5 7.5q-9 9 -9 34t9 34q204 -4 264 -4q66 0 266 4q9 -9 9 -34t-9 -34q-61 -3 -89.5 -7.5t-52 -24t-30 -54.5t-6.5 -100v-889
q0 -47 26 -74.5t70 -27.5h232q56 0 98.5 20t71.5 60t47 83t35 105q36 6 67 -10q-19 -170 -53 -342q-188 4 -244 4h-436zM567 -84q58 0 92.5 -48t34.5 -128q0 -87 -60.5 -137.5t-156.5 -65.5q-16 16 -16 49q71 16 112 47.5t41 61.5q0 28 -15.5 39t-47.5 14q-86 15 -86 80
q0 37 29 62.5t73 25.5z" />
    <glyph glyph-name="lcommaaccent" unicode="&#x13c;" horiz-adv-x="540" 
d="M270 -84q58 0 92.5 -48t34.5 -128q0 -87 -60.5 -137.5t-156.5 -65.5q-16 16 -16 49q71 16 112 47.5t41 61.5q0 28 -15.5 39t-47.5 14q-86 15 -86 80q0 37 29 62.5t73 25.5zM195 250v895q0 41 -1.5 68t-8.5 46t-12.5 28.5t-22 15t-28.5 7t-40 2.5q-12 1 -19 1
q-9 9 -12 28.5t0 32.5q62 5 155.5 23t131.5 33q27 0 27 -21q-9 -82 -9 -215v-944q0 -66 4.5 -100.5t23.5 -54.5t43 -24.5t77 -7.5q9 -9 9 -33.5t-9 -33.5q-176 4 -228 4q-57 0 -229 -4q-9 9 -9 33.5t9 33.5q53 3 77 7.5t43 24.5t23.5 54.5t4.5 100.5z" />
    <glyph glyph-name="Lcaron" unicode="&#x13d;" horiz-adv-x="1077" 
d="M301 0q-166 -2 -266 -4q-9 9 -9 33.5t9 33.5q41 2 63.5 4t45.5 9.5t34 18.5t20 32.5t12 50t3 72.5v821q0 65 -6.5 100t-30 54.5t-52 24t-89.5 7.5q-9 9 -9 34t9 34q204 -4 264 -4q66 0 266 4q9 -9 9 -34t-9 -34q-61 -3 -89.5 -7.5t-52 -24t-30 -54.5t-6.5 -100v-889
q0 -47 26 -74.5t70 -27.5h232q56 0 98.5 20t71.5 60t47 83t35 105q36 6 67 -10q-19 -170 -53 -342q-188 4 -244 4h-436zM819 1430q56 0 89.5 -45.5t33.5 -104.5q0 -67 -56 -136.5t-153 -80.5l-10 35q59 12 94 56t35 85q0 20 -8.5 31.5t-20.5 11.5q-94 0 -94 78
q0 27 23.5 48.5t66.5 21.5z" />
    <glyph glyph-name="lcaron" unicode="&#x13e;" horiz-adv-x="593" 
d="M195 250v895q0 41 -1.5 68t-8.5 46t-12.5 28.5t-22 15t-28.5 7t-40 2.5q-12 1 -19 1q-9 9 -12 28.5t0 32.5q62 5 155.5 23t131.5 33q27 0 27 -21q-9 -82 -9 -215v-944q0 -66 4.5 -100.5t23.5 -54.5t43 -24.5t77 -7.5q9 -9 9 -33.5t-9 -33.5q-176 4 -228 4q-57 0 -229 -4
q-9 9 -9 33.5t9 33.5q53 3 77 7.5t43 24.5t23.5 54.5t4.5 100.5zM543 1430q56 0 89.5 -45.5t33.5 -104.5q0 -67 -56 -136.5t-153 -80.5l-11 35q59 12 94 56t35 85q0 20 -8 31.5t-20 11.5q-94 0 -94 78q0 27 23.5 48.5t66.5 21.5z" />
    <glyph glyph-name="Ldot" unicode="&#x13f;" horiz-adv-x="1077" 
d="M301 0q-166 -2 -266 -4q-9 9 -9 33.5t9 33.5q41 2 63.5 4t45.5 9.5t34 18.5t20 32.5t12 50t3 72.5v821q0 65 -6.5 100t-30 54.5t-52 24t-89.5 7.5q-9 9 -9 34t9 34q204 -4 264 -4q66 0 266 4q9 -9 9 -34t-9 -34q-61 -3 -89.5 -7.5t-52 -24t-30 -54.5t-6.5 -100v-889
q0 -47 26 -74.5t70 -27.5h232q56 0 98.5 20t71.5 60t47 83t35 105q36 6 67 -10q-19 -170 -53 -342q-188 4 -244 4h-436zM592 686q0 43 31.5 75t74.5 32t75 -32t32 -75t-32 -74.5t-75 -31.5t-74.5 31.5t-31.5 74.5z" />
    <glyph glyph-name="ldot" unicode="&#x140;" horiz-adv-x="540" 
d="M195 250v895q0 41 -1.5 68t-8.5 46t-12.5 28.5t-22 15t-28.5 7t-40 2.5q-12 1 -19 1q-9 9 -12 28.5t0 32.5q62 5 155.5 23t131.5 33q27 0 27 -21q-9 -82 -9 -215v-944q0 -66 4.5 -100.5t23.5 -54.5t43 -24.5t77 -7.5q9 -9 9 -33.5t-9 -33.5q-176 4 -228 4q-57 0 -229 -4
q-9 9 -9 33.5t9 33.5q53 3 77 7.5t43 24.5t23.5 54.5t4.5 100.5zM436 737q0 39 29.5 70t69.5 31q36 0 66 -30.5t30 -70.5q0 -39 -27.5 -67.5t-68.5 -28.5q-44 0 -71.5 28.5t-27.5 67.5z" />
    <glyph glyph-name="Lslash" unicode="&#x141;" horiz-adv-x="1077" 
d="M635 920l37 -62l-285 -163v-513q0 -47 26 -74.5t70 -27.5h232q56 0 98.5 20t71.5 60t47 83t35 105q36 6 67 -10q-19 -170 -53 -342q-188 4 -244 4h-436q-166 -2 -266 -4q-9 9 -9 33.5t9 33.5q41 2 63.5 4t45.5 9.5t34 18.5t20 32.5t12 50t3 72.5v345l-166 -95l-37 63
l203 116v392q0 65 -6.5 100t-30 54.5t-52 24t-89.5 7.5q-9 9 -9 34t9 34q204 -4 264 -4q66 0 266 4q9 -9 9 -34t-9 -34q-61 -3 -89.5 -7.5t-52 -24t-30 -54.5t-6.5 -100v-293z" />
    <glyph glyph-name="lslash" unicode="&#x142;" horiz-adv-x="540" 
d="M498 897l34 -61l-176 -103v-483q0 -66 4.5 -100.5t23.5 -54.5t43 -24.5t77 -7.5q9 -9 9 -33.5t-9 -33.5q-176 4 -228 4q-57 0 -229 -4q-9 9 -9 33.5t9 33.5q53 3 77 7.5t43 24.5t23.5 54.5t4.5 100.5v389l-148 -86l-35 59l183 107v426q0 41 -1.5 68t-8.5 46t-12.5 28.5
t-22 15t-28.5 7t-40 2.5q-12 1 -19 1q-9 9 -12 28.5t0 32.5q62 5 155.5 23t131.5 33q27 0 27 -21q-9 -82 -9 -215v-380z" />
    <glyph glyph-name="Nacute" unicode="&#x143;" horiz-adv-x="1431" 
d="M1139 1049q0 41 -3 69.5t-7 50.5t-15.5 36t-22 23t-33.5 14.5t-42 8t-55 6.5q-9 9 -9 34t9 34q204 -4 227 -4q29 0 229 4q9 -9 9 -34t-9 -34q-61 -6 -89.5 -12.5t-52 -28.5t-30 -59.5t-6.5 -107.5v-1006q0 -29 -12.5 -46t-34.5 -17q-46 0 -82 49l-715 903q-52 67 -69 67
q-11 0 -14 -21t-3 -79v-627q0 -48 2.5 -79.5t12.5 -54.5t20 -35t34 -20.5t45.5 -12t63.5 -7.5q9 -9 9 -33.5t-9 -33.5q-204 4 -227 4q-29 0 -229 -4q-9 9 -9 33.5t9 33.5q41 4 63.5 7.5t46 12.5t34 21.5t20 35.5t12 54t2.5 78v854q-10 45 -55.5 86t-106.5 45q-9 9 -9 34
t9 34l277 -4l702 -905l30.5 -40l25.5 -33l17 -21t14.5 -15t10.5 -4q10 0 12.5 14t2.5 48v684zM784 1679q88 -40 127 -106l-295 -119q-57 -24 -86 -24q-13 0 -21.5 9t-8.5 21q0 23 30 43z" />
    <glyph glyph-name="nacute" unicode="&#x144;" horiz-adv-x="1097" 
d="M377 733q87 97 162.5 131.5t160.5 34.5q116 0 170 -70q56 -75 56 -274v-305q0 -37 2 -62.5t5 -46t11 -32.5t16.5 -20.5t25.5 -13.5t33 -7.5t44 -4.5q7 -9 7 -33.5t-7 -33.5q-176 4 -217 4q-37 0 -209 -4q-7 9 -7 33.5t7 33.5q45 4 65.5 9.5t37 25t20.5 53.5t4 99v311
q0 107 -25 158q-18 35 -47.5 54.5t-60.5 19.5q-114 0 -238 -121q-35 -39 -35 -86v-336q0 -65 3.5 -99t19.5 -53.5t36 -25t64 -9.5q9 -9 9 -33.5t-9 -33.5q-172 4 -202 4q-58 0 -226 -4q-9 9 -9 33.5t9 33.5q35 3 53.5 5.5t38 10t27 18.5t15 32.5t9 49t1.5 71.5v399
q0 46 -4.5 70.5t-21.5 39.5t-39 20t-69 9q-3 10 -5 29t1 29q200 26 283 59q25 0 25 -16q-11 -95 -11 -156q0 -28 21 0zM643 1374q12 4 29 4q63 0 112 -47l7 -22l-236 -224q-38 -38 -61 -38q-11 0 -20 8t-9 18q0 16 4 25.5t19 31.5z" />
    <glyph glyph-name="Ncommaaccent" unicode="&#x145;" horiz-adv-x="1431" 
d="M1139 1049q0 41 -3 69.5t-7 50.5t-15.5 36t-22 23t-33.5 14.5t-42 8t-55 6.5q-9 9 -9 34t9 34q204 -4 227 -4q29 0 229 4q9 -9 9 -34t-9 -34q-61 -6 -89.5 -12.5t-52 -28.5t-30 -59.5t-6.5 -107.5v-1006q0 -29 -12.5 -46t-34.5 -17q-46 0 -82 49l-715 903q-52 67 -69 67
q-11 0 -14 -21t-3 -79v-627q0 -48 2.5 -79.5t12.5 -54.5t20 -35t34 -20.5t45.5 -12t63.5 -7.5q9 -9 9 -33.5t-9 -33.5q-204 4 -227 4q-29 0 -229 -4q-9 9 -9 33.5t9 33.5q41 4 63.5 7.5t46 12.5t34 21.5t20 35.5t12 54t2.5 78v854q-10 45 -55.5 86t-106.5 45q-9 9 -9 34
t9 34l277 -4l702 -905l30.5 -40l25.5 -33l17 -21t14.5 -15t10.5 -4q10 0 12.5 14t2.5 48v684zM733 -84q58 0 92.5 -48t34.5 -128q0 -87 -60.5 -137.5t-156.5 -65.5q-16 16 -16 49q71 16 112 47.5t41 61.5q0 28 -15.5 39t-47.5 14q-86 15 -86 80q0 37 29 62.5t73 25.5z" />
    <glyph glyph-name="ncommaaccent" unicode="&#x146;" horiz-adv-x="1097" 
d="M377 733q87 97 162.5 131.5t160.5 34.5q116 0 170 -70q56 -75 56 -274v-305q0 -37 2 -62.5t5 -46t11 -32.5t16.5 -20.5t25.5 -13.5t33 -7.5t44 -4.5q7 -9 7 -33.5t-7 -33.5q-176 4 -217 4q-37 0 -209 -4q-7 9 -7 33.5t7 33.5q45 4 65.5 9.5t37 25t20.5 53.5t4 99v311
q0 107 -25 158q-18 35 -47.5 54.5t-60.5 19.5q-114 0 -238 -121q-35 -39 -35 -86v-336q0 -65 3.5 -99t19.5 -53.5t36 -25t64 -9.5q9 -9 9 -33.5t-9 -33.5q-172 4 -202 4q-58 0 -226 -4q-9 9 -9 33.5t9 33.5q35 3 53.5 5.5t38 10t27 18.5t15 32.5t9 49t1.5 71.5v399
q0 46 -4.5 70.5t-21.5 39.5t-39 20t-69 9q-3 10 -5 29t1 29q200 26 283 59q25 0 25 -16q-11 -95 -11 -156q0 -28 21 0zM535 -84q58 0 92.5 -48t34.5 -128q0 -87 -61 -137.5t-157 -65.5q-16 16 -16 49q71 16 112.5 47.5t41.5 61.5q0 28 -16 39t-48 14q-86 15 -86 80
q0 37 29.5 62.5t73.5 25.5z" />
    <glyph glyph-name="Ncaron" unicode="&#x147;" horiz-adv-x="1431" 
d="M1139 1049q0 41 -3 69.5t-7 50.5t-15.5 36t-22 23t-33.5 14.5t-42 8t-55 6.5q-9 9 -9 34t9 34q204 -4 227 -4q29 0 229 4q9 -9 9 -34t-9 -34q-61 -6 -89.5 -12.5t-52 -28.5t-30 -59.5t-6.5 -107.5v-1006q0 -29 -12.5 -46t-34.5 -17q-46 0 -82 49l-715 903q-52 67 -69 67
q-11 0 -14 -21t-3 -79v-627q0 -48 2.5 -79.5t12.5 -54.5t20 -35t34 -20.5t45.5 -12t63.5 -7.5q9 -9 9 -33.5t-9 -33.5q-204 4 -227 4q-29 0 -229 -4q-9 9 -9 33.5t9 33.5q41 4 63.5 7.5t46 12.5t34 21.5t20 35.5t12 54t2.5 78v854q-10 45 -55.5 86t-106.5 45q-9 9 -9 34
t9 34l277 -4l702 -905l30.5 -40l25.5 -33l17 -21t14.5 -15t10.5 -4q10 0 12.5 14t2.5 48v684zM678 1427q-75 93 -207 195l33 41q121 -53 217 -125q118 82 219 125l31 -41q-103 -78 -205 -195h-88z" />
    <glyph glyph-name="ncaron" unicode="&#x148;" horiz-adv-x="1097" 
d="M377 733q87 97 162.5 131.5t160.5 34.5q116 0 170 -70q56 -75 56 -274v-305q0 -37 2 -62.5t5 -46t11 -32.5t16.5 -20.5t25.5 -13.5t33 -7.5t44 -4.5q7 -9 7 -33.5t-7 -33.5q-176 4 -217 4q-37 0 -209 -4q-7 9 -7 33.5t7 33.5q45 4 65.5 9.5t37 25t20.5 53.5t4 99v311
q0 107 -25 158q-18 35 -47.5 54.5t-60.5 19.5q-114 0 -238 -121q-35 -39 -35 -86v-336q0 -65 3.5 -99t19.5 -53.5t36 -25t64 -9.5q9 -9 9 -33.5t-9 -33.5q-172 4 -202 4q-58 0 -226 -4q-9 9 -9 33.5t9 33.5q35 3 53.5 5.5t38 10t27 18.5t15 32.5t9 49t1.5 71.5v399
q0 46 -4.5 70.5t-21.5 39.5t-39 20t-69 9q-3 10 -5 29t1 29q200 26 283 59q25 0 25 -16q-11 -95 -11 -156q0 -28 21 0zM504 1030q-77 125 -207 266l41 27q142 -105 217 -184q80 82 221 184l39 -27q-139 -154 -209 -266h-102z" />
    <glyph glyph-name="napostrophe" unicode="&#x149;" horiz-adv-x="1097" 
d="M403 733q87 97 163 131.5t161 34.5q116 0 170 -70q32 -44 43.5 -110.5t11.5 -163.5v-305q0 -52 4 -83t11 -52t25.5 -30.5t38 -14t59.5 -7.5q8 -9 8 -33.5t-8 -33.5q-176 4 -218 4q-36 0 -208 -4q-8 9 -8 33.5t8 33.5q45 4 65.5 9.5t37 25t20.5 53.5t4 99v311
q0 107 -25 158q-18 35 -48 54.5t-61 19.5q-113 0 -237 -121q-35 -39 -35 -86v-336q0 -65 3.5 -99t19.5 -53.5t36 -25t64 -9.5q9 -9 9 -33.5t-9 -33.5q-172 4 -203 4q-57 0 -225 -4q-9 9 -9 33.5t9 33.5q42 3 62.5 7.5t40 14t26 30.5t10.5 51.5t4 83.5v399q0 46 -4.5 70.5
t-21.5 39.5t-38.5 20t-68.5 9q-3 10 -5 29t1 29q200 26 283 59q24 0 24 -16q-10 -95 -10 -156q0 -27 20 0zM147 1430q56 0 89.5 -45.5t33.5 -104.5q0 -67 -56 -136.5t-153 -80.5l-10 35q59 12 94 56t35 85q0 20 -8 31.5t-20 11.5q-95 0 -95 78q0 27 23.5 48.5t66.5 21.5z
" />
    <glyph glyph-name="Eng" unicode="&#x14a;" horiz-adv-x="1423" 
d="M1235 199q-1 -190 -45 -300t-137 -184q-94 -80 -234 -80q-42 0 -86.5 30.5t-44.5 80.5q0 31 26.5 52.5t51.5 21.5q29 0 51.5 -9.5t32 -19t22.5 -27.5q27 -36 58 -36q27 0 47 13t40 48.5t33 109t18 183.5l-673 850q-52 67 -69 67q-21 0 -21 -100v-719q0 -50 28 -83.5
t85 -37.5l53 -4q16 -2 16 -16v-39l-4 -4q-145 4 -227 4l-229 -4l-4 4v37q0 15 26 18l53 4q58 4 84.5 39t26.5 82v946q-10 44 -51.5 90t-87.5 50q-35 4 -35 16v37l6 4h279l702 -907q51 -66 71.5 -89.5t30.5 -23.5t12.5 14t2.5 48v776q0 48 -26 82t-85 39l-53 4q-29 3 -29 16
v39l8 2q154 -2 228 -2l227 2l4 -2v-39q0 -14 -16 -16l-55 -4q-57 -4 -84 -37.5t-27 -83.5v-942z" />
    <glyph glyph-name="eng" unicode="&#x14b;" horiz-adv-x="1054" 
d="M899 225q0 -258 -29.5 -407.5t-99.5 -206.5q-77 -64 -186 -64q-34 0 -70.5 25t-36.5 66q0 26 21 43.5t41 17.5q25 0 44 -8t27 -15.5t19 -21.5q22 -33 47 -33q19 0 32.5 17t21 51.5t11.5 70.5t5 92.5t1 98.5t-1 106.5t-1 98.5v434q0 114 -27.5 162.5t-105.5 48.5
q-71 0 -134 -35t-138 -123v-496q0 -43 19.5 -62t68.5 -26l29 -4q16 -2 16 -16v-39l-4 -4q-127 4 -209 4l-213 -4l-4 4v39q0 14 16 16l39 4q52 5 70 24t18 64v510q0 72 -10.5 98.5t-34.5 28.5l-88 9l-4 49q208 33 283 63q8 0 8 -6l-6 -182h6q91 107 168.5 144.5t165.5 37.5
q54 0 94 -16.5t65 -44.5t40 -70.5t20.5 -88.5t5.5 -104v-350z" />
    <glyph glyph-name="Omacron" unicode="&#x14c;" horiz-adv-x="1437" 
d="M1364 674q0 -152 -46.5 -281t-130 -220t-204.5 -142t-266 -51q-132 0 -248.5 46.5t-204 129.5t-138 207t-50.5 272q0 199 80 361.5t224.5 257t324.5 94.5q134 0 254 -49t210 -135.5t142.5 -213.5t52.5 -276zM678 1278q-73 0 -142.5 -35.5t-129.5 -106t-97 -191.5
t-37 -275q0 -143 41 -262t109.5 -196.5t155.5 -120t180 -42.5q179 0 294 158.5t115 427.5q0 156 -37 279.5t-103 202.5t-154.5 120t-194.5 41zM938 1526h-459q-12 0 -19 12t-7 25q0 20 14.5 42.5t30.5 22.5h460q13 0 21 -12t8 -23q0 -21 -15 -44t-34 -23z" />
    <glyph glyph-name="omacron" unicode="&#x14d;" horiz-adv-x="1032" 
d="M496 831q-82 0 -137 -55.5t-77 -134.5t-22 -174q0 -50 9.5 -104.5t32 -111.5t55 -102t83 -73.5t111.5 -28.5q32 0 60.5 7.5t58.5 29.5t52 57t36 94.5t14 137.5q0 224 -71.5 341t-204.5 117zM84 420q0 132 50 239.5t150 173.5t234 66q92 0 166 -27.5t122.5 -73t81 -106.5
t46.5 -124t14 -130q0 -63 -15.5 -126t-50 -123.5t-83.5 -106.5t-123 -74t-162 -28q-104 0 -188.5 39t-135.5 103t-78.5 140.5t-27.5 157.5zM737 1061h-458q-12 0 -19.5 12.5t-7.5 24.5q0 20 14.5 42.5t30.5 22.5h461q13 0 20.5 -11.5t7.5 -23.5q0 -21 -15 -44t-34 -23z" />
    <glyph glyph-name="Obreve" unicode="&#x14e;" horiz-adv-x="1437" 
d="M1364 674q0 -152 -46.5 -281t-130 -220t-204.5 -142t-266 -51q-132 0 -248.5 46.5t-204 129.5t-138 207t-50.5 272q0 199 80 361.5t224.5 257t324.5 94.5q134 0 254 -49t210 -135.5t142.5 -213.5t52.5 -276zM678 1278q-73 0 -142.5 -35.5t-129.5 -106t-97 -191.5
t-37 -275q0 -143 41 -262t109.5 -196.5t155.5 -120t180 -42.5q179 0 294 158.5t115 427.5q0 156 -37 279.5t-103 202.5t-154.5 120t-194.5 41zM1004 1649q-9 -105 -91 -168.5t-188 -63.5q-115 0 -193.5 63.5t-85.5 168.5h58q12 -58 74 -91.5t147 -33.5q80 0 145.5 34
t75.5 91h58z" />
    <glyph glyph-name="obreve" unicode="&#x14f;" horiz-adv-x="1032" 
d="M496 831q-82 0 -137 -55.5t-77 -134.5t-22 -174q0 -50 9.5 -104.5t32 -111.5t55 -102t83 -73.5t111.5 -28.5q32 0 60.5 7.5t58.5 29.5t52 57t36 94.5t14 137.5q0 224 -71.5 341t-204.5 117zM84 420q0 132 50 239.5t150 173.5t234 66q92 0 166 -27.5t122.5 -73t81 -106.5
t46.5 -124t14 -130q0 -63 -15.5 -126t-50 -123.5t-83.5 -106.5t-123 -74t-162 -28q-104 0 -188.5 39t-135.5 103t-78.5 140.5t-27.5 157.5zM268 1321q17 -82 77.5 -133t143.5 -51t145 49t77 135l55 -25q-18 -126 -99.5 -201t-177.5 -75q-108 0 -181 73t-95 203z" />
    <glyph glyph-name="Ohungarumlaut" unicode="&#x150;" horiz-adv-x="1437" 
d="M1364 674q0 -152 -46.5 -281t-130 -220t-204.5 -142t-266 -51q-132 0 -248.5 46.5t-204 129.5t-138 207t-50.5 272q0 199 80 361.5t224.5 257t324.5 94.5q134 0 254 -49t210 -135.5t142.5 -213.5t52.5 -276zM678 1278q-73 0 -142.5 -35.5t-129.5 -106t-97 -191.5
t-37 -275q0 -143 41 -262t109.5 -196.5t155.5 -120t180 -42.5q179 0 294 158.5t115 427.5q0 156 -37 279.5t-103 202.5t-154.5 120t-194.5 41zM762 1632q0 -28 -14 -39l-181 -165q-17 -15 -28 -15t-19 7.5t-8 17.5q0 12 5 22l112 226q15 24 55 24q27 0 52.5 -22.5
t25.5 -55.5zM1030 1622q0 -27 -14 -41l-203 -172q-6 -6 -16 -6q-9 0 -18 8t-9 19q0 8 8 22l121 223q16 25 47 25q41 0 62.5 -24.5t21.5 -53.5z" />
    <glyph glyph-name="ohungarumlaut" unicode="&#x151;" horiz-adv-x="1032" 
d="M496 831q-82 0 -137 -55.5t-77 -134.5t-22 -174q0 -50 9.5 -104.5t32 -111.5t55 -102t83 -73.5t111.5 -28.5q32 0 60.5 7.5t58.5 29.5t52 57t36 94.5t14 137.5q0 224 -71.5 341t-204.5 117zM84 420q0 132 50 239.5t150 173.5t234 66q92 0 166 -27.5t122.5 -73t81 -106.5
t46.5 -124t14 -130q0 -63 -15.5 -126t-50 -123.5t-83.5 -106.5t-123 -74t-162 -28q-104 0 -188.5 39t-135.5 103t-78.5 140.5t-27.5 157.5zM543 1264q0 -19 -11 -33l-208 -248q-6 -6 -17 -6q-10 0 -19 8t-9 19q0 4 2 6l131 299q12 28 53 28q33 0 55.5 -21t22.5 -52z
M813 1251q0 -25 -14 -39l-234 -225q-4 -4 -12 -4q-9 0 -19 8t-10 19q0 6 2 8l160 285q13 24 49 24q32 0 55 -23.5t23 -52.5z" />
    <glyph glyph-name="OE" unicode="&#x152;" horiz-adv-x="1779" 
d="M733 -4q-189 1 -337.5 87.5t-229 235.5t-80.5 332q0 138 44.5 260.5t124.5 214t198 144.5t258 53q143 -2 233 -2h160h526l29 -285l-55 -6q-12 76 -65 142.5t-126 66.5h-309q-38 0 -56 -14.5t-18 -50.5v-424h211q52 0 72.5 21t32.5 69l14 61q0 6 4 11.5t10 5.5h45
q6 0 6 -9q-1 -22 -8.5 -88.5t-7.5 -105.5q0 -32 2.5 -64t7 -73l6.5 -60l-4 -6h-47q-16 0 -16 14l-12 64q-10 46 -32.5 68t-72.5 22h-211v-533q0 -39 18.5 -53t55.5 -14h317q94 0 146.5 67.5t77.5 190.5l55 -10l-53 -328h-705zM729 66h27q59 0 79.5 18t20.5 63v1029
q0 46 -20 60.5t-80 14.5h-72q-62 0 -118.5 -18t-109.5 -61t-92 -108t-62 -166t-23 -228q0 -123 26.5 -225t71 -171t103 -117t121.5 -69.5t128 -21.5z" />
    <glyph glyph-name="oe" unicode="&#x153;" horiz-adv-x="1593" 
d="M1341 588q-1 31 -4 58t-14.5 62.5t-29.5 60.5t-51.5 42.5t-78.5 17.5q-61 0 -109 -32t-73 -77.5t-37 -78.5t-14 -53h411zM246 485q0 -119 27.5 -214t90.5 -157.5t154 -62.5q31 0 61 9t62.5 34.5t56 64t39 103.5t15.5 148q0 111 -27 197.5t-68 132.5t-82.5 68.5
t-78.5 22.5q-61 0 -107 -23t-72.5 -57.5t-43 -83t-22 -92t-5.5 -90.5zM838 715q56 81 142.5 132.5t186.5 51.5q177 0 264 -102.5t87 -288.5h-594q-2 -18 -2 -62q0 -78 20.5 -143t51.5 -106t68.5 -69.5t70.5 -40t59 -11.5q65 0 143.5 27t122.5 75q24 -1 45 -31
q-123 -167 -334 -167q-236 0 -344 182q-121 -182 -336 -182q-186 0 -302.5 125.5t-116.5 316.5q0 116 34.5 208.5t94.5 150t136 88t163 30.5q74 0 131 -14.5t96 -42.5t63.5 -56.5t49.5 -70.5z" />
    <glyph glyph-name="Racute" unicode="&#x154;" horiz-adv-x="1202" 
d="M387 250q0 -44 3 -72.5t12 -50t20 -32.5t34 -18.5t45.5 -9.5t63.5 -4q9 -9 9 -33.5t-9 -33.5q-204 4 -264 4q-66 0 -266 -4q-9 9 -9 33.5t9 33.5q41 2 63.5 4t45.5 9.5t34 18.5t20 32.5t12 50t3 72.5v821q0 65 -6.5 100t-30 54.5t-52 24t-89.5 7.5q-9 9 -9 34t9 34
q204 -4 264 -4q42 0 138 7t118 7q122 0 205 -18t149 -80q109 -103 109 -256q0 -76 -29.5 -140.5t-75 -105.5t-87.5 -66t-81 -38l259 -430q47 -79 90 -118.5t106 -39.5q13 -27 2 -49q-28 -14 -86 -14q-157 0 -270 182l-219 356q-16 27 -37 42t-70.5 25.5t-132.5 10.5v-346z
M557 1266q-170 0 -170 -131v-469h98q80 0 138.5 13.5t107 46.5t73.5 96.5t25 156.5q0 287 -272 287zM639 1679q88 -40 127 -106l-295 -119q-57 -24 -86 -24q-13 0 -22 9t-9 21q0 22 31 43z" />
    <glyph glyph-name="racute" unicode="&#x155;" horiz-adv-x="761" 
d="M205 649q0 83 -24 107t-109 32q-6 8 -6.5 29t2.5 29q196 25 280 59q27 0 27 -14q-10 -98 -10 -164q0 -11 6 -12q5 0 12 14q41 70 101 120t126 50q59 0 91 -31.5t32 -66.5q0 -39 -29.5 -71t-66.5 -32q-19 0 -33 8q-15 8 -33 30l-18 22q-14 14 -43 14q-24 0 -94 -100
q-49 -73 -49 -137v-285q0 -44 2 -72t10.5 -49.5t17.5 -32t31.5 -18t43.5 -10t63 -5.5q9 -9 9 -33.5t-9 -33.5q-176 4 -248 4q-62 0 -234 -4q-9 9 -9 33.5t9 33.5q54 3 78.5 8t44 25t24.5 54t5 100v399zM494 1374q12 4 28 4q64 0 113 -47l6 -22l-235 -224q-38 -38 -62 -38
q-11 0 -20 8t-9 18q0 4 0.5 8t1 6.5t2 6.5t2 6t3.5 7t4 6.5l5.5 8t5.5 8.5z" />
    <glyph glyph-name="Rcommaaccent" unicode="&#x156;" horiz-adv-x="1202" 
d="M387 250q0 -44 3 -72.5t12 -50t20 -32.5t34 -18.5t45.5 -9.5t63.5 -4q9 -9 9 -33.5t-9 -33.5q-204 4 -264 4q-66 0 -266 -4q-9 9 -9 33.5t9 33.5q41 2 63.5 4t45.5 9.5t34 18.5t20 32.5t12 50t3 72.5v821q0 65 -6.5 100t-30 54.5t-52 24t-89.5 7.5q-9 9 -9 34t9 34
q204 -4 264 -4q42 0 138 7t118 7q122 0 205 -18t149 -80q109 -103 109 -256q0 -76 -29.5 -140.5t-75 -105.5t-87.5 -66t-81 -38l259 -430q47 -79 90 -118.5t106 -39.5q13 -27 2 -49q-28 -14 -86 -14q-157 0 -270 182l-219 356q-16 27 -37 42t-70.5 25.5t-132.5 10.5v-346z
M557 1266q-170 0 -170 -131v-469h98q80 0 138.5 13.5t107 46.5t73.5 96.5t25 156.5q0 287 -272 287zM635 -84q58 0 92.5 -48t34.5 -128q0 -87 -60.5 -137.5t-156.5 -65.5q-17 17 -17 49q71 16 112.5 47.5t41.5 61.5q0 28 -16 39t-48 14q-86 15 -86 80q0 37 29.5 62.5
t73.5 25.5z" />
    <glyph glyph-name="rcommaaccent" unicode="&#x157;" horiz-adv-x="761" 
d="M205 649q0 83 -24 107t-109 32q-6 8 -6.5 29t2.5 29q196 25 280 59q27 0 27 -14q-10 -98 -10 -164q0 -11 6 -12q5 0 12 14q41 70 101 120t126 50q59 0 91 -31.5t32 -66.5q0 -39 -29.5 -71t-66.5 -32q-19 0 -33 8q-15 8 -33 30l-18 22q-14 14 -43 14q-24 0 -94 -100
q-49 -73 -49 -137v-285q0 -44 2 -72t10.5 -49.5t17.5 -32t31.5 -18t43.5 -10t63 -5.5q9 -9 9 -33.5t-9 -33.5q-176 4 -248 4q-62 0 -234 -4q-9 9 -9 33.5t9 33.5q54 3 78.5 8t44 25t24.5 54t5 100v399zM281 -84q58 0 92.5 -48t34.5 -128q0 -87 -61 -137.5t-157 -65.5
q-16 16 -16 49q71 16 112.5 47.5t41.5 61.5q0 28 -16 39t-48 14q-86 15 -86 80q0 37 29.5 62.5t73.5 25.5z" />
    <glyph glyph-name="Rcaron" unicode="&#x158;" horiz-adv-x="1202" 
d="M387 250q0 -44 3 -72.5t12 -50t20 -32.5t34 -18.5t45.5 -9.5t63.5 -4q9 -9 9 -33.5t-9 -33.5q-204 4 -264 4q-66 0 -266 -4q-9 9 -9 33.5t9 33.5q41 2 63.5 4t45.5 9.5t34 18.5t20 32.5t12 50t3 72.5v821q0 65 -6.5 100t-30 54.5t-52 24t-89.5 7.5q-9 9 -9 34t9 34
q204 -4 264 -4q42 0 138 7t118 7q122 0 205 -18t149 -80q109 -103 109 -256q0 -76 -29.5 -140.5t-75 -105.5t-87.5 -66t-81 -38l259 -430q47 -79 90 -118.5t106 -39.5q13 -27 2 -49q-28 -14 -86 -14q-157 0 -270 182l-219 356q-16 27 -37 42t-70.5 25.5t-132.5 10.5v-346z
M557 1266q-170 0 -170 -131v-469h98q80 0 138.5 13.5t107 46.5t73.5 96.5t25 156.5q0 287 -272 287zM500 1427q-75 93 -207 195l33 41q121 -53 217 -125q118 82 219 125l31 -41q-103 -78 -205 -195h-88z" />
    <glyph glyph-name="rcaron" unicode="&#x159;" horiz-adv-x="761" 
d="M205 649q0 83 -24 107t-109 32q-6 8 -6.5 29t2.5 29q196 25 280 59q27 0 27 -14q-10 -98 -10 -164q0 -11 6 -12q5 0 12 14q41 70 101 120t126 50q59 0 91 -31.5t32 -66.5q0 -39 -29.5 -71t-66.5 -32q-19 0 -33 8q-15 8 -33 30l-18 22q-14 14 -43 14q-24 0 -94 -100
q-49 -73 -49 -137v-285q0 -44 2 -72t10.5 -49.5t17.5 -32t31.5 -18t43.5 -10t63 -5.5q9 -9 9 -33.5t-9 -33.5q-176 4 -248 4q-62 0 -234 -4q-9 9 -9 33.5t9 33.5q54 3 78.5 8t44 25t24.5 54t5 100v399zM358 1030q-79 128 -206 266l41 27q142 -105 217 -184q80 82 221 184
l39 -27q-139 -154 -209 -266h-103z" />
    <glyph glyph-name="Sacute" unicode="&#x15a;" horiz-adv-x="993" 
d="M808 1292q29 -150 37 -264q-15 -12 -67 -12q-14 46 -28 80t-39 70t-55.5 59t-76.5 38t-104 15q-97 0 -160.5 -67t-63.5 -162q0 -48 22.5 -90.5t52.5 -71t78 -56t81.5 -41.5t82 -32.5t61.5 -24.5q61 -26 107.5 -55.5t87.5 -72t63 -100.5t22 -128q0 -159 -131 -278
t-314 -119q-98 0 -204 23.5t-164 23.5q-19 77 -27 136t-14 175q33 17 67 6q64 -291 359 -291q123 0 189.5 64.5t66.5 187.5q0 43 -9.5 79.5t-24.5 63t-39 50.5t-46.5 39t-54.5 31t-55.5 25l-56.5 21.5t-51 20.5q-65 28 -114 59t-92.5 73.5t-66.5 99.5t-23 126q0 104 59 187
t147.5 125.5t183.5 42.5q88 0 138.5 -10t91.5 -25t84 -21zM578 1679q88 -40 127 -106l-295 -119q-57 -24 -86 -24q-13 0 -22 9t-9 21q0 22 31 43z" />
    <glyph glyph-name="sacute" unicode="&#x15b;" horiz-adv-x="784" 
d="M465 1374q12 4 29 4q63 0 112 -47l6 -22l-235 -224q-38 -38 -62 -38q-11 0 -19.5 8t-8.5 18q0 16 4 25.5t19 31.5zM98 283q9 9 32 10t32 -8q10 -44 15.5 -65t24 -62t40.5 -62q43 -49 145 -49q66 0 120 37t54 106q0 67 -42 108t-167 93q-124 52 -174.5 111t-50.5 168
q0 96 86.5 162.5t202.5 66.5q47 0 97 -7t103 -18.5t68 -13.5q-1 -27 -6.5 -101.5t-5.5 -115.5q-9 -9 -33 -10t-33 8q-8 49 -26.5 86t-39 56t-46.5 30.5t-43.5 14.5t-34.5 3q-57 0 -100.5 -35.5t-43.5 -95.5q0 -24 5.5 -44t12.5 -34.5t24.5 -29t29.5 -23t39.5 -21t42.5 -18.5
l51 -20q114 -43 177 -108t63 -164q0 -58 -23 -104.5t-58.5 -74.5t-80.5 -46.5t-85.5 -25.5t-78.5 -7q-100 0 -186 22q-14 4 -41 4q-21 0 -51 -6q0 95 -15 283z" />
    <glyph glyph-name="Scircumflex" unicode="&#x15c;" horiz-adv-x="993" 
d="M808 1292q29 -150 37 -264q-15 -12 -67 -12q-14 46 -28 80t-39 70t-55.5 59t-76.5 38t-104 15q-97 0 -160.5 -67t-63.5 -162q0 -48 22.5 -90.5t52.5 -71t78 -56t81.5 -41.5t82 -32.5t61.5 -24.5q61 -26 107.5 -55.5t87.5 -72t63 -100.5t22 -128q0 -159 -131 -278
t-314 -119q-98 0 -204 23.5t-164 23.5q-19 77 -27 136t-14 175q33 17 67 6q64 -291 359 -291q123 0 189.5 64.5t66.5 187.5q0 43 -9.5 79.5t-24.5 63t-39 50.5t-46.5 39t-54.5 31t-55.5 25l-56.5 21.5t-51 20.5q-65 28 -114 59t-92.5 73.5t-66.5 99.5t-23 126q0 104 59 187
t147.5 125.5t183.5 42.5q88 0 138.5 -10t91.5 -25t84 -21zM508 1669q90 -109 211 -199q-11 -34 -33 -43q-131 61 -217 125q-97 -70 -219 -125q-23 15 -29 43q86 64 207 199q37 22 80 0z" />
    <glyph glyph-name="scircumflex" unicode="&#x15d;" horiz-adv-x="784" 
d="M432 1352q77 -125 223 -287q-21 -30 -47 -35q-118 74 -211 170q-115 -115 -213 -170q-25 6 -45 35q157 174 228 287q35 8 65 0zM98 283q9 9 32 10t32 -8q10 -44 15.5 -65t24 -62t40.5 -62q43 -49 145 -49q66 0 120 37t54 106q0 67 -42 108t-167 93q-124 52 -174.5 111
t-50.5 168q0 96 86.5 162.5t202.5 66.5q47 0 97 -7t103 -18.5t68 -13.5q-1 -27 -6.5 -101.5t-5.5 -115.5q-9 -9 -33 -10t-33 8q-8 49 -26.5 86t-39 56t-46.5 30.5t-43.5 14.5t-34.5 3q-57 0 -100.5 -35.5t-43.5 -95.5q0 -24 5.5 -44t12.5 -34.5t24.5 -29t29.5 -23t39.5 -21
t42.5 -18.5l51 -20q114 -43 177 -108t63 -164q0 -58 -23 -104.5t-58.5 -74.5t-80.5 -46.5t-85.5 -25.5t-78.5 -7q-100 0 -186 22q-14 4 -41 4q-21 0 -51 -6q0 95 -15 283z" />
    </font>
</defs>
</svg>
